<svg width="122" height="32" viewBox="0 0 122 32" fill="none" xmlns="http://www.w3.org/2000/svg">
<path d="M8.18571 27L3 16L8.18571 5H14.5343L19.72 16L14.5343 27H8.18571ZM11.0771 23.92H11.6429L15.32 16L11.6429 8.08H11.0771L7.4 16L11.0771 23.92Z" fill="#1A1A1C"/>
<path d="M16.5451 27L11.3594 16L16.5451 5H22.8937L28.0794 16L22.8937 27H16.5451ZM19.4365 23.92H20.0022L23.6794 16L20.0022 8.08H19.4365L15.7594 16L19.4365 23.92Z" fill="#0044FF"/>
<path d="M8.18571 27L3 16L8.18571 5H14.5343L19.72 16L14.5343 27H8.18571ZM11.0771 23.92H11.6429L15.32 16L11.6429 8.08H11.0771L7.4 16L11.0771 23.92Z" fill="#1A1A1C"/>
<path d="M16.5451 27L11.3594 16L16.5451 5H22.8937L28.0794 16L22.8937 27H16.5451ZM19.4365 23.92H20.0022L23.6794 16L20.0022 8.08H19.4365L15.7594 16L19.4365 23.92Z" fill="#0044FF"/>
<path d="M43.4158 23.337C42.3523 23.337 41.4136 23.1466 40.5996 22.7659C39.7856 22.3851 39.1488 21.8403 38.6893 21.1313C38.2298 20.4223 38 19.5689 38 18.5711V18.0197H40.5602V18.5711C40.5602 19.3983 40.8162 20.0219 41.3282 20.442C41.8403 20.849 42.5361 21.0525 43.4158 21.0525C44.3085 21.0525 44.9716 20.8753 45.4048 20.5208C45.8512 20.1663 46.0744 19.7133 46.0744 19.1619C46.0744 18.7812 45.9628 18.4726 45.7396 18.2363C45.5295 18 45.2144 17.8096 44.7943 17.6652C44.3873 17.5077 43.8884 17.3632 43.2976 17.2319L42.8446 17.1335C41.8993 16.9234 41.0853 16.6608 40.4026 16.3457C39.733 16.0175 39.2144 15.5908 38.8468 15.0656C38.4923 14.5405 38.3151 13.8578 38.3151 13.0175C38.3151 12.1772 38.512 11.4617 38.9059 10.8709C39.3129 10.267 39.8775 9.80744 40.5996 9.49234C41.3348 9.16411 42.1947 9 43.1794 9C44.1641 9 45.0372 9.17068 45.7987 9.51204C46.5733 9.84026 47.1772 10.3392 47.6105 11.0088C48.0569 11.6652 48.2801 12.4923 48.2801 13.4902V14.081H45.7199V13.4902C45.7199 12.965 45.6149 12.5449 45.4048 12.2298C45.2079 11.9015 44.919 11.6652 44.5383 11.5208C44.1575 11.3632 43.7046 11.2845 43.1794 11.2845C42.3917 11.2845 41.8074 11.4354 41.4267 11.7374C41.0591 12.0263 40.8753 12.4267 40.8753 12.9387C40.8753 13.2801 40.9606 13.5689 41.1313 13.8053C41.3151 14.0416 41.5842 14.2385 41.9387 14.3961C42.2932 14.5536 42.7462 14.6915 43.2976 14.8096L43.7505 14.9081C44.7352 15.1182 45.5886 15.3873 46.3107 15.7155C47.046 16.0438 47.6171 16.477 48.0241 17.0153C48.4311 17.5536 48.6346 18.2429 48.6346 19.0832C48.6346 19.9234 48.4179 20.6652 47.9847 21.3085C47.5645 21.9387 46.9606 22.4376 46.1729 22.8053C45.3982 23.1597 44.4792 23.337 43.4158 23.337Z" fill="#1A1A1C"/>
<path d="M50.0613 23.0613V9.27571H52.5427V16.8972H52.8972L56.1269 13.2932H59.3567L54.8468 18.0197L59.5142 23.0613H56.3239L52.8972 19.1816H52.5427V23.0613H50.0613Z" fill="#1A1A1C"/>
<path d="M60.5866 23.0613V13.2932H63.068V23.0613H60.5866ZM61.8273 12.151C61.3809 12.151 61.0002 12.0066 60.6851 11.7177C60.3831 11.4289 60.2321 11.0481 60.2321 10.5755C60.2321 10.1028 60.3831 9.7221 60.6851 9.43326C61.0002 9.14442 61.3809 9 61.8273 9C62.2868 9 62.6676 9.14442 62.9695 9.43326C63.2715 9.7221 63.4225 10.1028 63.4225 10.5755C63.4225 11.0481 63.2715 11.4289 62.9695 11.7177C62.6676 12.0066 62.2868 12.151 61.8273 12.151Z" fill="#1A1A1C"/>
<path d="M64.6361 27V13.2932H67.0781V14.4748H67.4326C67.6558 14.0941 68.0037 13.7593 68.4764 13.4705C68.949 13.1685 69.6252 13.0175 70.5048 13.0175C71.2926 13.0175 72.0212 13.2144 72.6908 13.6083C73.3604 13.9891 73.8987 14.5536 74.3057 15.302C74.7127 16.0503 74.9162 16.9562 74.9162 18.0197V18.3348C74.9162 19.3982 74.7127 20.3042 74.3057 21.0525C73.8987 21.8009 73.3604 22.372 72.6908 22.7659C72.0212 23.1466 71.2926 23.337 70.5048 23.337C69.914 23.337 69.4151 23.2648 69.0081 23.1203C68.6142 22.9891 68.2926 22.8184 68.0431 22.6083C67.8068 22.3851 67.6164 22.1619 67.472 21.9387H67.1175V27H64.6361ZM69.7565 21.1707C70.5311 21.1707 71.1679 20.9278 71.6668 20.442C72.1788 19.9431 72.4348 19.221 72.4348 18.2757V18.0788C72.4348 17.1335 72.1788 16.4179 71.6668 15.9322C71.1547 15.4333 70.518 15.1838 69.7565 15.1838C68.995 15.1838 68.3582 15.4333 67.8462 15.9322C67.3342 16.4179 67.0781 17.1335 67.0781 18.0788V18.2757C67.0781 19.221 67.3342 19.9431 67.8462 20.442C68.3582 20.9278 68.995 21.1707 69.7565 21.1707Z" fill="#1A1A1C"/>
<path d="M78.5338 23.0613V11.6389H74.5163V9.27571H85.1509V11.6389H81.1334V23.0613H78.5338Z" fill="#1A1A1C"/>
<path d="M85.0629 23.0613V13.2932H87.5049V14.3961H87.8594C88.0038 14.0022 88.2401 13.7133 88.5684 13.5295C88.9097 13.3457 89.3036 13.2538 89.75 13.2538H90.9316V15.4595H89.7106C89.0804 15.4595 88.5618 15.6302 88.1548 15.9716C87.7478 16.2998 87.5443 16.8118 87.5443 17.5077V23.0613H85.0629Z" fill="#1A1A1C"/>
<path d="M95.0824 23.337C94.3865 23.337 93.7629 23.2188 93.2115 22.9825C92.66 22.733 92.2202 22.3786 91.892 21.919C91.5769 21.4464 91.4193 20.8753 91.4193 20.2057C91.4193 19.5361 91.5769 18.9781 91.892 18.5317C92.2202 18.0722 92.6666 17.7309 93.2312 17.5077C93.8088 17.2713 94.4653 17.1532 95.2005 17.1532H97.8789V16.6018C97.8789 16.1422 97.7344 15.7681 97.4456 15.4792C97.1568 15.1772 96.6972 15.0263 96.067 15.0263C95.45 15.0263 94.9905 15.1707 94.6885 15.4595C94.3865 15.7352 94.1896 16.0963 94.0977 16.5427L91.8132 15.7746C91.9708 15.2757 92.2202 14.8228 92.5616 14.4158C92.9161 13.9956 93.3821 13.6608 93.9598 13.4114C94.5506 13.1488 95.2662 13.0175 96.1064 13.0175C97.3931 13.0175 98.4106 13.3392 99.1589 13.9825C99.9073 14.6258 100.281 15.558 100.281 16.779V20.4223C100.281 20.8162 100.465 21.0131 100.833 21.0131H101.621V23.0613H99.9664C99.4806 23.0613 99.0802 22.9431 98.7651 22.7068C98.45 22.4705 98.2924 22.1554 98.2924 21.7615V21.7418H97.9182C97.8657 21.8993 97.7476 22.1094 97.5638 22.372C97.3799 22.6214 97.0911 22.8446 96.6972 23.0416C96.3034 23.2385 95.7651 23.337 95.0824 23.337ZM95.5156 21.3282C96.2115 21.3282 96.776 21.1379 97.2093 20.7571C97.6557 20.3632 97.8789 19.8446 97.8789 19.2013V19.0044H95.3778C94.9182 19.0044 94.5572 19.1028 94.2946 19.2998C94.032 19.4967 93.9007 19.7724 93.9007 20.1269C93.9007 20.4814 94.0386 20.7702 94.3143 20.9934C94.59 21.2166 94.9904 21.3282 95.5156 21.3282Z" fill="#1A1A1C"/>
<path d="M102.49 23.0613V20.1072L107.846 15.6565V15.3414H102.687V13.2932H110.564V16.2473L105.207 20.698V21.0131H110.722V23.0613H102.49Z" fill="#1A1A1C"/>
<path d="M116.724 23.337C115.752 23.337 114.892 23.1335 114.144 22.7265C113.409 22.3063 112.831 21.7221 112.411 20.9737C112.004 20.2123 111.801 19.3195 111.801 18.2954V18.0591C111.801 17.035 112.004 16.1488 112.411 15.4004C112.818 14.6389 113.389 14.0547 114.124 13.6477C114.86 13.2276 115.713 13.0175 116.685 13.0175C117.643 13.0175 118.477 13.2341 119.186 13.6674C119.895 14.0875 120.446 14.6783 120.84 15.4398C121.234 16.1882 121.431 17.0613 121.431 18.0591V18.9059H114.321C114.348 19.5755 114.597 20.1204 115.07 20.5405C115.542 20.9606 116.12 21.1707 116.803 21.1707C117.499 21.1707 118.011 21.0197 118.339 20.7177C118.667 20.4158 118.917 20.081 119.087 19.7133L121.116 20.7768C120.932 21.1182 120.663 21.4923 120.308 21.8993C119.967 22.2932 119.507 22.6346 118.93 22.9234C118.352 23.1991 117.617 23.337 116.724 23.337ZM114.341 17.0547H118.91C118.857 16.4902 118.628 16.0372 118.221 15.6958C117.827 15.3545 117.308 15.1838 116.665 15.1838C115.995 15.1838 115.464 15.3545 115.07 15.6958C114.676 16.0372 114.433 16.4902 114.341 17.0547Z" fill="#1A1A1C"/>
</svg>
