<svg width="24" height="24" viewBox="0 0 24 24" fill="none" xmlns="http://www.w3.org/2000/svg">
<path d="M9.2001 18.5334V12.9334C9.2001 11.9025 8.36436 11.0668 7.33343 11.0668H5.46676C4.43583 11.0668 3.6001 11.9025 3.6001 12.9334V18.5334C3.6001 19.5644 4.43583 20.4001 5.46676 20.4001H7.33343C8.36436 20.4001 9.2001 19.5644 9.2001 18.5334ZM9.2001 18.5334V9.2001C9.2001 8.16917 10.0358 7.33343 11.0668 7.33343H12.9334C13.9644 7.33343 14.8001 8.16917 14.8001 9.2001V18.5334M9.2001 18.5334C9.2001 19.5644 10.0358 20.4001 11.0668 20.4001H12.9334C13.9644 20.4001 14.8001 19.5644 14.8001 18.5334M14.8001 18.5334V5.46676C14.8001 4.43583 15.6358 3.6001 16.6668 3.6001H18.5334C19.5644 3.6001 20.4001 4.43583 20.4001 5.46676V18.5334C20.4001 19.5644 19.5644 20.4001 18.5334 20.4001H16.6668C15.6358 20.4001 14.8001 19.5644 14.8001 18.5334Z" stroke="#0044FF" stroke-width="1.67" stroke-linecap="round" stroke-linejoin="round"/>
</svg>
