<svg width="20" height="16" viewBox="0 0 20 16" fill="none" xmlns="http://www.w3.org/2000/svg">
<rect y="0.858337" width="20" height="14.2857" rx="2" fill="white"/>
<mask id="mask0_338_395" style="mask-type:luminance" maskUnits="userSpaceOnUse" x="0" y="0" width="20" height="16">
<rect y="0.858337" width="20" height="14.2857" rx="2" fill="white"/>
</mask>
<g mask="url(#mask0_338_395)">
<rect y="0.858337" width="20" height="14.2857" fill="#043CAE"/>
<path fill-rule="evenodd" clip-rule="evenodd" d="M9.32635 3.9128L9.99979 3.71556L10.6732 3.9128L10.476 3.23937L10.6732 2.56593L9.99979 2.76318L9.32635 2.56593L9.5236 3.23937L9.32635 3.9128ZM9.32635 13.4367L9.99979 13.2395L10.6732 13.4367L10.476 12.7633L10.6732 12.0899L9.99979 12.2871L9.32635 12.0899L9.5236 12.7633L9.32635 13.4367ZM14.7617 8.47752L14.0883 8.67477L14.2855 8.00133L14.0883 7.3279L14.7617 7.52514L15.4351 7.3279L15.2379 8.00133L15.4351 8.67477L14.7617 8.47752ZM4.56445 8.67477L5.23789 8.47752L5.91132 8.67477L5.71408 8.00133L5.91132 7.3279L5.23789 7.52514L4.56445 7.3279L4.7617 8.00133L4.56445 8.67477ZM14.1237 6.09663L13.4503 6.29387L13.6475 5.62044L13.4503 4.947L14.1237 5.14425L14.7972 4.947L14.5999 5.62044L14.7972 6.29387L14.1237 6.09663ZM5.20242 11.0557L5.87586 10.8584L6.54929 11.0557L6.35205 10.3822L6.54929 9.70879L5.87586 9.90603L5.20242 9.70879L5.39967 10.3822L5.20242 11.0557ZM12.3807 4.35364L11.7073 4.55088L11.9046 3.87745L11.7073 3.20401L12.3807 3.40126L13.0542 3.20401L12.8569 3.87745L13.0542 4.55088L12.3807 4.35364ZM6.9454 12.7987L7.61884 12.6014L8.29227 12.7987L8.09503 12.1252L8.29227 11.4518L7.61884 11.649L6.9454 11.4518L7.14265 12.1252L6.9454 12.7987ZM14.1237 10.8584L13.4503 11.0557L13.6475 10.3822L13.4503 9.70879L14.1237 9.90603L14.7972 9.70879L14.5999 10.3822L14.7972 11.0557L14.1237 10.8584ZM5.20242 6.29387L5.87586 6.09663L6.54929 6.29387L6.35205 5.62044L6.54929 4.947L5.87586 5.14425L5.20242 4.947L5.39967 5.62044L5.20242 6.29387ZM12.3807 12.6014L11.7073 12.7987L11.9046 12.1252L11.7073 11.4518L12.3807 11.649L13.0542 11.4518L12.8569 12.1252L13.0542 12.7987L12.3807 12.6014ZM6.9454 4.55088L7.61884 4.35364L8.29227 4.55088L8.09503 3.87745L8.29227 3.20401L7.61884 3.40126L6.9454 3.20401L7.14265 3.87745L6.9454 4.55088Z" fill="#FFD429"/>
</g>
</svg>
