<svg width="36" height="36" viewBox="0 0 36 36" fill="none" xmlns="http://www.w3.org/2000/svg">
<path d="M5.40039 18L8.20039 15.2M8.20039 15.2L18.0004 5.40002L27.8004 15.2M8.20039 15.2V29.2C8.20039 29.9732 8.82719 30.6 9.60039 30.6H13.8004M27.8004 15.2L30.6004 18M27.8004 15.2V29.2C27.8004 29.9732 27.1736 30.6 26.4004 30.6H22.2004M13.8004 30.6C14.5736 30.6 15.2004 29.9732 15.2004 29.2V23.6C15.2004 22.8268 15.8272 22.2 16.6004 22.2H19.4004C20.1736 22.2 20.8004 22.8268 20.8004 23.6V29.2C20.8004 29.9732 21.4272 30.6 22.2004 30.6M13.8004 30.6H22.2004" stroke="#0044FF" stroke-width="1.67" stroke-linecap="round" stroke-linejoin="round"/>
</svg>
