<svg width="36" height="36" viewBox="0 0 36 36" fill="none" xmlns="http://www.w3.org/2000/svg">
<path d="M14.7293 25H21.2714M18.0003 5.40002V6.80002M26.9099 9.09048L25.9199 10.0804M30.6004 18H29.2004M6.80039 18H5.40039M10.0807 10.0804L9.09077 9.09048M13.0506 22.9498C10.3169 20.2161 10.3169 15.784 13.0506 13.0503C15.7842 10.3166 20.2164 10.3166 22.9501 13.0503C25.6837 15.784 25.6837 20.2161 22.9501 22.9498L22.1841 23.7157C21.2981 24.6018 20.8003 25.8035 20.8003 27.0566V27.8C20.8003 29.3464 19.5467 30.6 18.0003 30.6C16.4539 30.6 15.2003 29.3464 15.2003 27.8V27.0566C15.2003 25.8035 14.7025 24.6018 13.8165 23.7157L13.0506 22.9498Z" stroke="#0044FF" stroke-width="1.67" stroke-linecap="round" stroke-linejoin="round"/>
</svg>
