<?xml version="1.0" encoding="utf-8"?>
<!-- Generator: Adobe Illustrator 25.4.1, SVG Export Plug-In . SVG Version: 6.00 Build 0)  -->
<svg version="1.1" id="Layer_1" xmlns="http://www.w3.org/2000/svg" xmlns:xlink="http://www.w3.org/1999/xlink" x="0px" y="0px"
	 viewBox="0 0 381.5 146.3" style="enable-background:new 0 0 381.5 146.3;" xml:space="preserve">
<style type="text/css">
	.st0{fill:#FFFFFF;}
	.st1{fill:#1D1D1B;}
	.st2{fill:#A1CDEA;}
</style>
<g>
	<path class="st0" d="M73.2,146.3c40.4,0,73.2-32.8,73.2-73.2S113.6,0,73.2,0S0,32.8,0,73.2S32.8,146.3,73.2,146.3"/>
	<path class="st1" d="M89.2,87.4C89.2,87.4,89.2,87.4,89.2,87.4c0,0.1,0,0.2,0,0.3c0,0,0.1-0.1,0.1-0.1
		C89.3,87.6,89.3,87.5,89.2,87.4 M115.3,87.3c0.1,0.2,0.2,0.3,0.3,0.4C115.7,87.4,115.6,87.3,115.3,87.3 M20.7,86.3
		c-0.2-0.3-0.4-0.1-0.1,0.1C20.6,86.4,20.7,86.4,20.7,86.3 M128.2,84.8c0,0-0.1,0-0.1,0.1c0,0.1,0.1,0.2,0.1,0.3c0,0,0.1,0,0.1,0
		C128.3,85,128.3,84.9,128.2,84.8 M120.9,81.7c0,0-0.1,0.1-0.1,0.1C121,82,121.2,82,120.9,81.7 M127.4,88.9
		c-0.1-0.1-0.1-0.1-0.2-0.1C127,88.9,127.2,89.1,127.4,88.9 M66.5,27.2c-0.1,0-0.1-0.1-0.2-0.1c-0.1,0.1-0.1,0.2,0.1,0.3
		C66.4,27.4,66.4,27.3,66.5,27.2 M107.3,125.2c0,0-0.1,0-0.1,0.1c0,0.1,0.1,0.2,0.1,0.3c0.1,0,0.1,0,0.2-0.1
		C107.4,125.5,107.3,125.4,107.3,125.2 M98.7,27.2c-0.2-0.3-0.5,0-0.2,0.2C98.5,27.4,98.6,27.3,98.7,27.2 M102,27.6
		c-0.3-0.1-0.5,0-0.3,0.2C101.8,27.8,101.8,27.7,102,27.6 M97.4,28c0-0.1,0.1-0.1,0.1-0.2C97.1,27.5,97,28.2,97.4,28 M121,80.3
		c-0.3-0.2-0.5,0-0.3,0.2C120.8,80.5,120.8,80.4,121,80.3 M98.6,31.4c0,0-0.1,0-0.1-0.1c-0.1,0.1,0,0.3,0,0.4
		C98.7,31.6,98.7,31.5,98.6,31.4 M107.9,120.9C107.9,120.9,108,120.9,107.9,120.9c0.1-0.1,0-0.2,0-0.3c-0.1,0-0.1,0-0.2,0.1
		C107.9,120.7,107.9,120.8,107.9,120.9 M96.9,32.2c0,0-0.1,0.1-0.2,0.1C96.9,32.8,97.2,32.5,96.9,32.2 M96.5,33.4
		c0,0,0.1-0.1,0.1-0.1c-0.1-0.1-0.1-0.2-0.2-0.2c0,0-0.1,0-0.1,0.1C96.3,33.2,96.4,33.3,96.5,33.4 M13.4,80.3c0.1,0,0.1,0,0.2,0
		C13.5,79.9,13.2,79.8,13.4,80.3 M10.2,79c0.2,0,0.1-0.2,0.1-0.3c-0.1,0-0.1,0-0.2,0C10.1,78.8,10.1,78.9,10.2,79 M83.2,78.7
		c0,0,0.1-0.1,0.1-0.1c-0.1-0.1-0.2-0.2-0.3-0.3c0,0-0.1,0.1-0.1,0.1C83.1,78.5,83.2,78.6,83.2,78.7 M86.2,37.2
		c0.2-0.3,0.2-0.5-0.2-0.5C86.1,36.9,86.2,37,86.2,37.2 M100,37.2C100,37.2,100.1,37.2,100,37.2c0.1-0.2,0-0.2,0-0.3
		C99.8,37,100,37,100,37.2 M95.1,38.2c-0.1,0.2-0.2,0.2,0,0.3C95.3,38.5,95.2,38.4,95.1,38.2 M108.3,78.4c0.2-0.2,0.1-0.2,0-0.4
		C108.2,78.2,108.2,78.2,108.3,78.4 M39.5,38.5c-0.1,0.1-0.1,0.1-0.2,0.2C39.5,38.9,39.8,38.7,39.5,38.5 M20.4,90.4
		C20.4,90.4,20.4,90.4,20.4,90.4c0-0.1,0-0.2,0-0.3c0,0-0.1,0.1-0.1,0.1C20.3,90.3,20.3,90.4,20.4,90.4 M119.1,77.9
		c-0.1-0.1-0.2-0.2-0.3-0.3C118.8,77.9,118.8,78,119.1,77.9 M28.3,77.2c0,0-0.1,0.1-0.1,0.1c0.1,0.1,0.1,0.2,0.2,0.3
		c0,0,0.1,0,0.1-0.1C28.4,77.4,28.4,77.3,28.3,77.2 M98.2,40.3c0,0-0.1,0.1-0.1,0.1C98.3,40.7,98.5,40.6,98.2,40.3 M109.4,41
		c0,0,0.1-0.1,0.1-0.1C109.2,40.7,109,41.2,109.4,41 M21.6,77.4c0,0,0.1-0.1,0.1-0.1c-0.1-0.1-0.1-0.2-0.2-0.2c0,0-0.1,0-0.1,0.1
		C21.5,77.2,21.5,77.3,21.6,77.4 M93,90.7c0-0.3-0.1-0.6-0.3-0.4C92.8,90.4,92.9,90.5,93,90.7 M117.9,47.6c0,0,0.1-0.1,0.1-0.1
		c-0.1-0.1-0.3-0.2-0.4-0.2c0,0,0,0.1-0.1,0.1C117.7,47.5,117.8,47.6,117.9,47.6 M18.7,48.1c0,0,0.1,0,0.1-0.1
		c0-0.1-0.1-0.2-0.1-0.2c0,0-0.1,0.1-0.1,0.1C18.6,48,18.7,48,18.7,48.1 M130,75c-0.1,0.2-0.1,0.2,0,0.4
		C130.3,75.3,130.1,75.3,130,75 M42.1,48.8c0,0,0.1-0.1,0.1-0.1c-0.1-0.1-0.1-0.2-0.2-0.3c0,0-0.1,0-0.1,0.1
		C42,48.6,42,48.7,42.1,48.8 M117.5,48.9c0.1-0.3,0.1-0.4-0.3-0.4C117.4,48.7,117.5,48.8,117.5,48.9 M116.7,112.2
		c-0.1,0-0.3-0.2-0.3,0C116.5,112.4,116.6,112.4,116.7,112.2 M107.6,111.7c-0.2-0.1-0.3-0.2-0.4,0
		C107.4,111.8,107.5,111.9,107.6,111.7 M123.7,74.6c-0.2,0.2-0.1,0.2,0.1,0.4C123.9,74.9,123.8,74.8,123.7,74.6 M114,74.5
		c-0.2,0.1-0.2,0.2-0.1,0.4C114.2,74.8,114.2,74.7,114,74.5 M12.1,91C12.1,91,12,91.1,12.1,91c0,0.2,0,0.3,0.1,0.5
		C12.3,91.3,12.2,91.2,12.1,91 M23.2,74.1c0.1-0.2,0-0.4-0.3-0.3C23,73.9,23.1,74,23.2,74.1 M42.7,91.1c0,0-0.1,0.1-0.1,0.1
		c0.1,0.1,0.2,0.1,0.2,0.2c0,0,0.1-0.1,0.1-0.1C42.8,91.3,42.7,91.2,42.7,91.1 M25.6,49.5c0,0-0.1,0-0.1,0
		C25.6,49.9,25.8,49.9,25.6,49.5 M107.5,91.2c-0.1-0.1-0.2-0.2-0.3-0.1c0.1,0.1,0.1,0.1,0.2,0.2C107.4,91.3,107.4,91.2,107.5,91.2
		 M119.2,50.1c0,0,0.1-0.1,0.1-0.2c-0.1,0-0.2-0.1-0.3-0.1c0,0,0,0.1-0.1,0.1C119,50,119.1,50.1,119.2,50.1 M124.4,50
		c-0.2,0.2-0.1,0.2,0.1,0.4C124.7,50.3,124.5,50.2,124.4,50 M51.8,72.6c-0.1-0.2-0.2-0.3-0.3-0.1C51.6,72.6,51.6,72.7,51.8,72.6
		 M104.9,51.8c0,0-0.1,0.1-0.1,0.1C105,52.1,105.2,52,104.9,51.8 M102.7,72.6c0.1-0.1,0.1-0.2,0-0.3
		C102.5,72.3,102.5,72.5,102.7,72.6 M128.2,106.1c0,0,0,0.1,0,0.1c0.1,0,0.2,0.1,0.3,0.1c0,0,0-0.1,0-0.1
		C128.5,106.2,128.4,106.2,128.2,106.1 M36,72.3c0,0,0.1,0,0.2-0.1c0-0.1-0.1-0.2-0.1-0.3c0,0-0.1,0-0.1,0C36,72.1,36,72.2,36,72.3
		 M28,92.8c0,0,0.1-0.1,0.2-0.1c-0.1-0.1-0.1-0.2-0.2-0.3c0,0-0.1,0-0.1,0.1C27.9,92.5,27.9,92.7,28,92.8 M122.1,105.5
		c0,0,0,0.1-0.1,0.1c0.1,0.1,0.2,0.1,0.3,0.2c0-0.1,0-0.1,0.1-0.1C122.4,105.5,122.2,105.5,122.1,105.5 M110.5,52.8
		c-0.1,0.2-0.1,0.3,0,0.4C110.7,53.1,110.6,53,110.5,52.8 M34.8,53.3c0,0,0.1-0.1,0.1-0.1c0-0.1-0.1-0.2-0.1-0.2
		C34.5,53.1,34.7,53.2,34.8,53.3 M11.5,55.7c0.2-0.1,0.2-0.4-0.1-0.3C11.4,55.6,11.5,55.6,11.5,55.7 M126.3,55.6
		c-0.1,0.2-0.1,0.3,0,0.4C126.5,55.9,126.4,55.8,126.3,55.6 M15.2,69.7c0,0,0.1-0.1,0.1-0.1c-0.1-0.1-0.1-0.2-0.2-0.2
		c0,0-0.1,0-0.1,0.1C15.1,69.5,15.2,69.6,15.2,69.7 M45,69c0,0,0-0.1,0-0.2C44.5,68.8,44.5,69.1,45,69 M99.6,68.8
		c0.1-0.3,0-0.4-0.3-0.4C99.4,68.6,99.5,68.7,99.6,68.8 M39.5,56.9c0.1-0.1,0.1-0.1,0.2-0.2c0,0-0.1-0.1-0.1-0.2
		C39.4,56.7,39.4,56.7,39.5,56.9 M89.1,93.5C89.1,93.5,89,93.5,89.1,93.5c0,0.2,0.1,0.2,0.1,0.3c0,0,0.1-0.1,0.1-0.1
		C89.2,93.6,89.1,93.6,89.1,93.5 M15.9,103.3c0,0,0.1-0.1,0.2-0.1c-0.1-0.1-0.1-0.2-0.2-0.3c0,0-0.1,0.1-0.1,0.1
		C15.8,103.1,15.8,103.2,15.9,103.3 M128.4,102.6c-0.1,0.3,0,0.4,0.3,0.4C128.6,102.8,128.5,102.7,128.4,102.6 M41.6,94.9
		c-0.1-0.4,0-0.3-0.4-0.6C41.3,94.7,41.2,94.6,41.6,94.9 M98.4,102.7c0.2-0.1,0-0.3-0.2-0.3C98.1,102.5,98.3,102.6,98.4,102.7
		 M139.1,66.8c-0.1,0.1-0.1,0.1-0.2,0.2C139.1,67.3,139.2,67.1,139.1,66.8 M104.8,58c-0.1,0.3,0,0.4,0.3,0.4
		C105,58.2,104.9,58.1,104.8,58 M29.4,59.2c0,0,0.1,0,0.1-0.1c-0.1-0.1-0.1-0.2-0.2-0.3c0,0-0.1,0-0.1,0.1
		C29.3,59,29.4,59.1,29.4,59.2 M13.9,101.4c0,0-0.1,0.1-0.1,0.1c0.1,0.1,0.1,0.2,0.2,0.3c0,0,0.1-0.1,0.1-0.1
		C14.1,101.6,14,101.5,13.9,101.4 M28.8,66.9c-0.2-0.1-0.3-0.2-0.4,0C28.5,67,28.6,67.1,28.8,66.9 M112.6,59
		c-0.2-0.2-0.4-0.2-0.2,0.1C112.4,59.1,112.5,59.1,112.6,59 M14.8,101.6c0.1,0,0.1-0.1,0.2-0.1c-0.1-0.1-0.1-0.3-0.2-0.4
		c-0.1,0-0.1,0-0.2,0.1C14.7,101.3,14.8,101.4,14.8,101.6 M116.9,66.9c0,0,0.1,0,0.1-0.1c-0.1-0.1-0.1-0.2-0.1-0.3
		c0,0-0.1,0-0.1,0.1C116.8,66.7,116.8,66.8,116.9,66.9 M125.9,65.8c0.1-0.2,0.2-0.2,0-0.3C125.8,65.5,125.9,65.6,125.9,65.8
		 M13.5,64.4c-0.2,0-0.1,0.5,0.1,0.3C13.6,64.6,13.6,64.5,13.5,64.4 M100.4,64c0,0-0.1,0.1-0.1,0.1c0.1,0.1,0.1,0.2,0.2,0.3
		c0,0,0.1-0.1,0.1-0.1C100.5,64.2,100.5,64.1,100.4,64 M112.5,64.1c-0.1-0.1-0.2-0.3-0.3-0.1C112.2,64.1,112.2,64.2,112.5,64.1
		 M106.6,63.1c0,0-0.1,0.1-0.1,0.2c0.1,0.1,0.3,0.1,0.4,0.2c0,0,0-0.1,0.1-0.1C106.8,63.3,106.7,63.2,106.6,63.1 M33,63.5
		c-0.1,0-0.1,0-0.2,0C32.9,64,33.1,63.8,33,63.5 M80.1,63.6c-0.2-0.1-0.3-0.2-0.4,0C79.9,63.8,79.9,63.8,80.1,63.6 M113.6,97.3
		c0,0,0.1-0.1,0.1-0.1c-0.1-0.1-0.2-0.1-0.3-0.2c0,0-0.1,0.1-0.1,0.1C113.4,97.2,113.5,97.2,113.6,97.3 M118.6,98
		c0,0,0.1-0.1,0.1-0.1c-0.1-0.1-0.2-0.2-0.3-0.3c0,0-0.1,0.1-0.1,0.1C118.4,97.8,118.5,97.9,118.6,98 M130.6,97.8
		c-0.2,0.1-0.1,0.2,0,0.3C130.7,98,130.6,97.9,130.6,97.8 M125.5,97.8c-0.2,0.1,0,0.4,0.2,0.4C125.8,98.1,125.5,97.9,125.5,97.8
		 M108.4,64.3c0,0,0.1-0.1,0.1-0.1c-0.1-0.1-0.2-0.2-0.3-0.3c0,0-0.1,0.1-0.1,0.1C108.2,64.1,108.3,64.2,108.4,64.3 M119.6,64
		c-0.2-0.1-0.3-0.2-0.4-0.3C119.2,64.1,119.3,64.2,119.6,64 M36.8,99.3c0.3-0.2,0.2-0.5-0.1-0.4C36.7,99,36.7,99.2,36.8,99.3
		 M96.6,99.8c0,0-0.1,0.1-0.1,0.1C96.7,100.3,96.9,100.1,96.6,99.8 M132.8,96.8c-0.1,0.3-0.1,0.4,0.2,0.3
		C132.9,96.9,132.8,96.8,132.8,96.8 M104.8,96.5c0,0-0.1,0.1-0.1,0.1C104.9,96.9,105.1,96.8,104.8,96.5 M47.4,62.3
		c0,0-0.1,0.1-0.1,0.1C47.5,62.7,47.8,62.5,47.4,62.3 M27.3,96.6c0.1,0,0.1,0,0.2-0.1c0-0.1-0.1-0.3-0.1-0.4c-0.1,0-0.1,0-0.2,0.1
		C27.2,96.3,27.3,96.5,27.3,96.6 M101.2,100.6c0.1,0,0.1-0.1,0.2-0.1C101.2,100.1,101,100.2,101.2,100.6 M13.7,100.8
		c0,0,0.1-0.1,0.1-0.1C13.6,100.3,13.4,100.5,13.7,100.8 M27.3,65.9c0,0,0.1-0.1,0.1-0.1c-0.1-0.1-0.2-0.1-0.2-0.2
		c0,0-0.1,0.1-0.1,0.1C27.2,65.7,27.3,65.8,27.3,65.9 M120.4,61.1c-0.1-0.2-0.4-0.3-0.4-0.1C120,61.3,120.2,61.2,120.4,61.1
		 M35,58.6c-0.1,0.3,0,0.4,0.3,0.3C35.1,58.8,35.1,58.7,35,58.6 M87.9,66.8c0.2,0.2,0.3,0.3,0.4,0.4C88.4,66.9,88.3,66.8,87.9,66.8
		 M16.4,58.2c0,0,0.1,0,0.1-0.1c-0.1-0.1-0.1-0.4-0.3-0.2C16.2,58.1,16.3,58.2,16.4,58.2 M40.3,57.5C40.3,57.5,40.4,57.5,40.3,57.5
		c0-0.2,0-0.2-0.1-0.4c0,0-0.1,0.1-0.1,0.1C40.2,57.4,40.3,57.5,40.3,57.5 M77,67.9c0.2-0.3,0.1-0.4-0.2-0.4
		C76.8,67.7,76.9,67.8,77,67.9 M32.6,68.2c0,0,0.1-0.1,0.2-0.1c-0.1-0.2-0.1-0.4-0.4-0.2C32.5,68,32.5,68.1,32.6,68.2 M133.4,57.2
		c0.1,0,0.1-0.1,0.1-0.1c-0.1-0.1-0.2-0.2-0.3-0.3c0,0-0.1,0.1-0.1,0.1C133.2,57,133.3,57.1,133.4,57.2 M24.5,93.2
		c-0.1,0.3,0,0.4,0.4,0.3C24.8,93.4,24.6,93.3,24.5,93.2 M42,56.5c0.1,0.4,0.1,0.3,0.4,0.5C42.3,56.6,42.4,56.6,42,56.5 M21.6,93.5
		c0.1,0,0.1-0.1,0.2-0.1c-0.1-0.1-0.2-0.3-0.3-0.2C21.5,93.3,21.5,93.4,21.6,93.5 M34.9,56.7c0.2-0.2,0.1-0.2-0.1-0.4
		C34.6,56.5,34.8,56.6,34.9,56.7 M89.4,69.6c0.1-0.1,0.1-0.1,0.2-0.2C89.3,69.1,89,69.3,89.4,69.6 M116,56.3c0.2,0,0.1-0.3-0.1-0.4
		C115.7,56,115.9,56.2,116,56.3 M44.4,53.2c0,0,0.1,0,0.1-0.1C44.5,52.8,44.1,52.8,44.4,53.2 M81.9,69.4c-0.1,0-0.1,0-0.2,0.1
		c0.1,0.1,0.1,0.2,0.1,0.3c0,0,0.1,0,0.1-0.1C82,69.6,81.9,69.5,81.9,69.4 M103.5,69.9c0.1,0,0.1,0,0.2,0c0-0.1-0.1-0.3-0.1-0.4
		c-0.1,0-0.1,0-0.1,0C103.5,69.7,103.5,69.8,103.5,69.9 M92.3,69.8c-0.1,0.1-0.1,0.1-0.1,0.2C92.5,70.3,92.6,70.2,92.3,69.8
		 M38.2,70.5c0-0.3-0.1-0.4-0.3-0.5C38,70.2,38.1,70.3,38.2,70.5 M46.2,70.9c0,0,0.1-0.1,0.1-0.1c-0.1-0.1-0.2-0.2-0.2-0.2
		c0,0-0.1,0.1-0.1,0.1C46.1,70.7,46.2,70.8,46.2,70.9 M108.3,52c0,0-0.1,0.1-0.1,0.1C108.4,52.5,108.6,52.2,108.3,52 M80,72
		c0.2,0.1,0.4,0.1,0.6,0C80.2,72,80.1,72,80,72 M91.6,71.9c0,0-0.1,0.1-0.1,0.1C91.7,72.3,91.8,72.2,91.6,71.9 M44.3,72
		c-0.3,0.2-0.2,0.4,0.1,0.5C44.4,72.4,44.3,72.2,44.3,72 M33.2,72.6c0.3,0,0.1-0.3-0.1-0.4C32.9,72.3,33.1,72.4,33.2,72.6
		 M131.1,51.9c0,0-0.1,0.1-0.1,0.1C131.4,52.3,131.5,52,131.1,51.9 M136.7,91.6c0,0-0.1,0.1-0.1,0.2c0.1,0.1,0.2,0.1,0.3,0.2
		c0,0,0.1-0.1,0.1-0.1L136.7,91.6 M127.6,107.6c-0.2,0.2-0.1,0.2,0.1,0.4C127.9,107.9,127.7,107.8,127.6,107.6 M121.2,91.7
		c0,0,0.1-0.1,0.1-0.1c-0.1-0.1-0.1-0.2-0.2-0.3c0,0-0.1,0.1-0.1,0.1C121.1,91.5,121.1,91.6,121.2,91.7 M11.8,50
		c0-0.2-0.1-0.3-0.3-0.3C11.6,49.8,11.6,49.9,11.8,50 M91.8,48.8c0,0.2,0.1,0.3,0.3,0.3C92,48.9,91.9,48.8,91.8,48.8 M123.5,111.2
		c0,0,0.1-0.1,0.1-0.2c-0.1-0.1-0.2-0.2-0.3-0.2c0,0-0.1,0.1-0.1,0.1C123.3,111,123.4,111.1,123.5,111.2 M7.5,74.1
		c0,0-0.1,0.1-0.1,0.2c0.1,0.1,0.2,0.2,0.3,0.2c0,0,0.1-0.1,0.1-0.1C7.7,74.3,7.6,74.2,7.5,74.1 M20.6,74.2c0,0.3,0.2,0.7,0.3,0.5
		C20.9,74.6,20.8,74.5,20.6,74.2 M84.8,49c0-0.2,0-0.4-0.3-0.2C84.6,48.9,84.7,49,84.8,49 M112.5,111.1c0.2,0.1,0.4,0.2,0.5,0.2
		C113.2,111.1,112.9,111,112.5,111.1 M53,48c0,0-0.1,0-0.2,0.1C53.1,48.5,53.3,48.3,53,48 M129.6,90.9c-0.1-0.2-0.2-0.3-0.3-0.5
		C129.1,90.8,129.2,90.9,129.6,90.9 M115.3,76c0.1,0,0.1-0.1,0.2-0.1c-0.1-0.1-0.1-0.2-0.2-0.3c-0.1,0-0.1,0-0.1,0.1
		C115.2,75.7,115.2,75.8,115.3,76 M122.6,75.6c-0.1,0-0.1,0-0.2,0.1c0,0.1,0.1,0.2,0.1,0.4c0.1,0,0.1,0,0.2-0.1
		C122.7,75.9,122.7,75.7,122.6,75.6 M41.6,90.4C41.6,90.4,41.6,90.5,41.6,90.4C41.7,90.8,41.9,90.6,41.6,90.4 M102.7,76.2
		c0,0-0.1,0.1-0.1,0.1C102.9,76.6,103.2,76.4,102.7,76.2 M105.5,45.8c-0.2,0.1-0.1,0.2,0,0.4C105.7,46,105.7,46,105.5,45.8
		 M116.8,44.6c-0.1,0-0.1,0-0.2,0c0,0.1,0.1,0.2,0.1,0.4c0.1,0,0.1,0,0.2,0C116.9,44.9,116.8,44.8,116.8,44.6 M20.2,41.9
		c-0.1,0.2-0.2,0.3,0,0.4C20.4,42.3,20.3,42.1,20.2,41.9 M122.2,115.1c-0.2,0.2,0,0.5,0.4,0.4C122.4,115.3,122.3,115.2,122.2,115.1
		 M52.7,39.1c-0.2-0.1-0.3-0.3-0.4-0.1C52.4,39.2,52.4,39.3,52.7,39.1 M50.2,38.9c0,0,0.1,0,0.2,0C50.3,38.4,50,38.5,50.2,38.9
		 M61.1,38.4c0,0-0.1,0.1-0.2,0.2C61.3,38.9,61.4,38.8,61.1,38.4 M40.9,89.8c0,0-0.1,0.1-0.1,0.1c0.1,0.1,0.1,0.2,0.2,0.3
		c0,0,0.1-0.1,0.1-0.1C41.1,90.1,41,89.9,40.9,89.8 M89.9,36.3c0,0-0.1,0.1-0.1,0.1C90,36.7,90.2,36.6,89.9,36.3 M46.2,35.9
		c0,0-0.1,0.1-0.2,0.1c0.1,0.1,0.1,0.2,0.2,0.3c0,0,0.1,0,0.1-0.1C46.3,36.1,46.3,36,46.2,35.9 M123.7,89.4c0,0.2,0.1,0.4,0.3,0.4
		C123.9,89.7,123.8,89.6,123.7,89.4 M23.8,34.8c-0.3-0.2-0.4-0.3-0.5-0.1C23.4,35,23.5,35,23.8,34.8 M62.3,28.5
		c-0.1,0.2-0.1,0.2,0,0.4C62.6,28.8,62.5,28.8,62.3,28.5 M36.4,80.6c0.2-0.2,0.2-0.4-0.2-0.4C36.3,80.4,36.3,80.5,36.4,80.6
		 M105.8,80.3c-0.2,0.2-0.2,0.3,0,0.4C106,80.6,106,80.5,105.8,80.3 M98.9,80.8c-0.2,0.2-0.2,0.2-0.1,0.4C99,81.1,98.9,81,98.9,80.8
		 M9.1,88.8C9.1,88.8,9.1,88.9,9.1,88.8C9.2,89.2,9.4,89.1,9.1,88.8 M50.9,25.3c-0.2-0.1-0.3-0.2-0.4,0
		C50.6,25.5,50.7,25.5,50.9,25.3 M62.3,22.6c-0.1-0.1-0.2-0.1-0.3-0.2C61.8,22.6,62.1,22.9,62.3,22.6 M114.9,82.8
		c-0.2,0.2-0.1,0.4,0.2,0.4C115,83,115,82.9,114.9,82.8 M70.3,19.1c-0.1,0-0.1,0-0.2,0.1C70.2,19.6,70.5,19.5,70.3,19.1 M74.2,15.3
		c-0.1-0.2-0.2-0.3-0.4-0.1C73.9,15.4,74,15.4,74.2,15.3 M116.1,88.7c0.1-0.1,0.1-0.1,0.2-0.2C116,88.2,115.8,88.4,116.1,88.7
		 M87.6,88.8c0.1-0.3,0-0.4-0.3-0.4C87.4,88.6,87.5,88.7,87.6,88.8 M37.1,86.7c0,0-0.1,0.1-0.1,0.1c0.1,0.1,0.2,0.2,0.3,0.2
		c0,0,0.1-0.1,0.1-0.1C37.3,86.9,37.2,86.8,37.1,86.7 M95.7,133.6c-0.2,0.2-0.1,0.2,0,0.4C95.9,134,95.7,133.8,95.7,133.6
		 M78.7,66.5c-0.2,0.3-0.3,0.4,0,0.5C78.9,66.9,78.8,66.8,78.7,66.5 M15.5,87.5c-0.1,0-0.1,0-0.2,0.1C15.4,88,15.7,87.9,15.5,87.5
		 M41.8,87.9c0,0,0.1-0.1,0.1-0.1c-0.1-0.1-0.2-0.2-0.3-0.3c0,0-0.1,0.1-0.1,0.1C41.6,87.7,41.7,87.8,41.8,87.9 M26.3,43.3
		c0-0.3-0.1-0.4-0.3-0.3C26.1,43.1,26.2,43.2,26.3,43.3 M108.3,40.6c-0.2,0.2-0.2,0.3,0,0.5C108.5,40.9,108.4,40.9,108.3,40.6
		 M50.9,40.5c0.2-0.2-0.1-0.5-0.4-0.3C50.7,40.3,50.8,40.4,50.9,40.5 M40.5,44.3c-0.2,0.2-0.1,0.3,0.1,0.4
		C40.8,44.6,40.6,44.5,40.5,44.3 M79.4,5.9c-0.2-0.2-0.2-0.3-0.4-0.2C79,5.9,79,6,79.4,5.9 M44.4,45.9c-0.1,0-0.1,0.1-0.2,0.1
		C44.4,46.4,44.6,46.2,44.4,45.9 M32.3,73.8c0.2-0.3,0-0.5-0.2-0.4C32.1,73.5,32.2,73.6,32.3,73.8 M98.2,47.5
		c-0.2,0.1-0.1,0.2,0,0.4C98.5,47.8,98.3,47.7,98.2,47.5 M113.3,86.9c-0.1,0.4,0.2,0.5,0.4,0.2C113.6,87.1,113.4,87,113.3,86.9
		 M23.4,87c-0.1,0-0.1,0-0.2,0c0,0.2,0.1,0.3,0.1,0.5c0,0,0.1,0,0.1,0C23.4,87.3,23.4,87.1,23.4,87 M37.7,87.9c0,0-0.1,0.1-0.1,0.1
		c0.2,0.2,0.2,0.4,0.4,0.2C37.9,88.2,37.8,88.1,37.7,87.9 M10.3,65.6c-0.1-0.1-0.2-0.2-0.3-0.3C9.9,65.5,9.8,65.7,10.3,65.6
		 M60.6,9.1c-0.2-0.2-0.2-0.2-0.4-0.1C60.3,9.2,60.4,9.3,60.6,9.1 M91.6,72.9c0,0-0.1,0.1-0.1,0.1C91.8,73.4,92.1,73.2,91.6,72.9
		 M33.5,86.1c0,0-0.1,0.1-0.2,0.1c0.1,0.1,0.1,0.2,0.2,0.4c0,0,0.1-0.1,0.2-0.1C33.6,86.4,33.5,86.2,33.5,86.1 M101.4,65.1
		c-0.2,0.4-0.3,0.4,0,0.6C101.6,65.5,101.5,65.3,101.4,65.1 M117.3,47.9c-0.3,0.2-0.2,0.3,0,0.5C117.5,48.2,117.5,48.1,117.3,47.9
		 M96.3,85.7c-0.1,0-0.1,0.1-0.2,0.1c0.1,0.1,0.2,0.2,0.3,0.3c0,0,0.1-0.1,0.1-0.1C96.4,85.9,96.3,85.8,96.3,85.7 M64.3,19.6
		c-0.2-0.3-0.2-0.3-0.4-0.1C64,19.6,64.1,19.7,64.3,19.6 M28.1,63c-0.1-0.3-0.3-0.4-0.5-0.2C27.9,62.9,28,63,28.1,63 M53.1,66
		c-0.2-0.4-0.3-0.4-0.6-0.1C52.7,65.9,52.8,66,53.1,66 M86.3,48.6c0.1,0,0.2,0,0.2,0c0-0.1-0.1-0.3-0.1-0.4c-0.1,0-0.1,0-0.2,0
		C86.3,48.3,86.3,48.5,86.3,48.6 M102.2,88.9c0.2-0.2,0.1-0.5-0.3-0.3C102,88.7,102.1,88.8,102.2,88.9 M88.6,66.2
		c0-0.4-0.1-0.5-0.4-0.4C88.4,66,88.5,66.1,88.6,66.2 M128.2,99.9c-0.3,0.2-0.1,0.6,0.2,0.4C128.3,100.2,128.3,100.1,128.2,99.9
		 M123.2,66.4c0-0.3-0.1-0.4-0.4-0.5C122.8,66.3,122.9,66.2,123.2,66.4 M19.9,91.7c0,0-0.1,0.1-0.1,0.1c0.1,0.1,0.2,0.2,0.4,0.3
		C20.4,91.9,20.1,91.6,19.9,91.7 M84.5,61.4c0,0,0.1-0.1,0.1-0.1c-0.1-0.1-0.2-0.2-0.4-0.4C84.2,61.3,84.3,61.4,84.5,61.4
		 M122.8,84.1c0,0-0.1,0.1-0.1,0.1c0.1,0.2,0.2,0.3,0.4,0.1C123,84.3,122.9,84.2,122.8,84.1 M49.2,23.6c0.1-0.2,0.1-0.4-0.1-0.5
		C49.2,23.2,49.2,23.4,49.2,23.6 M94.9,84c0.2-0.2,0.1-0.5-0.3-0.4C94.7,83.8,94.8,83.9,94.9,84 M72.8,23.5
		c-0.1,0.2-0.1,0.3,0.1,0.4C73.1,23.8,73,23.7,72.8,23.5 M40.4,48.7c0.3-0.1,0.2-0.5-0.1-0.4C40.1,48.5,40.3,48.6,40.4,48.7
		 M73.5,24.9c0.1,0,0.1-0.1,0.2-0.1C73.4,24.4,73.1,24.6,73.5,24.9 M30.4,83.4c0.1-0.3,0-0.5-0.3-0.4C30.1,83.1,30.2,83.2,30.4,83.4
		 M94.6,24.5c-0.2,0.2-0.2,0.3,0,0.5C94.8,24.8,94.8,24.6,94.6,24.5 M106.2,59.7c0,0-0.1,0.1-0.1,0.1c0.1,0.1,0.2,0.2,0.3,0.2
		c0-0.1,0.1-0.1,0.1-0.2C106.4,59.8,106.3,59.7,106.2,59.7 M48.9,38.4c0-0.2-0.1-0.4-0.3-0.5C48.7,38.2,48.8,38.3,48.9,38.4
		 M73.4,25.6c-0.2-0.1-0.4-0.2-0.5,0C73,25.8,73,25.8,73.4,25.6 M49,57.6c-0.1,0.3,0.1,0.5,0.3,0.4C49.3,57.8,49.2,57.7,49,57.6
		 M120.5,66.9c0.1,0.3,0.2,0.5,0.5,0.3C120.9,67.1,120.8,67,120.5,66.9 M108,124.4c-0.1,0.3,0,0.5,0.4,0.4
		C108.2,124.6,108.1,124.5,108,124.4 M133.9,49c0.2-0.2,0.2-0.3,0-0.5C133.6,48.7,133.6,48.8,133.9,49 M35.5,94.1
		c-0.1,0-0.1,0.1-0.2,0.1C35.5,94.6,35.8,94.4,35.5,94.1 M115.2,81.9c-0.1,0.3-0.1,0.4,0.3,0.3C115.4,82.1,115.3,82,115.2,81.9
		 M29.9,55.5c-0.2,0.3,0,0.6,0.2,0.4C30.1,55.7,30,55.6,29.9,55.5 M21.1,68.9c-0.1-0.3-0.2-0.5-0.5-0.4
		C20.7,68.8,20.7,68.8,21.1,68.9 M121.9,82.1c0.3-0.1,0.2-0.5-0.3-0.3C121.8,81.8,121.9,82,121.9,82.1 M31.2,53.5
		c0.1,0,0.1,0,0.2-0.1C31.3,53.1,30.9,53.1,31.2,53.5 M30.4,29c-0.2,0.3-0.1,0.3,0.1,0.5C30.7,29.3,30.5,29.3,30.4,29 M132.2,92.6
		c0,0-0.1,0.1-0.1,0.1C132.4,93.1,132.5,92.8,132.2,92.6 M100.2,52.9c-0.1,0.4,0.1,0.6,0.3,0.4C100.5,53.1,100.4,53,100.2,52.9
		 M35.5,92.2c-0.1-0.1-0.2-0.2-0.3-0.4C35.1,92.1,35.2,92.2,35.5,92.2 M29.2,92c0,0.2,0.1,0.3,0.3,0.3C29.4,92.2,29.3,92.1,29.2,92
		 M124.3,106c0.1-0.3,0.1-0.4-0.3-0.4C124.1,105.8,124.2,105.9,124.3,106 M19.2,36.7c-0.2-0.1-0.2-0.2-0.3-0.2
		c0,0.1-0.1,0.1-0.1,0.2C18.9,36.8,19,36.9,19.2,36.7 M122.9,76.9c0.1-0.4-0.2-0.5-0.3-0.3C122.7,76.7,122.8,76.8,122.9,76.9
		 M24.4,72.4c0.2-0.4,0.1-0.5-0.3-0.6C24.2,72,24.3,72.1,24.4,72.4 M81.5,36.3c-0.1,0-0.1,0-0.2,0c0,0.2-0.1,0.4,0.2,0.4
		C81.4,36.5,81.5,36.4,81.5,36.3 M112.6,80c0.1-0.3,0.1-0.4-0.3-0.3C112.4,79.8,112.5,79.9,112.6,80 M112.2,30.9
		c-0.2,0.2-0.2,0.3,0,0.4C112.4,31.1,112.4,31.1,112.2,30.9 M84.9,31.1c0,0-0.1,0.1-0.1,0.1c0.1,0.1,0.2,0.2,0.3,0.3
		c0,0,0.1-0.1,0.1-0.1C85.1,31.3,85,31.2,84.9,31.1 M96.7,72c0,0,0.1,0,0.1-0.1c0-0.1-0.1-0.2-0.1-0.3c-0.1,0-0.2,0.1-0.2,0.1
		C96.6,71.8,96.7,71.9,96.7,72 M124.7,105.6c0,0.2,0,0.4,0.3,0.4C125,105.8,125,105.6,124.7,105.6 M89.8,31.9c0,0.2,0.1,0.4,0.3,0.4
		C90,32.1,89.9,32,89.8,31.9 M78,32.6c-0.1-0.1-0.2-0.1-0.3-0.2C77.5,32.7,77.8,32.9,78,32.6 M115.9,32.4c0,0.2,0.3,0.5,0.4,0.2
		C116.2,32.4,116.1,32.3,115.9,32.4 M89.1,34.5c0.2,0.2,0.3,0.3,0.4,0.4C89.6,34.7,89.6,34.5,89.1,34.5 M60.1,34.9
		c0-0.2,0-0.3,0.1-0.4C60,34.5,60,34.7,60.1,34.9 M118,77.8c0-0.1,0.1-0.1,0.1-0.2C117.7,77.3,117.5,77.6,118,77.8 M48.5,78
		c-0.1-0.1-0.2-0.2-0.3-0.4C48,78,48.1,78.1,48.5,78 M109.3,71.2c-0.2,0.2-0.1,0.5,0.2,0.4C109.5,71.4,109.5,71.3,109.3,71.2
		 M22.6,90.3c-0.2-0.1-0.4-0.3-0.5-0.1C22.3,90.5,22.3,90.5,22.6,90.3 M20.1,110.1c0-0.3-0.1-0.4-0.4-0.5
		C19.9,109.8,20,109.9,20.1,110.1 M119.2,108.7c0-0.2-0.1-0.4-0.4-0.5C119.1,108.5,119.1,108.6,119.2,108.7 M101.2,77.8
		c-0.1,0.3,0,0.5,0.4,0.3C101.4,78,101.3,77.9,101.2,77.8 M67.8,33.8c-0.2,0.2-0.1,0.5,0.3,0.3C68,34,67.9,33.9,67.8,33.8
		 M122.5,78.2c-0.2-0.1-0.4-0.2-0.4,0.1C122.3,78.5,122.3,78.4,122.5,78.2 M44.8,34.3c-0.2-0.2-0.3-0.2-0.4,0
		C44.5,34.5,44.6,34.6,44.8,34.3 M136.2,89.7c0.1,0.4,0.4,0.3,0.5,0.1C136.5,89.8,136.3,89.7,136.2,89.7 M101,91.9
		c-0.2,0.4,0.1,0.7,0.3,0.4C101.2,92.2,101.1,92.1,101,91.9 M117.5,34.4c-0.3,0.2-0.3,0.5,0,0.5C117.5,34.7,117.5,34.5,117.5,34.4
		 M125.3,70.3c-0.1,0.2-0.1,0.4,0.1,0.4C125.7,70.7,125.6,70.4,125.3,70.3 M124.2,71.7c-0.2-0.2-0.3-0.3-0.4-0.1
		C123.9,71.8,124,71.9,124.2,71.7 M59.7,36.1c0.4-0.3,0-0.6-0.2-0.3C59.5,35.9,59.6,36,59.7,36.1 M84.5,79.5c0.1-0.4,0-0.5-0.3-0.5
		C84.3,79.2,84.4,79.3,84.5,79.5 M59.6,31c0.3-0.1,0.3-0.5-0.1-0.4C59.4,30.7,59.4,30.9,59.6,31 M107.3,89.7c0.2-0.2,0.2-0.3,0-0.5
		C107,89.4,107.1,89.5,107.3,89.7 M99.8,118.9c-0.3,0.2-0.2,0.5,0.1,0.4C99.9,119.2,99.9,119,99.8,118.9 M50.8,31.1
		c0.1-0.3-0.2-0.6-0.3-0.3C50.5,31,50.6,31.1,50.8,31.1 M48.7,70.4c0-0.1-0.1-0.3-0.1-0.4C48.2,70,48.2,70.3,48.7,70.4 M14,105.1
		c-0.2,0.2,0,0.5,0.2,0.4C14.4,105.2,14.3,105.1,14,105.1 M47.1,37.8c-0.1-0.3-0.6-0.2-0.5,0.1C46.8,38,46.9,37.9,47.1,37.8
		 M99.5,53c0,0.3,0.4,0.4,0.4,0C99.8,52.9,99.6,52.9,99.5,53 M22.8,104.6c-0.2-0.2-0.3-0.3-0.4-0.1
		C22.5,104.8,22.6,104.8,22.8,104.6 M102.5,24.5c0.3,0,0.2-0.4-0.2-0.5C102.4,24.1,102.5,24.3,102.5,24.5 M102.3,126.5
		c-0.2,0.3,0,0.6,0.3,0.4C102.5,126.7,102.4,126.6,102.3,126.5 M42.1,85.3C42,85,42,84.8,41.7,84.8C41.7,85.1,41.8,85.2,42.1,85.3
		 M27.4,63.2c-0.2,0.3,0,0.7,0.3,0.4C27.6,63.5,27.5,63.4,27.4,63.2 M112.9,115.5c-0.3-0.1-0.4-0.1-0.6-0.1
		C112.5,115.7,112.6,115.8,112.9,115.5 M94.7,17.4c-0.1,0-0.1,0-0.2,0c0,0.1,0,0.2,0,0.4c0.1,0,0.2,0,0.2,0
		C94.7,17.6,94.7,17.5,94.7,17.4 M100.3,73c-0.2-0.2-0.4-0.2-0.4,0C99.9,73.3,100.1,73.2,100.3,73 M81.9,9.2
		c-0.1,0.2-0.1,0.4,0.1,0.6C82,9.6,82,9.4,81.9,9.2 M118.5,48.1c0,0,0.1,0,0.2,0.1C119.1,47.8,118.3,47.7,118.5,48.1 M39.1,73.6
		c0-0.1,0.1-0.1,0.1-0.2c-0.2-0.1-0.3-0.3-0.5,0C38.9,73.5,39,73.5,39.1,73.6 M116.6,87.5c0.1-0.1,0.1-0.1,0.2-0.2
		C116.6,86.9,116.2,87.1,116.6,87.5 M84.1,6.8c-0.2-0.2-0.3-0.4-0.5-0.1C83.8,6.9,83.8,7,84.1,6.8 M19.2,47.4
		c-0.2,0.2,0.1,0.6,0.3,0.3C19.5,47.5,19.4,47.4,19.2,47.4 M20.1,63.9c-0.1,0-0.1,0.1-0.2,0.1c0.1,0.1,0.1,0.2,0.2,0.4
		c0,0,0.1-0.1,0.2-0.1C20.2,64.1,20.1,64,20.1,63.9 M38.7,87.8c-0.1,0.3-0.1,0.5,0.3,0.4C38.9,88.1,38.8,88,38.7,87.8 M11.4,87.8
		c0.3,0.1,0.4,0.2,0.6,0.2C12,87.6,11.7,87.6,11.4,87.8 M23.3,115c0,0.1,0.1,0.3,0.1,0.4C23.7,115.2,23.6,115.1,23.3,115
		 M114.8,115.2c0-0.1,0.1-0.1,0.1-0.2c-0.2-0.1-0.2-0.4-0.5-0.1C114.6,115.1,114.7,115.1,114.8,115.2 M27.7,40.6
		c0.1,0,0.1-0.1,0.2-0.1C27.7,40,27.3,40.2,27.7,40.6 M96.1,115.2c0.1-0.1,0.1-0.2,0.2-0.2C96,114.7,95.7,114.9,96.1,115.2 M90,41.9
		c-0.1-0.3,0.1-0.5-0.2-0.6C89.6,41.6,89.7,41.7,90,41.9 M93.2,41.4c-0.2,0.2-0.2,0.2,0,0.4C93.4,41.7,93.4,41.7,93.2,41.4
		 M138.1,92c-0.1,0.2-0.1,0.4,0.2,0.5C138.5,92.2,138.5,92,138.1,92 M124.6,74.4c-0.1-0.1-0.1-0.3-0.2-0.5
		C124.1,74.2,124.2,74.3,124.6,74.4 M118.8,73.9c-0.2,0.4,0,0.7,0.2,0.5C119,74.3,118.9,74.1,118.8,73.9 M114.1,98.9
		c0-0.2,0.1-0.4-0.1-0.4C113.6,98.4,113.7,98.9,114.1,98.9 M78.1,65.5c0.3-0.1,0.2-0.6-0.1-0.5C77.8,65.2,77.9,65.4,78.1,65.5
		 M65.1,16.8c-0.2-0.2-0.3-0.3-0.5-0.1C64.8,16.9,64.8,17,65.1,16.8 M12.9,73.8c0,0-0.1,0.1-0.1,0.1c0.1,0.1,0.2,0.3,0.3,0.5
		C13.2,74,13.1,73.9,12.9,73.8 M98.6,91c0-0.3-0.2-0.4-0.5-0.3C98.1,91,98.2,91.1,98.6,91 M84.5,75.5c0.3-0.4,0.2-0.7-0.2-0.5
		C84.4,75.1,84.5,75.2,84.5,75.5 M82.3,75.7c0.1,0,0.1,0,0.2,0c0-0.2-0.1-0.4-0.1-0.6c-0.1,0-0.1,0-0.2,0
		C82.2,75.3,82.3,75.5,82.3,75.7 M43,73.6c0.2,0.1,0.3,0.2,0.4,0.3C43.4,73.7,43.3,73.6,43,73.6 M46.6,19.5c0.2-0.2,0.2-0.3,0-0.5
		C46.3,19,46.2,19.4,46.6,19.5 M104.4,73.2c-0.2,0.4-0.1,0.7,0.3,0.5C104.6,73.6,104.5,73.5,104.4,73.2 M48.8,40.2
		c0.2-0.2,0.3-0.4,0-0.5C48.6,39.8,48.6,39.9,48.8,40.2 M13.1,73.3c-0.1,0-0.1,0.1-0.2,0.1c0.1,0.2,0.2,0.3,0.3,0.5
		C13.5,73.6,13.4,73.4,13.1,73.3 M106.8,20.4c-0.1-0.2-0.3-0.3-0.5-0.2C106.5,20.3,106.7,20.3,106.8,20.4 M50.3,39.9
		c0.2-0.2,0.1-0.6-0.4-0.4C50.1,39.6,50.2,39.8,50.3,39.9 M90.8,38.9c-0.1,0-0.1,0-0.2,0.1c0.1,0.2,0,0.5,0.4,0.4
		C90.9,39.2,90.9,39.1,90.8,38.9 M36.7,75.5c-0.3,0-0.3,0.4,0.1,0.6C36.8,75.8,36.8,75.6,36.7,75.5 M114.9,62.5
		c-0.1,0.2,0.1,0.3,0.3,0.5c0.1-0.2,0.1-0.3,0.2-0.4C115.2,62.6,115,62.5,114.9,62.5 M95.7,116.3c0.4-0.3,0.1-0.6-0.2-0.4
		C95.6,116,95.6,116.1,95.7,116.3 M83.1,62.3c0,0-0.1,0.1-0.1,0.1c0.1,0.2,0.2,0.5,0.6,0.7C83.4,62.8,83.2,62.5,83.1,62.3 M110.9,48
		c-0.2,0.3-0.2,0.3,0,0.5C111.2,48.4,111.1,48.3,110.9,48 M98.1,116.5c0.3-0.2-0.1-0.6-0.3-0.4C97.8,116.4,97.9,116.5,98.1,116.5
		 M98.3,116.6c0.1,0.1,0.2,0.3,0.4,0.5C98.8,116.6,98.7,116.5,98.3,116.6 M68.4,37.8c0.2,0.3,0.6,0.2,0.4-0.1
		C68.7,37.5,68.6,37.6,68.4,37.8 M43.6,82.6c0,0.3,0.2,0.5,0.4,0.4C43.8,82.9,43.7,82.8,43.6,82.6 M22.5,66.9c0.4-0.1,0.2-0.4,0-0.5
		C22.3,66.6,22.4,66.7,22.5,66.9 M85.7,72.2c0.2,0.1,0.3,0.1,0.4,0.2C86.3,72.1,86,71.8,85.7,72.2 M74.4,37.5
		c0.4-0.2,0.1-0.6-0.2-0.3C74.2,37.3,74.3,37.4,74.4,37.5 M103,49.8c0.3-0.1,0.3-0.4-0.2-0.5C102.9,49.5,103,49.7,103,49.8
		 M98.3,95.2c-0.1,0.3,0,0.4,0.3,0.5C98.7,95.4,98.7,95.3,98.3,95.2 M105,72.1c-0.1-0.2-0.1-0.3-0.2-0.4
		C104.5,71.8,104.6,72.1,105,72.1 M43.8,58.4c-0.1,0.3,0.3,0.5,0.4,0.2C44.1,58.4,44,58.3,43.8,58.4 M110.1,49.6
		c-0.2-0.2-0.3-0.4-0.4-0.2C109.8,49.7,109.8,49.9,110.1,49.6 M26.5,58c-0.2,0.3-0.2,0.3,0.1,0.5C26.7,58.3,26.6,58.2,26.5,58
		 M121.3,72.1c0-0.3,0-0.5-0.4-0.6C120.9,71.8,121,71.9,121.3,72.1 M30.4,26.4c0,0.2,0,0.4,0.2,0.5C30.6,26.7,30.6,26.6,30.4,26.4
		 M83.3,77.8c-0.1,0.1-0.1,0.1-0.1,0.2c0.2,0.2,0.3,0.3,0.5,0.5c0,0,0.1-0.1,0.1-0.1C83.7,78.2,83.5,78,83.3,77.8 M88.5,56.5
		C89,56.4,89,56,88.7,56C88.6,56.1,88.6,56.2,88.5,56.5 M92.2,49.7c-0.3,0.1-0.1,0.5,0.3,0.6C92.4,50.1,92.3,49.9,92.2,49.7
		 M67.1,27.5c0,0-0.1,0.1-0.1,0.1c0.2,0.1,0.3,0.3,0.4,0.4C67.7,27.8,67.3,27.5,67.1,27.5 M116.2,121.7c0,0.4,0,0.4,0.2,0.6
		C116.6,122,116.5,121.9,116.2,121.7 M9.9,90.1c0-0.1,0-0.1,0-0.2c-0.1,0-0.3-0.1-0.5-0.1C9.5,90.1,9.6,90.3,9.9,90.1 M103.2,54.4
		c-0.2,0.3,0.1,0.6,0.3,0.3C103.6,54.5,103.4,54.5,103.2,54.4 M81.9,68.9c-0.1-0.3-0.2-0.5-0.2-0.8C81.5,68.5,81.6,68.7,81.9,68.9
		 M89.6,30.1c-0.2,0-0.3-0.1-0.4,0.1C89.3,30.6,89.8,30.5,89.6,30.1 M111,92.2c-0.2-0.1-0.4-0.2-0.5-0.2
		C110.4,92.2,110.6,92.4,111,92.2 M53.4,53.9c0.2-0.1,0.2-0.3,0.1-0.4C53.2,53.4,53,53.8,53.4,53.9 M49.9,52.9
		c0.2-0.2,0.1-0.3-0.1-0.5C49.5,52.6,49.7,52.7,49.9,52.9 M31.8,29.9c0.3-0.4,0-0.8-0.2-0.5C31.6,29.6,31.7,29.7,31.8,29.9 M31.5,70
		c-0.1-0.2-0.2-0.4-0.4-0.6C31.1,69.7,31.2,69.9,31.5,70 M62.3,29.6c-0.2-0.1-0.3-0.3-0.5-0.1C62,29.7,62.1,29.9,62.3,29.6
		 M128.2,92.5c-0.1-0.2-0.2-0.3-0.5-0.2C127.8,92.6,127.9,92.7,128.2,92.5 M113.6,29.7c0.1,0.2,0.1,0.4,0.2,0.5
		C114.2,30.1,114.1,29.8,113.6,29.7 M97.5,92.6c-0.3-0.2-0.4-0.2-0.7-0.4C96.9,92.7,97,92.9,97.5,92.6 M98.5,93.2
		c0.4,0,0.4-0.5-0.1-0.6C98.4,92.9,98.5,93,98.5,93.2 M88.1,69.3c0.1,0.3,0.1,0.4,0.4,0.4C88.5,69.5,88.5,69.3,88.1,69.3 M52.3,29.7
		c-0.2-0.2-0.4-0.3-0.5-0.1C52,29.9,52,30,52.3,29.7 M39.8,81c0-0.3-0.1-0.5-0.4-0.5C39.4,80.9,39.5,81,39.8,81 M100.4,29.2
		c0.2-0.3-0.1-0.3-0.4-0.6C100,29.1,100,29.2,100.4,29.2 M140.5,81.7c-0.3,0.3,0.1,0.7,0.3,0.4C140.9,81.9,140.8,81.8,140.5,81.7
		 M82.5,41.5c0.1,0.5,0.4,0.6,0.5,0.2C82.8,41.6,82.7,41.6,82.5,41.5 M37.3,79.4c0.1-0.3-0.4-0.5-0.5-0.2
		C36.9,79.4,37,79.5,37.3,79.4 M121.6,119.6c-0.3,0.2-0.1,0.5,0.3,0.5C121.8,119.9,121.7,119.8,121.6,119.6 M28.6,51.7
		c0,0.3,0.4,0.6,0.5,0.2C29.1,51.6,28.9,51.6,28.6,51.7 M92.4,56c0-0.2,0-0.4-0.2-0.5C91.9,55.7,92.1,56.1,92.4,56 M56,28.3
		c0.2-0.2,0.5-0.3,0.1-0.7C56.1,27.9,55.7,28,56,28.3 M25.1,51.5c0-0.3,0-0.5-0.4-0.5C24.7,51.3,24.7,51.5,25.1,51.5 M95.2,33.7
		c-0.2,0.4,0.1,0.7,0.3,0.4C95.5,34,95.4,33.8,95.2,33.7 M34,57v-0.7C33.8,56.6,33.7,56.8,34,57 M120.5,78.2
		c-0.1-0.2-0.1-0.3-0.2-0.6C120.1,78,120.2,78.1,120.5,78.2 M101.1,82.9c0-0.3-0.1-0.4-0.3-0.5C100.7,82.7,100.8,82.9,101.1,82.9
		 M52.2,35.1c0.2-0.3,0-0.7-0.3-0.4C51.8,34.9,51.9,35,52.2,35.1 M38.6,72.2c0-0.4-0.1-0.6-0.4-0.6C38.3,71.9,38.4,72,38.6,72.2
		 M27.1,67c-0.2-0.1-0.4-0.2-0.5-0.2C26.5,67.1,26.7,67.3,27.1,67 M114.4,119.6c0-0.2-0.3-0.6-0.5-0.3
		C114,119.5,114.1,119.6,114.4,119.6 M36.8,58.8c-0.3,0.2-0.1,0.7,0.2,0.5C37.1,59,36.9,58.9,36.8,58.8 M131.6,58.8
		c-0.2,0.2-0.2,0.4,0,0.5C131.8,59.1,131.8,59,131.6,58.8 M18,77.1c0.2,0.1,0.3,0.2,0.4,0.2C18.7,77,18.4,76.7,18,77.1 M124.9,111
		c-0.2-0.3-0.6-0.1-0.5,0.2C124.7,111.3,124.8,111.2,124.9,111 M109.8,76.5c0,0,0.1-0.1,0.1-0.1c-0.1-0.2-0.3-0.4-0.4-0.6
		C109.4,76.2,109.7,76.3,109.8,76.5 M31.6,22.7c0.1,0.2,0.2,0.4,0.2,0.5C32.2,23.1,32.1,22.8,31.6,22.7 M47.1,84.6
		c-0.3,0.2-0.3,0.4-0.1,0.6C47,84.9,47,84.7,47.1,84.6 M10,85.2c0.2-0.3,0.1-0.5-0.3-0.5C9.9,84.9,9.9,85,10,85.2 M56.6,22.4
		c-0.2,0.2-0.2,0.3,0,0.5C56.9,22.9,56.9,22.5,56.6,22.4 M90.4,72.6c0,0.3,0.3,0.5,0.4,0.2C90.8,72.6,90.7,72.5,90.4,72.6
		 M68.7,21.7c-0.2-0.2-0.3-0.4-0.5-0.1C68.4,21.8,68.4,21.9,68.7,21.7 M39.8,62.4c-0.1,0-0.1,0.1-0.2,0.1
		C39.8,63,40.2,62.9,39.8,62.4 M47.2,75.4c-0.1,0.3-0.1,0.6,0.2,0.7C47.3,75.8,47.2,75.7,47.2,75.4 M54.7,39.6
		c-0.3,0.1-0.2,0.5,0.3,0.5C54.8,39.9,54.7,39.7,54.7,39.6 M46.9,47.4c-0.2,0.2,0,0.6,0.2,0.5C47.3,47.6,47.2,47.5,46.9,47.4
		 M19,74.5c0.2-0.3-0.1-0.5-0.4-0.4C18.7,74.3,18.9,74.4,19,74.5 M63.8,8.7c-0.2,0.5-0.2,0.5,0.3,0.5C64,9,63.9,8.9,63.8,8.7
		 M113.1,63.2c0.1,0.2,0.1,0.4,0.4,0.4C113.8,63.4,113.4,63.1,113.1,63.2 M99.6,74.4c0.2,0.3,0.4,0.3,0.6,0.1
		C100,74.4,99.8,74.4,99.6,74.4 M34.1,74.9c0.2-0.2,0.1-0.3-0.1-0.5C33.7,74.6,33.9,74.7,34.1,74.9 M124.1,102.3
		c0,0.2,0.1,0.4,0.3,0.6C124.4,102.6,124.3,102.4,124.1,102.3 M111,64.3c0.1,0,0.2,0,0.2-0.1C111.1,63.6,110.7,63.8,111,64.3
		 M99.2,65.1c0.4-0.3,0.2-0.4,0-0.6C98.8,64.6,99.1,64.8,99.2,65.1 M19.7,107.5c0.4-0.4-0.1-0.9-0.3-0.5
		C19.4,107.1,19.5,107.2,19.7,107.5 M16.6,54.9c-0.2,0.3,0.2,0.6,0.4,0.4C16.9,55.1,16.9,54.8,16.6,54.9 M83.8,51.3
		c-0.1-0.3-0.2-0.5-0.4-0.5C83.3,51,83.5,51.2,83.8,51.3 M45.5,50.4c-0.3,0.2-0.1,0.3,0,0.5C45.9,50.9,45.6,50.7,45.5,50.4 M62.1,9
		c-0.3,0.2,0,0.6,0.2,0.5C62.5,9.2,62.3,9.1,62.1,9 M21.5,107.8c-0.2,0.3,0,0.5,0.3,0.6C22,108.1,21.9,107.9,21.5,107.8 M97.2,129.5
		c-0.1,0.4,0,0.6,0.5,0.5C97.5,129.7,97.4,129.6,97.2,129.5 M36.1,49.3c-0.3-0.2-0.4-0.4-0.6-0.1C35.7,49.4,35.7,49.6,36.1,49.3
		 M102.2,55.9c-0.3,0.2,0,0.6,0.3,0.4C102.6,56.1,102.3,56.1,102.2,55.9 M23.9,46.8c0,0.2,0,0.3,0,0.5C24.3,47.4,24.4,47,23.9,46.8
		 M55,47.1c0.1-0.4-0.1-0.5-0.4-0.5C54.7,46.8,54.9,47,55,47.1 M26,90.8c-0.2,0.4-0.2,0.4,0.3,0.6C26.2,91.2,26.2,91,26,90.8
		 M38.3,75.7c0.2-0.2,0-0.7-0.3-0.5C38,75.5,38,75.6,38.3,75.7 M39.6,75.7c-0.2-0.2-0.3-0.4-0.5-0.1C39.3,75.7,39.3,75.9,39.6,75.7
		 M27.9,76.5c0.5-0.2,0.3-0.6,0-0.5C27.8,76.1,27.9,76.3,27.9,76.5 M109.8,90.6c-0.3-0.5-0.7-0.1-0.3,0.2
		C109.6,90.7,109.6,90.7,109.8,90.6 M40.7,77.4c0.1,0.2,0.1,0.5,0.4,0.5C41.3,77.6,41.2,77.2,40.7,77.4 M69.4,35
		c0.1-0.2,0.1-0.4-0.1-0.5C68.9,34.5,69,35,69.4,35 M43.4,24.1c-0.2-0.3-0.4-0.4-0.5,0C42.9,24.4,43.2,24.4,43.4,24.1 M37.3,62.6
		c0,0.3,0.1,0.5,0.4,0.6C37.7,62.8,37.5,62.7,37.3,62.6 M104.6,90.5c0-0.4-0.2-0.6-0.5-0.5C104.2,90.1,104.4,90.3,104.6,90.5
		 M131.2,90.2c0,0,0.1-0.1,0.1-0.1c-0.1-0.2-0.2-0.3-0.4-0.5C130.8,90,130.9,90.1,131.2,90.2 M97.6,28.5c0.1,0.3,0.3,0.4,0.6,0.2
		C98,28.5,97.9,28.3,97.6,28.5 M35.9,70.1c0.2-0.3,0.2-0.6-0.1-0.7C35.9,69.6,35.9,69.8,35.9,70.1 M32.5,26c0.4-0.1,0.4-0.6-0.2-0.6
		C32.4,25.7,32.5,25.8,32.5,26 M96,26.7c0,0.4,0.1,0.5,0.4,0.6C96.4,27,96.3,26.8,96,26.7 M40.4,82.5c-0.3-0.2-0.4-0.5-0.6-0.3
		C39.9,82.6,39.8,82.6,40.4,82.5 M117.3,61.9c0,0.4,0.1,0.6,0.1,0.9C117.6,62.6,117.5,62.3,117.3,61.9 M105.4,123.5
		c-0.2,0.2-0.1,0.4,0.2,0.5C105.5,123.9,105.5,123.7,105.4,123.5 M129.8,49c-0.3-0.2-0.4-0.3-0.6,0C129.4,49.3,129.5,49.3,129.8,49
		 M121.6,92.4c0.4-0.3,0.1-0.7-0.3-0.5C121.4,92.2,121.4,92.3,121.6,92.4 M24.2,82c0.2-0.3,0.1-0.5-0.3-0.6
		C24.1,81.6,24.1,81.8,24.2,82 M98.1,89.1c-0.1,0.3,0.3,0.6,0.5,0.2C98.6,89.1,98.4,89,98.1,89.1 M120.2,89.1
		c-0.3,0.3,0,0.3,0.2,0.6C120.6,89.4,120.4,89.4,120.2,89.1 M108.5,112.8c0.1-0.3-0.3-0.4-0.6-0.2
		C108,112.9,108.2,112.8,108.5,112.8 M81.7,17.1c-0.2-0.3-0.3-0.3-0.6,0C81.4,17.3,81.4,17.3,81.7,17.1 M107.2,60.5
		c0.1,0.3,0.2,0.5,0.6,0.5C107.6,60.7,107.5,60.4,107.2,60.5 M32.6,74.1c0.7-0.3,0.6-0.5,0.1-0.5C32.7,73.7,32.6,73.8,32.6,74.1
		 M117.5,24c0.1-0.4-0.2-0.6-0.4-0.4C117,24,117.2,24,117.5,24 M117.1,119.7c0.3-0.3,0.3-0.4,0-0.6
		C116.7,119.2,117,119.5,117.1,119.7 M13.6,73.7c-0.3,0.2,0,0.7,0.4,0.4C14.1,73.9,13.8,73.9,13.6,73.7 M42,20.1
		c-0.3,0.5-0.3,0.4,0,0.7C42.3,20.6,42.2,20.5,42,20.1 M132.9,67.7c0.3-0.3,0.2-0.3,0-0.6C132.6,67.4,132.6,67.5,132.9,67.7
		 M97.6,85.3c0,0.2,0,0.3,0,0.5C98.1,85.8,98.1,85.4,97.6,85.3 M122.9,51.4c0.2-0.2,0.3-0.5,0-0.5C122.5,51,122.6,51.2,122.9,51.4
		 M42.5,58.9c0-0.5-0.5-0.2-0.6-0.5C41.8,59,42.3,58.7,42.5,58.9 M119.4,55.4c-0.1,0.2-0.2,0.4-0.1,0.5
		C119.5,55.8,119.5,55.6,119.4,55.4 M121,93.7c0.1-0.1,0.3-0.2,0.1-0.4C120.7,93,120.6,93.5,121,93.7 M24.1,74.2
		c-0.2-0.2-0.3-0.3-0.4-0.4C23.3,74,23.6,74.3,24.1,74.2 M83,49.9c-0.2-0.3-0.3-0.5-0.5-0.7C82.3,49.4,82.5,49.9,83,49.9
		 M116.2,39.3c-0.3,0.4,0,0.7,0.3,0.4C116.4,39.5,116.3,39.4,116.2,39.3 M17.8,42.6c0,0,0.1,0,0.1,0C18.1,41.6,17.3,41.8,17.8,42.6
		 M124.8,88.3c0,0,0.1-0.1,0.1-0.1c-0.2-0.2-0.3-0.3-0.6-0.6C124.2,88.1,124.5,88.2,124.8,88.3 M49.5,40.6c0.3-0.3,0.1-0.3-0.1-0.5
		C49.1,40.3,49.3,40.4,49.5,40.6 M119.2,94.9c-0.2-0.2-0.3-0.3-0.6-0.5v0.7C118.8,95,118.9,95,119.2,94.9 M42.7,83.2
		c0.2-0.3,0.1-0.5-0.1-0.6C42.2,82.6,42.3,83.1,42.7,83.2 M77.5,65.9c0.1-0.3-0.1-0.5-0.5-0.6C77.2,65.5,77.3,65.6,77.5,65.9
		 M113.5,41.7c-0.1-0.3-0.2-0.5-0.5-0.4C112.7,41.5,113.1,41.9,113.5,41.7 M96.4,19c-0.2,0.2-0.3,0.4-0.1,0.5
		C96.7,19.7,96.8,19.2,96.4,19 M54.1,42.5c-0.2,0.3,0.1,0.6,0.6,0.5C54.4,42.8,54.3,42.7,54.1,42.5 M47.9,74.6
		c0.2-0.3-0.1-0.8-0.4-0.5C47.5,74.4,47.6,74.7,47.9,74.6 M93.5,19.7C93.4,20,93.8,20.3,94,20C94,19.8,93.8,19.6,93.5,19.7
		 M92.6,50.8c0,0.3,0.1,0.5,0.4,0.5C93,51.1,93,50.8,92.6,50.8 M118.6,90.8c0.3,0.4,0.7,0,0.4-0.3C118.8,90.4,118.7,90.6,118.6,90.8
		 M128,86c-0.2-0.3-0.3-0.3-0.6-0.1C127.6,86.3,127.7,86.4,128,86 M60.4,18.6c-0.1,0.3,0.1,0.4,0.3,0.5
		C60.8,18.8,60.7,18.6,60.4,18.6 M87.8,67.9c-0.3,0.2,0,0.4,0.1,0.7c0.2-0.2,0.2-0.3,0.3-0.4C88.1,68.1,88,68,87.8,67.9 M111.2,63.7
		c0.1-0.3,0-0.5-0.4-0.6C110.9,63.3,110.9,63.6,111.2,63.7 M131.4,96.4c0.1-0.6,0.1-0.6-0.5-0.5C131,96.1,131.2,96.2,131.4,96.4
		 M42.7,87.6c0.1,0.4,0.2,0.6,0.6,0.6C43.2,87.8,43,87.6,42.7,87.6 M44.1,53.1c-0.2-0.1-0.3-0.2-0.4-0.3
		C43.4,53.1,43.9,53.6,44.1,53.1 M19.2,86.4c0.1,0.2,0.2,0.3,0.4,0.4C19.6,86.5,19.5,86.4,19.2,86.4 M70.7,24.4
		c-0.2-0.2-0.4-0.4-0.5-0.1C70.3,24.5,70.4,24.7,70.7,24.4 M52.1,41.6c0-0.5-0.2-0.6-0.8-0.7C51.6,41.2,51.8,41.4,52.1,41.6
		 M46.2,15.5c-0.3,0.2,0.1,0.4,0.3,0.7C46.6,15.6,46.6,15.6,46.2,15.5 M53.5,55.8c0,0.4,0.5,0.5,0.5,0.1
		C53.9,55.6,53.7,55.6,53.5,55.8 M12.3,102c0,0.3,0.1,0.5,0.4,0.5C12.7,102.2,12.6,102,12.3,102 M28.5,71.7c0.2-0.3-0.1-0.7-0.4-0.4
		C28.1,71.6,28.3,71.6,28.5,71.7 M92.4,12.7c0-0.3,0-0.5-0.3-0.5C91.8,12.4,92,12.9,92.4,12.7 M125.5,55.6c-0.2,0.4-0.2,0.5,0.1,0.7
		C126,56.2,125.7,56,125.5,55.6 M87.8,44.9c-0.2,0.3,0.1,0.8,0.4,0.5C88.3,45.1,88.2,45,87.8,44.9 M92.2,90.8
		c0.2,0.6,0.3,0.6,0.5,0.3C92.7,90.8,92.5,90.7,92.2,90.8 M57.8,38.6c-0.2,0.3,0,0.7,0.4,0.6C58.3,38.9,58.1,38.7,57.8,38.6 M132,91
		c-0.1-0.3-0.2-0.4-0.3-0.6C131.5,90.7,131.6,90.9,132,91 M113.2,117.1c0.4,0,0.6-0.5,0.2-0.6C113.1,116.6,113,116.8,113.2,117.1
		 M56.2,36.8c-0.4-0.5-0.8-0.1-0.4,0.3C56,37,56.1,37,56.2,36.8 M112.9,70.7c0,0.3,0.1,0.5,0.3,0.7c0.1-0.1,0.2-0.2,0.3-0.4
		C113.3,70.9,113.1,70.8,112.9,70.7 M27.4,78.4c-0.2,0.5,0.1,0.8,0.5,0.4C27.7,78.7,27.6,78.6,27.4,78.4 M131.8,83.4
		c-0.2-0.2-0.5-0.4-0.6,0C131.3,83.6,131.5,83.7,131.8,83.4 M109.4,82.4c0.4-0.1,0.4-0.7-0.1-0.6C109.1,82,109.2,82.2,109.4,82.4
		 M123.7,88.1c0.4,0,0.4-0.6,0-0.5C123.4,87.8,123.5,87.9,123.7,88.1 M20.1,44.5c-0.3,0.2-0.3,0.4-0.1,0.6
		C20.4,45.3,20.4,44.8,20.1,44.5 M93.6,37.7c0,0.3,0.1,0.5,0.1,0.8C94.1,38,94.1,37.9,93.6,37.7 M45.1,66.4c0,0.4,0.5,0.6,0.6,0.2
		C45.6,66.3,45.4,66.2,45.1,66.4 M38,76.4c-0.1-0.5-0.3-0.5-0.7-0.5C37.3,76.4,37.6,76.3,38,76.4 M31.5,76.4
		c0.4,0.1,0.5-0.8-0.1-0.6C31.4,76.1,31.5,76.3,31.5,76.4 M78.5,10.3c0-0.3-0.4-0.7-0.6-0.3C77.9,10.2,78.2,10.4,78.5,10.3
		 M51.8,42.2c-0.1,0.3,0.2,0.8,0.5,0.6C52.2,42.4,52.2,42.2,51.8,42.2 M48.9,56.8c0-0.3-0.1-0.6-0.5-0.6
		C48.4,56.5,48.6,56.7,48.9,56.8 M102.4,107.2c0-0.3-0.1-0.5-0.4-0.6C101.8,106.9,101.9,107.4,102.4,107.2 M40.1,58.5
		c-0.3-0.2-0.4-0.4-0.7-0.1C39.7,58.7,39.8,58.9,40.1,58.5 M30.6,66.1c-0.1-0.3-0.3-0.5-0.5-0.4C30,66,30.2,66.1,30.6,66.1
		 M92.9,101.6c0-0.4-0.6-0.6-0.6-0.1C92.4,101.8,92.6,101.7,92.9,101.6 M16,104c-0.5-0.5-0.8-0.2-0.3,0.3
		C15.7,104.2,15.8,104.1,16,104 M98.2,69.5c0.2-0.7,0.2-0.7-0.4-0.6C98,69.1,98.1,69.3,98.2,69.5 M36.7,91c-0.2,0.4,0,0.5,0.2,0.7
		c0.1-0.1,0.2-0.3,0.3-0.4C37,91.2,36.9,91.1,36.7,91 M117.7,87.6c-0.1-0.3-0.4-0.7-0.6-0.4C117.1,87.6,117.3,87.6,117.7,87.6
		 M17.7,52.8c-0.4,0.2,0,0.8,0.3,0.5C18.2,53.1,17.9,52.9,17.7,52.8 M117.5,103.1c0.1,0.3,0,0.5,0.3,0.6
		C118.2,103.6,118,103,117.5,103.1 M80.3,73.4c0.6,0.2,0.7-0.6,0.1-0.6C80.4,73,80.4,73.2,80.3,73.4 M114.4,101.3
		c-0.4,0.2-0.1,0.7,0.3,0.6C115,101.7,114.6,101.4,114.4,101.3 M29.7,54.2c0,0.6,0,0.7,0.5,0.6C30.2,54.5,30.1,54.3,29.7,54.2
		 M48.8,76c-0.2-0.2-0.3-0.4-0.6-0.3C48.3,76,48.5,76.1,48.8,76 M65.1,24.6c0.5,0,0.6-0.5,0.1-0.6C64.9,24.1,65,24.3,65.1,24.6
		 M97.3,39.3c0.2-0.1,0.4-0.1,0.7-0.2C97.6,38.7,97,38.6,97.3,39.3 M24.3,89.2c-0.6,0.3,0.1,0.9,0.4,0.4
		C24.6,89.5,24.4,89.3,24.3,89.2 M78.5,24.6c0.4,0.4,0.4,0.4,1,0C79,24.6,78.8,24.3,78.5,24.6 M120.8,90.3c-0.3-0.2-0.8-0.3-0.7,0.2
		C120.4,90.9,120.6,90.5,120.8,90.3 M84.2,83c0.2,0.2,0.3,0.5,0.6,0.4C84.9,83,84.7,82.5,84.2,83 M116.4,104.7
		c0.1,0.3,0.2,0.4,0.4,0.4C117.2,104.9,116.7,104.3,116.4,104.7 M107.2,66c-0.2-0.2-0.4-0.5-0.6-0.1C106.6,66.3,107,66.3,107.2,66
		 M18.7,83.4c-0.1-0.6-0.1-0.7-0.5-1C18.3,82.8,18.2,83.2,18.7,83.4 M47.2,66.6c0.4-0.3,0.1-0.6-0.2-0.7
		C46.8,66.3,47,66.5,47.2,66.6 M27,82c-0.4,0.2-0.2,0.9,0.2,0.7C27.2,82.4,27.2,82.3,27,82 M36.7,89.5c0-0.4,0-1-0.4-0.8
		C36.1,89.1,36.4,89.2,36.7,89.5 M50.4,29.3c-0.5,0.1-0.4,0.7,0,0.6C50.7,29.7,50.6,29.5,50.4,29.3 M13.3,51.7
		c0.1-0.5,0.1-0.7-0.3-0.7C12.6,51.2,13.1,51.4,13.3,51.7 M133,88.7c0.2,0.2,0.3,0.4,0.6,0.3C134,88.6,133.2,88.2,133,88.7
		 M132.3,63.1c-0.1,0.2-0.3,0.5,0.1,0.6C132.8,63.7,132.9,63.2,132.3,63.1 M126.7,73.9c-0.4,0.1,0,0.5,0.1,0.9
		c0.2-0.2,0.3-0.2,0.5-0.3C127,74.2,126.9,74.1,126.7,73.9 M131.7,86.9c0.3-0.3,0.4-0.7-0.1-0.8C131.3,86.3,131.5,86.6,131.7,86.9
		 M122.7,86.6c-0.6,0.2-0.2,0.8,0.2,0.6C123.1,86.9,122.8,86.8,122.7,86.6 M31,64.4c-0.4,0.3-0.3,0.4,0,0.7
		C31.4,65,31.2,64.7,31,64.4 M40.5,54.1c0.3-0.5,0.3-0.5-0.1-0.7C40.1,53.6,40.2,53.9,40.5,54.1 M103.4,37.4
		c-0.5,0.1-0.3,0.7,0.1,0.6C103.8,37.8,103.7,37.6,103.4,37.4 M34,78.2c0-0.3-0.1-0.6-0.4-0.8C33.6,77.8,33.6,78.1,34,78.2
		 M125.4,90c-0.3,0.4-0.3,0.5,0,0.7C125.8,90.5,125.6,90.4,125.4,90 M122,81.1c-0.3-0.2-0.4-0.3-0.7-0.4
		C121.5,81.4,121.6,81.4,122,81.1 M125.5,77.6c0.1-0.3-0.3-0.4-0.5-0.6C124.7,77.5,125,77.8,125.5,77.6 M58.9,35.8
		c0.5-0.2,0.2-0.8-0.2-0.6C58.5,35.4,58.7,35.6,58.9,35.8 M82.1,34.4c-0.3-0.2-0.6-0.5-0.7-0.1C81.7,34.6,81.8,34.7,82.1,34.4
		 M37,32.4c-0.4,0.3-0.2,0.4,0,0.7C37.4,32.9,37.3,32.8,37,32.4 M40.6,79.6c-0.1-0.3-0.2-0.5-0.5-0.3C39.8,79.7,40.3,80,40.6,79.6
		 M27.7,61.7c-0.2-0.3-0.4-0.5-0.8-0.3c0.2,0.2,0.3,0.4,0.5,0.6C27.5,61.8,27.6,61.7,27.7,61.7 M111,113.2c0.2-0.2,0.3-0.5,0-0.7
		C110.6,112.5,110.4,113.1,111,113.2 M97.4,73.9c0.3-0.5,0.3-0.5-0.3-0.7C97,73.6,97.1,73.8,97.4,73.9 M88.9,63.2
		c-0.3-0.2-0.4-0.5-0.7-0.1C88.4,63.4,88.5,63.6,88.9,63.2 M11.3,91c-0.3,0.4,0.1,0.9,0.4,0.6C11.8,91.3,11.6,91.1,11.3,91 M93.1,20
		c0,0,0.1-0.1,0.1-0.1C92.7,18.9,92.1,19.7,93.1,20 M95.9,12.6c0.5-0.4,0.5-0.6,0-0.9V12.6z M110.4,88c-0.4-0.2-0.6-0.5-0.8-0.1
		C109.9,88.3,110,88.3,110.4,88 M22.9,37.2c-0.5-0.7-0.9-0.1-0.3,0.3C22.6,37.5,22.7,37.4,22.9,37.2 M101.8,68.4
		c0.2,0.2,0.3,0.3,0.4,0.5C102.9,68.4,102.4,68,101.8,68.4 M33.2,34.5c0.2-0.1,0.5-0.2,0.3-0.5C33.3,33.5,32.7,34.2,33.2,34.5
		 M21.7,55.6c-0.5-0.2-0.3,0.5,0,0.7C22.1,56.1,21.9,55.9,21.7,55.6 M81.5,72.3c0.3-0.9-0.6-0.5-0.7,0.1
		C81.1,72.3,81.3,72.3,81.5,72.3 M112.1,62.4c-0.3,0.5-0.3,0.7,0.2,0.8C112,63,112.5,62.6,112.1,62.4 M131.6,63.3
		c0.1-0.3-0.3-0.4-0.5-0.7C130.9,63.4,131.1,63.5,131.6,63.3 M49.2,65c-0.1,0.6,0.6,0.6,0.6,0.1C49.7,64.8,49.4,65,49.2,65
		 M104.9,70.3c-0.6,0.1-0.4,0.7,0.1,0.6C105.1,70.7,105.2,70.5,104.9,70.3 M43.1,37.2c-0.4,0.3-0.1,0.4,0,0.7
		C43.5,37.7,43.3,37.5,43.1,37.2 M101.2,114.5c-0.4-0.7-1,0-0.4,0.4C101,114.7,101.1,114.6,101.2,114.5 M23.2,56.5
		c0,0.3,0.2,0.6,0.7,0.8C23.6,57.1,23.7,56.5,23.2,56.5 M124.6,56.4c0.6-0.2,0.4-0.8-0.1-0.7C124.2,56,124.4,56.2,124.6,56.4
		 M61.4,8.6c0.3-0.4,0-0.9-0.4-0.6C60.9,8.4,61.1,8.5,61.4,8.6 M129.4,56.3c0.4-0.3,0.4-0.6,0-0.8C128.9,55.6,129.1,56.1,129.4,56.3
		 M86.3,43.3c0.2-0.6-0.1-1.2-0.6-0.6C85.9,42.9,86,43.1,86.3,43.3 M87,51.2c0.5-0.4,0-1.1-0.4-0.5C86.7,50.8,86.8,51,87,51.2
		 M92.5,86.1c-0.2-0.2-0.4-0.3-0.6-0.4c-0.1,0.3-0.1,0.5,0.1,0.8C92.1,86.3,92.2,86.3,92.5,86.1 M13.5,102.8c0.1-0.3,0-0.6-0.3-0.6
		C12.7,102.4,13,103.1,13.5,102.8 M48,54.6c-0.2-0.3-0.5-0.4-1-0.3C47.3,54.5,47.6,54.7,48,54.6 M109.5,67.3c0.1-0.3-0.5-0.7-0.6-1
		c-0.1,0-0.1,0.1-0.2,0.1C108.9,66.7,109,67.3,109.5,67.3 M122.8,94.4c-0.4-0.8-1-0.1-0.3,0.4C122.7,94.7,122.7,94.6,122.8,94.4
		 M94.8,79.2c-0.3,0.4-0.4,0.6,0,0.8C95.4,79.9,95.1,79.5,94.8,79.2 M25.8,77.3c0.2-0.4,0-1-0.4-0.7C25.3,77,25.5,77.1,25.8,77.3
		 M135.2,49.1c0.6,0.1,0.5-0.7,0.1-0.6C134.9,48.5,135,48.9,135.2,49.1 M31.8,83.4c0.2-0.4,0.1-0.6-0.2-0.8
		C31.3,82.9,31.3,83,31.8,83.4 M91.9,75.6c0,0.2,0,0.4,0,0.6C92.7,76.4,92.7,75.4,91.9,75.6 M24.2,46.2c0.3-0.3,0.3-0.5,0.1-0.7
		C23.8,45.5,23.5,46,24.2,46.2 M120,99.6c0.6-0.5-0.2-1.1-0.5-0.4C119.6,99.3,119.8,99.5,120,99.6 M122.9,114
		c0.1,0.3,0.2,0.6,0.6,0.5C123.8,114.1,123.3,113.7,122.9,114 M118.1,57.1c-0.9-0.2-0.7,0.3-0.6,1C117.8,57.7,117.9,57.5,118.1,57.1
		 M124.2,90.5c-0.3,0.3-0.2,0.8,0.2,0.7C124.8,91,124.4,90.8,124.2,90.5 M20.4,40.9c-0.1,0.3-0.1,0.5-0.2,0.8
		C20.9,41.6,21.1,41.2,20.4,40.9 M69.9,20.7c-0.4-0.2-0.6-0.5-0.8,0C69.1,21.2,69.5,21,69.9,20.7 M97.8,38.4c0.2-0.3,0-1.1-0.4-0.7
		C97.3,38.1,97.4,38.4,97.8,38.4 M83.3,32.6c0.6,0,0.8-0.8,0.1-0.7C83.1,32,83.2,32.3,83.3,32.6 M116.8,120.7
		c0.1,0.2,0.4,0.6,0.7,0.4C117.6,120.6,117.3,120.2,116.8,120.7 M140.5,75.8c0.4-0.3,0.4-0.4,0.1-0.9
		C140.3,75.2,140.3,75.5,140.5,75.8 M39.7,84.4c0.3-0.3,0.1-0.5-0.1-0.8C39.1,83.5,39.3,84.2,39.7,84.4 M9.3,67.5
		c0.3,0.3,0.1,0.8,0.6,0.8C10.2,67.8,10.1,67.6,9.3,67.5 M125,94.4c-0.5,0.3-0.1,1,0.4,0.7C125.5,94.8,125.3,94.6,125,94.4
		 M130.4,92.2c-0.3-0.4-1.4,0-0.6,0.5C130,92.5,130.2,92.4,130.4,92.2 M136,96.4c-0.3-0.3-0.5-0.6-0.7-0.1
		C135.2,96.8,135.7,96.8,136,96.4 M88.2,57.2c0.1,0.2,0.2,0.4,0.4,0.6C89.4,57.5,88.9,56.8,88.2,57.2 M42.5,31.5
		c-0.3,0.4-0.2,0.9,0.2,0.9C43.1,32,42.8,31.8,42.5,31.5 M101.2,29.8c0,0.8,0.7,0.8,0.7,0.2C101.8,29.8,101.7,29.8,101.2,29.8
		 M129.7,91.9c0,0,0-0.1,0.1-0.2C128.7,90.9,128.4,92.2,129.7,91.9 M104.9,20.6c0.5-0.6-0.2-1.1-0.4-0.6
		C104.4,20.4,104.6,20.5,104.9,20.6 M53.7,31.5c0.1,0.4,0,0.8,0.5,0.8C54.7,32.1,54.3,31.4,53.7,31.5 M18.1,67.8
		c-0.4,0.3-0.4,0.8,0.1,0.8C18.9,68.6,18.4,68.1,18.1,67.8 M82.5,78.1c0.3-0.2,0.3-0.7-0.1-0.7C81.8,77.4,81.9,78,82.5,78.1
		 M123,113.2c0.1-0.6-0.2-1.1-0.7-0.8C122.5,112.9,122.6,113,123,113.2 M33.2,71.7c-0.3-0.3-0.8-0.8-0.8-0.1
		C32.4,72.2,32.8,72,33.2,71.7 M118.7,100.3c0.2-0.4,0.4-0.8-0.1-0.9C118.1,99.5,118.4,99.9,118.7,100.3 M97.8,72.1
		c0.3-0.3,0.7-0.8,0.1-0.9C97.2,71.3,97.5,71.7,97.8,72.1 M89.3,66.9c0.2,0.5,0.5,0.5,0.8,0.3C90.2,66.7,89.7,66.4,89.3,66.9
		 M134.5,97.6c0,0.4-0.5,0.6-0.2,1C134.9,98.6,135.2,97.6,134.5,97.6 M107.6,73.4c0-0.2-0.1-0.4-0.4-0.4
		C106.2,73.1,107.4,74.5,107.6,73.4 M96.3,114.1c0.3-0.6,0.2-0.7-0.6-0.7C95.6,114,95.7,114,96.3,114.1 M126.5,82.5
		c0.1,0.4,0.3,0.6,0.7,0.6v-0.7C126.8,82.4,126.7,82.4,126.5,82.5 M17,99.7c0.1-0.6-0.8-0.8-0.7-0.2C16.5,99.7,16.7,100,17,99.7
		 M38.1,57.6c0-0.3-0.1-0.6-0.1-0.9C37.2,56.8,37.3,57.7,38.1,57.6 M82.7,29.5c-0.4-0.3-0.9-0.7-0.9,0
		C81.9,30.1,82.3,29.9,82.7,29.5 M130.6,77.4c-0.6,0.4-0.6,0.5,0.2,0.9C131.1,77.9,131,77.6,130.6,77.4 M90.2,62.3
		c0.2,0.2,0.5,0.5,0.8,0.8C91.3,62.7,90.7,61.5,90.2,62.3 M20.1,105.1c-0.4,0.3-0.5,0.6-0.3,1C20.3,105.9,20.3,105.8,20.1,105.1
		 M109.4,28c-0.4-0.4-0.7-0.5-0.9,0C108.5,28.5,109,28.4,109.4,28 M42.5,92.5c0-0.6-0.6-0.8-0.8-0.3C41.6,92.8,42.2,92.8,42.5,92.5
		 M92.5,98c0.1-0.5,0-0.8-0.5-0.9C91.6,97.5,91.7,97.6,92.5,98 M29.7,70.3c0.3-0.5-0.2-0.9-0.4-1.4C29.1,69.5,29.1,70,29.7,70.3
		 M134.1,51.1c0.1-0.2,0.2-0.4,0.4-0.7C133.8,49.9,133.2,50.8,134.1,51.1 M32.9,66.8c0.3,0,0.6,0.1,1,0.1c-0.4-0.3-0.7-0.6-1-0.9
		C32.6,66.3,32.7,66.6,32.9,66.8 M100.8,13.1c0.6-0.2,0.3-1.1-0.2-0.9C100.3,12.6,100.5,12.8,100.8,13.1 M95,25.9
		c-0.4,0.3-0.1,0.9,0.3,0.9C95.7,26.6,95.4,26,95,25.9 M26.5,48.9c-0.4,0.5-0.2,0.9,0.4,1C27.1,49.5,26.9,49.2,26.5,48.9 M23,56
		c0-0.4,0.2-0.4,0.4-0.6C23.8,54.3,22.3,55.2,23,56 M109.2,59.8c-0.4,0.2-0.3,0.8,0.2,0.8C109.8,60.6,109.7,59.8,109.2,59.8
		 M46.4,25.9c-0.6,0.2-0.5,1,0.1,0.9C46.9,26.6,46.6,26.2,46.4,25.9 M128.1,53.7c-0.4-0.7-0.4-0.7-0.9-0.4
		C127.3,53.7,127.6,53.8,128.1,53.7 M91.5,17.2c-0.3,0.5-0.3,0.7-0.1,0.8C92,18.2,92.2,17.4,91.5,17.2 M54.8,51.5
		c-0.3-0.4-0.6-0.5-0.8-0.3C53.7,51.6,54.3,52.3,54.8,51.5 M109.4,79.2c0.6-0.4,0.4-1.5-0.3-0.9C109.1,78.6,109.2,78.8,109.4,79.2
		 M98.1,54.1c0.1-0.7-0.7-0.8-0.8-0.2C97.3,54.5,97.8,54.4,98.1,54.1 M32.2,85.9c-0.7,0.6,0.3,1.4,0.7,0.6
		C32.7,86.3,32.5,86.1,32.2,85.9 M102.4,53.4c0.6-0.2,0.9-0.9,0.2-1C102.2,52.7,102.2,53,102.4,53.4 M122.2,97.1
		c0.6-0.6-0.1-1.2-0.5-0.7C121.5,96.6,121.6,96.9,122.2,97.1 M38.4,51.4c0.3,0.2,0.8,0.6,1,0.2C39.5,50.8,38.8,50.9,38.4,51.4
		 M76.7,65.5c0.7-1-1.1-1-0.6,0H76.7z M113.6,57.8c0.4-0.3,0-0.7-0.2-0.9C112.8,56.8,112.9,57.8,113.6,57.8 M30.8,52.1
		c-0.3,0-1-0.1-0.9,0.4C30.1,53.2,31,53,30.8,52.1 M113.2,117.7c-0.4-0.3-0.9-0.7-1,0C112.3,118.4,112.8,118.1,113.2,117.7
		 M132,62.2c0.9,0.1,0.7-0.7,0.2-0.8C131.7,61.3,131.6,62,132,62.2 M42.6,80.5c-0.3,0.2-0.4,0.8,0.1,0.9
		C43.2,81.4,43.2,80.5,42.6,80.5 M103.9,63.2c0.2,0.5,0.3,1.6,1,0.9C104.5,63.9,104.6,63.3,103.9,63.2 M98.9,96.1
		c0.2,0.4,0.8,1.7,1.1,0.7C100,96.6,99.1,95.7,98.9,96.1 M103.3,77.3c-0.8,0.7-0.9,0.8-0.7,1.2C102.7,78.5,103.8,77.7,103.3,77.3
		 M15.5,53c0.1-0.6-0.8-1-0.8-0.3C14.7,53.2,15.2,53.3,15.5,53 M120.4,72.1c-0.2,0.7-0.2,0.7,0.2,1.1
		C121.2,72.6,121.2,72.3,120.4,72.1 M33.4,76.2c0-0.4,0.1-1-0.5-0.9C32.4,75.6,32.9,76.3,33.4,76.2 M103.9,30.9
		c0.5-0.5,0.2-1.9-0.3-0.9C103.6,30.3,103.5,30.9,103.9,30.9 M37.1,69.7c0,0.4-0.3,1.1,0.3,1.2C37.7,70.5,37.9,69.5,37.1,69.7
		 M78.4,64.1c-1-1.2-1.1,1.2-0.1,0.5C78.3,64.4,78.4,64.3,78.4,64.1 M107.7,38.9c-0.2,1.7,0.9-0.7-0.4-1
		C107,38.5,107.5,38.6,107.7,38.9 M96.6,84.6c-0.2,0.4-0.2,0.6,0.1,0.9C97.4,85.8,97.5,84.9,96.6,84.6 M126.2,101.5
		c0.1-1.1-1.6,0.1-0.7,0.5C125.7,101.9,126,101.7,126.2,101.5 M20.5,49.6c0-0.5-0.9-0.7-0.9-0.1C19.6,49.9,20.5,50.2,20.5,49.6
		 M105,73.9c-0.4,0.5-0.6,1.1,0.2,1.2C105.6,74.5,105.5,74.3,105,73.9 M23.2,61.7c0.2,0.5,0.9,0.6,1.3,0.3
		C24.7,61.3,23.7,61.5,23.2,61.7 M97,55.4c-0.2-0.5-0.4-0.5-1.1,0C96.3,55.9,96.6,55.8,97,55.4 M22.1,59.4c0.5,1.5,1.4-0.7,0.6-0.5
		C22.7,59.3,22.3,59.1,22.1,59.4 M39.4,49.7c0-0.4-0.3-0.7-0.7-0.6C38.1,49.4,38.7,50.3,39.4,49.7 M104,19.9c0-0.7-0.8-0.7-0.8,0
		C103.1,20.4,104,20.5,104,19.9 M63.6,25c-0.4,0.1-1.1,0.4-0.6,0.9C63.5,26.3,64,25.5,63.6,25 M39.1,82.3c0.5-1.1-0.5-1.4-0.9-0.5
		C38.5,82,38.8,82.2,39.1,82.3 M46.5,40.9c-0.7,0-0.6,1.1,0.1,1.1C46.8,41.6,46.8,41.2,46.5,40.9 M95.6,29.8c-0.7-0.1-0.9,1-0.2,1.2
		C95.7,30.6,95.8,30.2,95.6,29.8 M114.4,103.6c0.3,0.4,0.7,0.9,1.1,0.3C115.7,103.2,114.8,103.2,114.4,103.6 M23.6,95.5
		c-0.3-0.6-1-0.9-1-0.1C22.9,96,23.2,96,23.6,95.5 M40.5,65.2c1.3,1,1.2-0.1,0.1-0.6C40.4,64.8,40.5,65,40.5,65.2 M129.6,84.4
		c-0.7,0.6,0.7,1,1.1,0.9C130.7,84.7,130,84.7,129.6,84.4 M87.7,37.4c-0.7,0-0.5,0.9,0,1C88.2,38.4,88.4,37.3,87.7,37.4 M128.2,47.8
		c1.5-0.3,0.5-1.3-0.4-0.5C127.9,47.5,128.1,47.7,128.2,47.8 M16.7,63c1-0.5,0.5-0.8,0-1.2C16.3,62.3,16.4,62.5,16.7,63 M134.9,88.3
		c-0.5-0.3-1,0.3-0.6,0.7C134.7,89.4,135.3,88.9,134.9,88.3 M104.7,121.4c-0.2-0.4-0.9-0.6-1,0.1C103.8,122.1,104.8,122,104.7,121.4
		 M76.6,38.8c-0.1-0.6-0.7-0.9-0.9-0.3C75.4,39.2,76.3,39.3,76.6,38.8 M39.7,39.8c-0.1,0.7-1.2,1-0.2,1.4
		C39.8,41,40.3,40.1,39.7,39.8 M96.6,42.3c0.7,0.1,1.2,0.5,1.8-0.2C97.6,41.6,97.3,42.1,96.6,42.3 M122,111c0.3-0.5,0-1.3-0.5-1.1
		C121.2,110.3,121.4,111,122,111 M102.3,70.9c-0.5,0-0.7,1.1-0.1,1.1C102.9,71.9,102.9,70.9,102.3,70.9 M111.7,65.4
		c-1.1,0.1-1.1,0.8-0.1,0.9C112.2,66.4,112.2,65.4,111.7,65.4 M27.7,54.1c-0.7-0.1-0.5,1.1,0,1C28.4,55.1,28.3,54.1,27.7,54.1
		 M29.4,73.4c0-0.7-0.9-1-1-0.2C28.5,73.9,29.4,74.1,29.4,73.4 M79.4,19.5c-0.7,0-0.6,1.1,0,1.1C80.2,20.6,80,19.5,79.4,19.5
		 M29,52.5c-0.2-0.6-1.1-0.4-1,0.2C28.1,53.5,29,53.1,29,52.5 M28.9,41.7c0.4-0.4,0.2-1.3-0.4-1.2C27.9,40.9,28.3,41.8,28.9,41.7
		 M119.2,79.2c0.2-0.1,0.4-0.2,0.2-0.5c-0.7-0.8-0.9,1.7,0.1,1.6C119.7,79.8,119.3,79.5,119.2,79.2 M124,85.2
		c-0.7,0.2-0.7,0.3-0.6,1.1C124.3,86.6,124.6,85.7,124,85.2 M50,26.1c-0.1-0.6-1.1-0.6-1.1,0C49,26.9,49.9,26.8,50,26.1 M52.7,62.9
		c0.9-0.7,0.5,0.2,1.2,0.4C54.7,62.3,51.7,61.6,52.7,62.9 M51,59.5c0.2,0.4,0.3,1,0.8,0.9C52.6,60,51.9,58.9,51,59.5 M12,92.4
		c0-1.2-1.6-0.2-1.1,0.4C11.3,93.2,11.7,92.6,12,92.4 M27,57.1c0.9-0.5-0.1-1.6-0.4-0.6c0,0.4-0.2,1.6,0.7,1.1
		C27.2,57.5,27.1,57.3,27,57.1 M123.9,114.2c-1.1,1.4,0.1,2.2,0.6,0.4C124.4,114.5,124.2,114.4,123.9,114.2 M120.4,32.2
		c-0.1-1.6-2.1,0.3-0.6,0.5C120.2,32.7,120.4,32.5,120.4,32.2 M113.4,90.2c0.2,1.4,0.5,2,1.3,2.2C114.6,91.5,113.9,90.9,113.4,90.2
		 M121.4,49.1c-0.1-0.8-1.2-0.7-1.1,0.1C120.3,50.1,121.4,49.8,121.4,49.1 M120.3,121.4c0-0.6-1.1-0.9-1.2-0.2
		C119.1,122,120.2,122.2,120.3,121.4 M106.6,68.1c0.8,0.1,0.4-1.6-0.1-1.5C106.1,66.8,105.9,68.3,106.6,68.1 M105.2,130
		c0-0.6-1.1-0.9-1.1-0.1C104.1,130.6,105.1,130.9,105.2,130 M103.8,33.7c-0.3,0.9,0.5,1.2,0.9,0.8C105.3,33.8,104.4,33.3,103.8,33.7
		 M92.6,58.2c0.4,0.9,1.2,0.8,1.2,0C93.7,57.4,92.9,57.3,92.6,58.2 M25.7,60.4c1.7-1.4-2-2.6,0-1.1C25.3,59.7,25.3,59.8,25.7,60.4
		 M107.4,77.5c0.1-0.8,0.5-1.2-0.3-1.6C106.3,76.2,106.8,77.1,107.4,77.5 M105.6,79.6c0.3,0.7,0.3,0.7,0.8,0.5
		C106,78.2,103.9,78.8,105.6,79.6 M101.5,75.6c0.4-0.7-0.1-1.4-0.8-1C100.1,75.5,100.6,75.8,101.5,75.6 M31.7,33.7
		c0-1-0.8-0.8-1.3-0.6C30.2,33.5,31.6,35,31.7,33.7 M19,47c0.4-0.5,0-1.8-0.5-2.2C18.1,45.4,18.3,46.6,19,47 M97,51.1
		c0-0.7-1-1.2-1.3-0.4C95.6,51.5,96.3,52,97,51.1 M19.8,85.9c0.8-0.4,0.5-1.5-0.3-1.4C18.6,84.8,19.1,85.8,19.8,85.9 M18.6,85.7
		c0.4-0.8,0.3-1.3-0.4-1.7C17.3,84.3,17.8,85.6,18.6,85.7 M56.9,23.2c-0.7,0.2-1,1.3-0.1,1.5C57.6,24.7,57.7,23.7,56.9,23.2
		 M36.2,57.9c0-0.6,0.5-1.8-0.5-1.8C34.5,56.2,35.4,57.7,36.2,57.9 M39.2,33.7c-0.5-1.3-1.4-0.9-1.5,0.1c0.1,0.6,0.6,0.3,0.9,0.5
		C39.4,35.3,38.7,34.1,39.2,33.7 M35.3,90.5c0.6-0.9-0.1-2.1-1.1-1.3C33.5,89.8,34.7,90.4,35.3,90.5 M34.7,74.7
		c-0.8,0.2-0.8,1.6,0,1.9C35.9,77,35.4,75,34.7,74.7 M65.5,11.9c0-1.1-1.6-1.1-1.5,0.1C64.1,13,65.6,12.9,65.5,11.9 M29.6,51.3
		c0.5-0.6,0.9-1.2,0.3-2.1C29.1,49.9,27.7,51,29.6,51.3 M120.5,104.4c-1.1,0-0.9,1.6,0.1,1.6C121.6,106,121.6,104.3,120.5,104.4
		 M102.8,23.4c0.3,0.9,1.2,0.6,1.7,0C105.2,22.5,102.6,22,102.8,23.4 M126,104.7c0-1-1.5-1.3-1.6-0.2
		C124.3,105.7,126,106.1,126,104.7 M121.2,107.8c-1.1,0.1-0.9,1.8,0.1,1.8C122.5,109.6,122.4,107.7,121.2,107.8 M108,62.2
		c0.1,1.2,1.8,1.1,1.8-0.1C109.8,61,108,61.1,108,62.2 M37.3,68.7c1,1.6,3.6,1.3,2.2-0.7C38.5,67.1,38.3,68.6,37.3,68.7 M30.9,44.1
		c-2.3,1.4-1,6.3,1.7,3.6C36.4,48.1,32.8,43.8,30.9,44.1 M81.2,51.5c-5.1,2-1.7,4.4,2.2,3.1C86.6,53.3,83.2,50.7,81.2,51.5
		 M108.7,100.6c-3.4,0.4-5.2,5-1.9,6.8C112.3,109.9,113.8,101.3,108.7,100.6 M94.2,23.6c0.4-5.2-7.8-5-7.6,0.1
		C86.5,28.7,94.5,28.5,94.2,23.6 M21.6,47.2C21,44.3,19.4,48,21.6,47.2C22.1,50.6,24.6,45.7,21.6,47.2 M123,75.3
		c0,0.4,0.4,0.5,0.6,0.1C123.3,75.3,123.1,75.3,123,75.3C124,73.7,121.4,74.9,123,75.3 M112.8,126.3c0.1,0.1,0.3,0.2,0.4,0.3
		C113.5,126.2,113.1,126.1,112.8,126.3c0-0.5-0.3-0.8-0.9-0.8C112,126,112.4,126.1,112.8,126.3 M108.7,13.5
		c53.1,29.7,40.4,113.8-20.3,126.6c27.1-27.5-38.1-85.7-1.1-80.6c-1.6-1.6-3.8-2.5-5.9-3.2c0.3,0.2,1,0.8,1.3,1
		c-0.8,0.2-1.7-0.8-2.4-1c2.5-1.3,6.5,1.8,8.4,3.5c-0.5-0.9-2.6-5.3-3.6-3.5c-0.4-0.2-1.7-0.5-0.5-0.6c-1.5-1.8-5.6,1.2-6.7-1.7
		c-0.3-1.6,1.6-3.6,3.7-3.3c2.1-2.5-2.3-8.2-5.1-9.5C47.3,27.1,61.3,94.5,23.5,116c-0.4-0.7-1-0.3-0.4,0.2
		C-28.6,70.3,33.6-28,108.7,13.5"/>
	<path class="st1" d="M66.8,50.9c0.1,0.3,0.2,0.6,0.3,0.9c0.3-0.3,0.6-0.5,0.8-0.7C67.6,50.7,67.3,50.9,66.8,50.9 M67.2,50
		c4.1-0.1-0.1,6.2-1.2,1.6c-0.1-0.5-0.7-0.1-0.7,0.2c2.1,6,7.4-3.2,1.6-2.7C66.3,49.5,66.5,50.2,67.2,50 M64.8,52
		c-0.4-3,4-5.3,5.4-1.5C71.4,54.2,65.5,56.4,64.8,52"/>
	<path class="st1" d="M235,104.5c-1.3,0.9-2.3,1.3-3.5,1.3c-1.4,0-2.2-0.6-2.2-2.5v-9.1h5.5v-6.8h-5.5v-9.8l-8.4,3.4v6.4h-3.8v6.8
		h3.8v10.9c0,5.7,2.1,8,6.7,8c2.4,0,4.6-0.5,6.2-1.3L235,104.5L235,104.5z M214.2,88c-1-0.6-2.3-1.1-4.1-1.1c-2.2,0-3.9,0.9-5.4,2.3
		v-1.8h-8.6v25.2h8.6V98.9c0-3.1,1.3-4.1,3.4-4.1c1.7,0,2.9,0.9,4,2.1L214.2,88L214.2,88z M182.7,105.8c-0.8,0.7-2.3,1.2-3.7,1.2
		c-1.9,0-2.7-1.2-2.7-2.7c0-1.7,0.9-2.7,2.7-2.7c1.6,0,2.7,0.3,3.7,0.7V105.8z M190.9,112.7V96.3c0-5.9-3.1-9.4-10.1-9.4
		c-4.4,0-7.8,0.8-10.9,2.3l2.3,5.7c2.4-1.3,4.4-1.8,7-1.8c2.4,0,3.6,0.8,3.6,3v1.2c-1.4-0.6-2.9-1.1-5.2-1.1c-5.3,0-9.1,2.8-9.1,8.2
		s3.3,8.7,8.2,8.7c2.3,0,4.5-1,6.1-2.2v1.7L190.9,112.7L190.9,112.7z M164.6,107.7c0-3.2-2.4-5.4-5.5-5.4s-5.5,2.3-5.5,5.4
		s2.4,5.5,5.5,5.5S164.6,110.8,164.6,107.7"/>
	<path class="st2" d="M373.8,59.1h-7.2c0.3-2.5,1.4-3.8,3.4-3.8C372.5,55.3,373.4,56.6,373.8,59.1 M381.5,62.8
		c0-9.4-4.3-13.9-11.2-13.9s-11.5,4.5-11.5,13.2c0,7.7,4.2,13.1,11.8,13.1c3.9,0,7.1-1.1,10.3-2.9l-3.3-5.5
		c-2.5,1.3-4.3,1.8-6.5,1.8c-2.4,0-4-1.2-4.3-4h14.8C381.5,64.1,381.5,63.6,381.5,62.8 M357.1,49.4H348l-2.3,9.3
		c-0.5,2.1-1.2,5.1-1.6,7.5c-0.3-2.4-1-5.4-1.5-7.5l-2.3-9.3h-9.2l8.7,25.2h8.5L357.1,49.4L357.1,49.4z M321.1,62
		c0,4.2-1.1,6.1-3.4,6.1s-3.4-2-3.4-6.1s1.1-6.1,3.4-6.1S321.1,57.7,321.1,62 M329.7,62c0-8.8-5-13.1-12-13.1s-12,4.3-12,13.1
		s5,13.2,12,13.2S329.7,70.7,329.7,62 M292.7,66.9c-0.9,0.7-1.8,1.2-3,1.2c-1.8,0-2.8-1.2-2.8-6.2c0-4.7,1-5.8,2.7-5.8
		c1.3,0,2.2,0.5,3.1,1.2L292.7,66.9L292.7,66.9z M301.4,74.7v-35l-8.7,3.5v8c-1.4-1.1-3.1-2.2-5.6-2.2c-5.5,0-8.7,4.2-8.7,13.2
		s3.6,13.1,8.4,13.1c2.6,0,4.3-1,6-2.3v1.8L301.4,74.7L301.4,74.7z M267.3,59.2h-7.2c0.3-2.5,1.4-3.8,3.4-3.8
		C266,55.3,266.8,56.6,267.3,59.2 M274.9,62.9c0-9.4-4.3-13.9-11.2-13.9s-11.5,4.5-11.5,13.2c0,7.7,4.2,13.1,11.8,13.1
		c3.9,0,7.1-1.1,10.3-2.9l-3.3-5.5c-2.5,1.3-4.3,1.8-6.5,1.8c-2.4,0-4-1.2-4.3-4h14.8C274.9,64.1,274.9,63.6,274.9,62.9 M249.1,66.5
		c-1.3,0.9-2.3,1.3-3.5,1.3c-1.4,0-2.2-0.6-2.2-2.5v-9.1h5.5v-6.8h-5.5v-9.8l-8.4,3.4v6.4h-3.8v6.8h3.8v10.9c0,5.7,2.1,8,6.7,8
		c2.4,0,4.6-0.5,6.2-1.3L249.1,66.5L249.1,66.5z M226.9,49.5h-8.6v25.2h8.6C226.9,74.7,226.9,49.5,226.9,49.5z M227.7,43.4
		c0-2.5-2.1-4.2-5-4.2s-4.9,1.7-4.9,4.2c0,2.6,2.1,4.3,4.9,4.3C225.6,47.6,227.7,46,227.7,43.4 M212.9,74.7V59.3
		c0-6.6-2.6-10.3-8.2-10.3c-3,0-4.8,1-6.3,2.2V39.7l-8.6,3.5v31.5h8.6V60.3c0-3.2,1.1-4,2.9-4s2.9,0.9,2.9,4.1v14.3L212.9,74.7
		L212.9,74.7z M186.2,49.5H178l-0.7,3.7c-0.6,2.9-1.4,8.5-1.7,10.3c-0.3-1.8-1.3-7.3-2-10.4l-0.8-3.7h-7.1l-0.8,3.7
		c-0.6,3-1.6,8.5-2,10.4c-0.3-1.8-1.1-7.4-1.6-10.3l-0.7-3.7h-8.4l7.1,25.2h6.8l1.1-5c0.7-3,1.6-8.5,1.9-10.4
		c0.3,1.8,1.3,7.4,1.9,10.3l1.1,5.1h7L186.2,49.5L186.2,49.5z"/>
	<path class="st1" d="M359.7,113v-3.5c0-1.7-0.8-2.4-2-2.4c-0.7,0-1.3,0.3-1.6,0.8v-0.7h-0.8v5.8h0.8v-3.4c0-1.3,0.6-1.8,1.4-1.8
		c0.9,0,1.4,0.6,1.4,1.8v3.4L359.7,113L359.7,113z M352.4,110.1c0,1.5-0.7,2.3-1.7,2.3s-1.7-0.8-1.7-2.3s0.7-2.3,1.7-2.3
		S352.4,108.6,352.4,110.1 M353.2,110.1c0-2-1.1-3-2.5-3s-2.5,1.1-2.5,3s1.1,3,2.5,3S353.2,112.1,353.2,110.1 M346,107.2h-0.8v5.8
		h0.8V107.2z M346.2,105.6c0-0.3-0.3-0.6-0.6-0.6c-0.3,0-0.6,0.3-0.6,0.6s0.3,0.6,0.6,0.6C346,106.2,346.2,105.9,346.2,105.6
		 M343,107.9v-0.7h-1.4V105l-0.8,0.5v1.8h-0.7v0.7h0.7v3.9c0,1,0.4,1.3,1.1,1.3c0.4,0,0.8-0.1,1.1-0.2l0.1-0.7
		c-0.3,0.1-0.5,0.2-0.8,0.2c-0.4,0-0.6-0.2-0.6-0.7V108L343,107.9L343,107.9z M337.4,111.6c-0.4,0.5-0.9,0.9-1.7,0.9
		c-0.7,0-1.2-0.4-1.2-1.2c0-0.7,0.5-1.1,1.4-1.1c0.7,0,1.1,0.1,1.5,0.3L337.4,111.6L337.4,111.6z M338.2,113v-4c0-1.3-0.8-1.9-2-1.9
		c-0.8,0-1.4,0.2-1.9,0.5l0.3,0.7c0.5-0.3,1-0.4,1.6-0.4c0.9,0,1.2,0.4,1.2,1.3v0.7c-0.3-0.2-0.9-0.3-1.4-0.3
		c-1.1,0-2.2,0.6-2.2,1.8c0,1.4,1,1.8,1.9,1.8c0.8,0,1.4-0.4,1.8-0.8v0.7L338.2,113L338.2,113z M330.8,111.6
		c-0.4,0.5-0.9,0.8-1.5,0.8c-0.9,0-1.5-0.8-1.5-2.2c0-1.6,0.5-2.4,1.4-2.4c0.7,0,1.2,0.4,1.6,0.9V111.6z M331.7,113v-8l-0.8,0.5v2.4
		c-0.4-0.5-0.9-0.8-1.6-0.8c-1.2,0-2.2,1.1-2.2,3.1s0.9,2.9,2.1,2.9c0.8,0,1.3-0.4,1.7-0.8v0.7H331.7z M325,113v-3.5
		c0-1.7-0.8-2.4-2-2.4c-0.7,0-1.3,0.3-1.6,0.8v-0.7h-0.8v5.8h0.8v-3.4c0-1.3,0.6-1.8,1.4-1.8c0.9,0,1.4,0.6,1.4,1.8v3.4L325,113
		L325,113z M318.2,113v-5.8h-0.8v3.4c0,1.3-0.6,1.8-1.4,1.8c-0.9,0-1.4-0.6-1.4-1.8v-3.4h-0.8v3.5c0,1.7,0.8,2.4,2,2.4
		c0.7,0,1.3-0.3,1.6-0.8v0.7C317.4,113,318.2,113,318.2,113z M310.9,110.1c0,1.5-0.7,2.3-1.7,2.3s-1.7-0.8-1.7-2.3s0.7-2.3,1.7-2.3
		S310.9,108.6,310.9,110.1 M311.7,110.1c0-2-1.1-3-2.5-3s-2.5,1.1-2.5,3s1.1,3,2.5,3S311.7,112.1,311.7,110.1 M305.9,106.1v-0.8
		h-4.5v7.7h0.9v-3.6h2.1v-0.8h-2.1v-2.6H305.9z M294.9,109.4h-3.4c0.1-1.4,0.8-2.1,1.7-2.1C294.3,107.4,294.8,108.2,294.9,109.4
		 M295.7,109.7c0-1.8-0.9-3.1-2.5-3.1c-1.5,0-2.6,1.2-2.6,3.2c0,2.5,1.4,3.3,2.5,3.3c1,0,1.5-0.2,2.3-0.7l-0.4-0.7
		c-0.6,0.4-1,0.6-1.7,0.6c-1,0-1.7-0.8-1.8-2.2h4.2C295.7,110,295.7,109.9,295.7,109.7 M289.2,106.7c-0.2-0.1-0.5-0.2-1-0.2
		c-0.7,0-1.3,0.4-1.6,0.9v-0.8h-0.9v6.3h0.9v-3.7c0-1.2,0.5-1.9,1.4-1.9c0.4,0,0.7,0.1,1,0.2L289.2,106.7L289.2,106.7z M283.1,113
		v-6.3h-0.9v3.7c0,1.4-0.7,2-1.6,2c-1,0-1.5-0.6-1.5-2v-3.7h-0.9v3.8c0,1.8,0.9,2.6,2.2,2.6c0.8,0,1.4-0.4,1.7-0.9v0.8L283.1,113
		L283.1,113z M276.1,107.5v-0.8h-1.6v-2.4l-0.9,0.5v1.9h-0.8v0.8h0.8v4.2c0,1,0.4,1.4,1.2,1.4c0.5,0,0.8-0.1,1.2-0.2l0.1-0.8
		c-0.3,0.1-0.5,0.2-0.9,0.2c-0.5,0-0.6-0.2-0.6-0.8v-4.1L276.1,107.5L276.1,107.5z M270.7,113v-8.8l-0.9,0.5v8.2L270.7,113
		L270.7,113z M267.2,113v-6.3h-0.9v3.7c0,1.4-0.7,2-1.6,2c-1,0-1.5-0.6-1.5-2v-3.7h-0.9v3.8c0,1.8,0.9,2.6,2.2,2.6
		c0.8,0,1.4-0.4,1.7-0.9v0.8L267.2,113L267.2,113z M260.2,111.7l-0.6-0.6c-0.5,0.7-1.2,1.1-2.1,1.1c-1.4,0-2.5-1.4-2.5-3.5
		s1-3.5,2.5-3.5c0.9,0,1.4,0.3,2,1.1l0.7-0.6c-0.7-0.9-1.5-1.3-2.7-1.3c-2,0-3.4,1.8-3.4,4.3s1.3,4.3,3.4,4.3
		C258.7,113.1,259.6,112.6,260.2,111.7"/>
	<path class="st1" d="M350.9,97.1c-0.5,0.6-1,0.9-1.7,0.9c-1,0-1.6-0.8-1.6-2.4c0-1.7,0.5-2.6,1.6-2.6c0.7,0,1.4,0.4,1.7,0.9
		L350.9,97.1L350.9,97.1z M351.8,98.6v-8.8l-0.9,0.5V93c-0.5-0.5-1-0.8-1.8-0.8c-1.3,0-2.4,1.2-2.4,3.4s1,3.2,2.3,3.2
		c0.9,0,1.5-0.4,1.9-0.9v0.8L351.8,98.6L351.8,98.6z M344.5,98.6v-3.8c0-1.8-0.9-2.6-2.2-2.6c-0.8,0-1.4,0.4-1.7,0.9v-0.8h-0.9v6.3
		h0.9V95c0-1.4,0.7-2,1.6-2c1,0,1.5,0.6,1.5,2v3.7L344.5,98.6L344.5,98.6z M336.2,97.1c-0.4,0.5-1,0.9-1.8,0.9
		c-0.8,0-1.3-0.4-1.3-1.3c0-0.8,0.5-1.2,1.5-1.2c0.8,0,1.2,0.1,1.6,0.4L336.2,97.1L336.2,97.1z M337.1,98.6v-4.4c0-1.5-0.9-2-2.2-2
		c-0.8,0-1.6,0.2-2.1,0.5l0.3,0.7c0.5-0.3,1.1-0.5,1.7-0.5c0.9,0,1.4,0.5,1.4,1.4v0.7c-0.4-0.2-0.9-0.4-1.6-0.4
		c-1.2,0-2.4,0.6-2.4,2c0,1.5,1,2,2,2c0.9,0,1.5-0.4,2-0.9v0.8L337.1,98.6L337.1,98.6z M326.5,93.1v-0.8H325v-2.4l-0.9,0.5v1.9h-0.8
		v0.8h0.8v4.2c0,1,0.4,1.4,1.2,1.4c0.5,0,0.8-0.1,1.2-0.2l0.1-0.8c-0.3,0.1-0.5,0.2-0.9,0.2c-0.5,0-0.6-0.2-0.6-0.8v-4.1L326.5,93.1
		L326.5,93.1z M321.7,92.4c-0.2-0.1-0.5-0.2-1-0.2c-0.7,0-1.3,0.4-1.6,0.9v-0.8h-0.9v6.3h0.9v-3.7c0-1.2,0.5-1.9,1.4-1.9
		c0.4,0,0.7,0.1,1,0.2L321.7,92.4L321.7,92.4z M314,95.7h-2.9l0.9-2.7c0.2-0.6,0.4-1.3,0.5-1.7c0.1,0.3,0.3,1.1,0.5,1.7
		C313.1,92.9,314,95.7,314,95.7z M316,98.6l-2.9-8.4h-1l-2.9,8.4h1l0.7-2.1h3.5l0.7,2.1H316L316,98.6z M303.2,98.6v-3.8
		c0-1.8-0.9-2.6-2.2-2.6c-0.8,0-1.4,0.4-1.7,0.9v-0.8h-0.9v6.3h0.9V95c0-1.4,0.7-2,1.6-2c1,0,1.5,0.6,1.5,2v3.7L303.2,98.6
		L303.2,98.6z M294.9,97.1c-0.4,0.5-1,0.9-1.8,0.9c-0.8,0-1.3-0.4-1.3-1.3c0-0.8,0.5-1.2,1.5-1.2c0.8,0,1.2,0.1,1.6,0.4V97.1z
		 M295.8,98.6v-4.4c0-1.5-0.9-2-2.2-2c-0.8,0-1.6,0.2-2.1,0.5l0.3,0.7c0.5-0.3,1.1-0.5,1.7-0.5c0.9,0,1.4,0.5,1.4,1.4v0.7
		c-0.4-0.2-0.9-0.4-1.6-0.4c-1.2,0-2.4,0.6-2.4,2c0,1.5,1,2,2,2c0.9,0,1.5-0.4,2-0.9v0.8L295.8,98.6L295.8,98.6z M288.6,92.3h-0.9
		v6.3h0.9V92.3z M288.8,90.6c0-0.4-0.3-0.7-0.6-0.7c-0.4,0-0.7,0.3-0.7,0.7s0.3,0.6,0.7,0.6C288.5,91.2,288.8,90.9,288.8,90.6
		 M285.1,98.6v-3.8c0-1.8-0.9-2.6-2.2-2.6c-0.8,0-1.4,0.4-1.7,0.9v-0.8h-0.9v6.3h0.9V95c0-1.4,0.7-2,1.6-2c1,0,1.5,0.6,1.5,2v3.7
		L285.1,98.6L285.1,98.6z M277.1,95.5c0,1.7-0.7,2.5-1.8,2.5s-1.8-0.9-1.8-2.5s0.7-2.5,1.8-2.5S277.1,93.8,277.1,95.5 M278,95.5
		c0-2.1-1.2-3.2-2.7-3.2s-2.8,1.2-2.8,3.3s1.2,3.3,2.7,3.3S278,97.6,278,95.5 M270.8,93.1v-0.8h-1.6v-2.4l-0.9,0.5v1.9h-0.8v0.8h0.8
		v4.2c0,1,0.4,1.4,1.2,1.4c0.5,0,0.8-0.1,1.2-0.2l0.1-0.8c-0.3,0.1-0.5,0.2-0.9,0.2c-0.5,0-0.6-0.2-0.6-0.8v-4.1L270.8,93.1
		L270.8,93.1z M265.9,97c0-1.1-0.7-1.5-1.9-2c-1.1-0.5-1.4-0.7-1.4-1.2c0-0.5,0.4-0.8,1-0.8s1.1,0.2,1.6,0.6l0.5-0.7
		c-0.5-0.4-1.1-0.7-2-0.7c-1.1,0-2,0.7-2,1.6c0,1,0.5,1.4,1.8,1.9c1.1,0.5,1.5,0.8,1.5,1.3c0,0.6-0.4,1-1.3,1
		c-0.6,0-1.2-0.2-1.7-0.7l-0.5,0.7c0.6,0.5,1.4,0.8,2.2,0.8C264.8,98.8,265.9,98.2,265.9,97 M259.7,98.6v-0.8h-4.3v-3.2h2.4v-0.8
		h-2.4v-2.6h4.1v-0.8h-5.1v8.4L259.7,98.6L259.7,98.6z"/>
</g>
</svg>
