<svg width="45" height="53" viewBox="0 0 45 53" fill="none" xmlns="http://www.w3.org/2000/svg">
<mask id="path-1-outside-1_1_1943" maskUnits="userSpaceOnUse" x="-0.5" y="12.0209" width="46" height="41" fill="black">
<rect fill="white" x="-0.5" y="12.0209" width="46" height="41"/>
<path d="M16.0516 28.261C14.8619 29.0151 13.508 29.4715 12.1045 29.5914C11.6763 28.0268 10.2568 26.9401 8.63461 26.935H4.11538C2.11866 26.935 0.5 28.5537 0.5 30.5504V48.6273C0.5 50.6241 2.11866 52.2427 4.11538 52.2427H8.63461C10.271 52.2363 11.699 51.1315 12.1162 49.5493C12.8837 49.5896 13.6359 49.7793 14.3307 50.1078C14.6795 50.2732 15.0131 50.4694 15.3475 50.6628C15.8465 50.9671 16.3662 51.2359 16.903 51.4672C18.3025 52.0013 19.7907 52.2645 21.2885 52.2427H37.5577C38.8943 52.2421 40.1214 51.5041 40.7486 50.3238C41.3757 49.1435 41.3005 47.7135 40.553 46.6054C41.6126 46.2408 42.4419 45.4034 42.7963 44.3404C43.1506 43.2773 42.9896 42.1098 42.3607 41.1824C43.6894 40.7276 44.631 39.5401 44.771 38.1428C44.911 36.7455 44.2236 35.3948 43.0115 34.6855C43.5717 34.0392 43.8815 33.2134 43.8846 32.3581C43.8846 30.3614 42.266 28.7427 40.2692 28.7427H28.8518C30.2655 26.0511 32.8342 20.0342 30.3342 15.6577C29.2342 13.7353 26.9357 12.2313 24.4944 13.475C21.9474 14.7693 22.5177 17.3262 22.7925 18.5537C23.4929 21.7027 21.2252 24.9692 16.0516 28.261ZM8.63461 50.435H4.11538C3.11702 50.435 2.30769 49.6257 2.30769 48.6273V30.5504C2.30769 29.5521 3.11702 28.7427 4.11538 28.7427H8.63461C9.63298 28.7427 10.4423 29.5521 10.4423 30.5504V48.6273C10.4423 49.6257 9.63298 50.435 8.63461 50.435ZM24.5568 18.1605C24.1482 16.332 24.3317 15.5854 25.3142 15.0874C26.9086 14.274 28.2345 15.6297 28.7651 16.5562C31.4667 21.2869 26.5859 29.0844 26.5362 29.163C26.36 29.4413 26.3491 29.7934 26.5078 30.0821C26.6665 30.3707 26.9696 30.5501 27.299 30.5504H40.2692C41.2676 30.5504 42.0769 31.3598 42.0769 32.3581C42.0769 33.3565 41.2676 34.1658 40.2692 34.1658H34.8462C34.347 34.1658 33.9423 34.5705 33.9423 35.0697C33.9423 35.5688 34.347 35.9735 34.8462 35.9735H41.1731C42.1714 35.9735 42.9808 36.7828 42.9808 37.7812C42.9808 38.7796 42.1714 39.5889 41.1731 39.5889H34.8462C34.347 39.5889 33.9423 39.9935 33.9423 40.4927C33.9423 40.9919 34.347 41.3966 34.8462 41.3966H39.3654C40.3637 41.3966 41.1731 42.2059 41.1731 43.2043C41.1731 44.2026 40.3637 45.012 39.3654 45.012H34.8462C34.347 45.012 33.9423 45.4166 33.9423 45.9158C33.9423 46.415 34.347 46.8197 34.8462 46.8197H37.5577C38.5561 46.8197 39.3654 47.629 39.3654 48.6273C39.3654 49.6257 38.5561 50.435 37.5577 50.435H21.2885C20.0236 50.4571 18.7661 50.2387 17.5827 49.7915C17.1246 49.5917 16.681 49.3603 16.2549 49.0992C15.8789 48.8804 15.5011 48.6635 15.1098 48.4764C14.2118 48.054 13.2408 47.8085 12.25 47.7533V31.41C13.9482 31.2595 15.585 30.7014 17.0214 29.7831C22.9054 26.0429 25.4407 22.132 24.5568 18.1605Z"/>
</mask>
<path d="M16.0516 28.261C14.8619 29.0151 13.508 29.4715 12.1045 29.5914C11.6763 28.0268 10.2568 26.9401 8.63461 26.935H4.11538C2.11866 26.935 0.5 28.5537 0.5 30.5504V48.6273C0.5 50.6241 2.11866 52.2427 4.11538 52.2427H8.63461C10.271 52.2363 11.699 51.1315 12.1162 49.5493C12.8837 49.5896 13.6359 49.7793 14.3307 50.1078C14.6795 50.2732 15.0131 50.4694 15.3475 50.6628C15.8465 50.9671 16.3662 51.2359 16.903 51.4672C18.3025 52.0013 19.7907 52.2645 21.2885 52.2427H37.5577C38.8943 52.2421 40.1214 51.5041 40.7486 50.3238C41.3757 49.1435 41.3005 47.7135 40.553 46.6054C41.6126 46.2408 42.4419 45.4034 42.7963 44.3404C43.1506 43.2773 42.9896 42.1098 42.3607 41.1824C43.6894 40.7276 44.631 39.5401 44.771 38.1428C44.911 36.7455 44.2236 35.3948 43.0115 34.6855C43.5717 34.0392 43.8815 33.2134 43.8846 32.3581C43.8846 30.3614 42.266 28.7427 40.2692 28.7427H28.8518C30.2655 26.0511 32.8342 20.0342 30.3342 15.6577C29.2342 13.7353 26.9357 12.2313 24.4944 13.475C21.9474 14.7693 22.5177 17.3262 22.7925 18.5537C23.4929 21.7027 21.2252 24.9692 16.0516 28.261ZM8.63461 50.435H4.11538C3.11702 50.435 2.30769 49.6257 2.30769 48.6273V30.5504C2.30769 29.5521 3.11702 28.7427 4.11538 28.7427H8.63461C9.63298 28.7427 10.4423 29.5521 10.4423 30.5504V48.6273C10.4423 49.6257 9.63298 50.435 8.63461 50.435ZM24.5568 18.1605C24.1482 16.332 24.3317 15.5854 25.3142 15.0874C26.9086 14.274 28.2345 15.6297 28.7651 16.5562C31.4667 21.2869 26.5859 29.0844 26.5362 29.163C26.36 29.4413 26.3491 29.7934 26.5078 30.0821C26.6665 30.3707 26.9696 30.5501 27.299 30.5504H40.2692C41.2676 30.5504 42.0769 31.3598 42.0769 32.3581C42.0769 33.3565 41.2676 34.1658 40.2692 34.1658H34.8462C34.347 34.1658 33.9423 34.5705 33.9423 35.0697C33.9423 35.5688 34.347 35.9735 34.8462 35.9735H41.1731C42.1714 35.9735 42.9808 36.7828 42.9808 37.7812C42.9808 38.7796 42.1714 39.5889 41.1731 39.5889H34.8462C34.347 39.5889 33.9423 39.9935 33.9423 40.4927C33.9423 40.9919 34.347 41.3966 34.8462 41.3966H39.3654C40.3637 41.3966 41.1731 42.2059 41.1731 43.2043C41.1731 44.2026 40.3637 45.012 39.3654 45.012H34.8462C34.347 45.012 33.9423 45.4166 33.9423 45.9158C33.9423 46.415 34.347 46.8197 34.8462 46.8197H37.5577C38.5561 46.8197 39.3654 47.629 39.3654 48.6273C39.3654 49.6257 38.5561 50.435 37.5577 50.435H21.2885C20.0236 50.4571 18.7661 50.2387 17.5827 49.7915C17.1246 49.5917 16.681 49.3603 16.2549 49.0992C15.8789 48.8804 15.5011 48.6635 15.1098 48.4764C14.2118 48.054 13.2408 47.8085 12.25 47.7533V31.41C13.9482 31.2595 15.585 30.7014 17.0214 29.7831C22.9054 26.0429 25.4407 22.132 24.5568 18.1605Z" fill="#363531"/>
<path d="M16.0516 28.261C14.8619 29.0151 13.508 29.4715 12.1045 29.5914C11.6763 28.0268 10.2568 26.9401 8.63461 26.935H4.11538C2.11866 26.935 0.5 28.5537 0.5 30.5504V48.6273C0.5 50.6241 2.11866 52.2427 4.11538 52.2427H8.63461C10.271 52.2363 11.699 51.1315 12.1162 49.5493C12.8837 49.5896 13.6359 49.7793 14.3307 50.1078C14.6795 50.2732 15.0131 50.4694 15.3475 50.6628C15.8465 50.9671 16.3662 51.2359 16.903 51.4672C18.3025 52.0013 19.7907 52.2645 21.2885 52.2427H37.5577C38.8943 52.2421 40.1214 51.5041 40.7486 50.3238C41.3757 49.1435 41.3005 47.7135 40.553 46.6054C41.6126 46.2408 42.4419 45.4034 42.7963 44.3404C43.1506 43.2773 42.9896 42.1098 42.3607 41.1824C43.6894 40.7276 44.631 39.5401 44.771 38.1428C44.911 36.7455 44.2236 35.3948 43.0115 34.6855C43.5717 34.0392 43.8815 33.2134 43.8846 32.3581C43.8846 30.3614 42.266 28.7427 40.2692 28.7427H28.8518C30.2655 26.0511 32.8342 20.0342 30.3342 15.6577C29.2342 13.7353 26.9357 12.2313 24.4944 13.475C21.9474 14.7693 22.5177 17.3262 22.7925 18.5537C23.4929 21.7027 21.2252 24.9692 16.0516 28.261ZM8.63461 50.435H4.11538C3.11702 50.435 2.30769 49.6257 2.30769 48.6273V30.5504C2.30769 29.5521 3.11702 28.7427 4.11538 28.7427H8.63461C9.63298 28.7427 10.4423 29.5521 10.4423 30.5504V48.6273C10.4423 49.6257 9.63298 50.435 8.63461 50.435ZM24.5568 18.1605C24.1482 16.332 24.3317 15.5854 25.3142 15.0874C26.9086 14.274 28.2345 15.6297 28.7651 16.5562C31.4667 21.2869 26.5859 29.0844 26.5362 29.163C26.36 29.4413 26.3491 29.7934 26.5078 30.0821C26.6665 30.3707 26.9696 30.5501 27.299 30.5504H40.2692C41.2676 30.5504 42.0769 31.3598 42.0769 32.3581C42.0769 33.3565 41.2676 34.1658 40.2692 34.1658H34.8462C34.347 34.1658 33.9423 34.5705 33.9423 35.0697C33.9423 35.5688 34.347 35.9735 34.8462 35.9735H41.1731C42.1714 35.9735 42.9808 36.7828 42.9808 37.7812C42.9808 38.7796 42.1714 39.5889 41.1731 39.5889H34.8462C34.347 39.5889 33.9423 39.9935 33.9423 40.4927C33.9423 40.9919 34.347 41.3966 34.8462 41.3966H39.3654C40.3637 41.3966 41.1731 42.2059 41.1731 43.2043C41.1731 44.2026 40.3637 45.012 39.3654 45.012H34.8462C34.347 45.012 33.9423 45.4166 33.9423 45.9158C33.9423 46.415 34.347 46.8197 34.8462 46.8197H37.5577C38.5561 46.8197 39.3654 47.629 39.3654 48.6273C39.3654 49.6257 38.5561 50.435 37.5577 50.435H21.2885C20.0236 50.4571 18.7661 50.2387 17.5827 49.7915C17.1246 49.5917 16.681 49.3603 16.2549 49.0992C15.8789 48.8804 15.5011 48.6635 15.1098 48.4764C14.2118 48.054 13.2408 47.8085 12.25 47.7533V31.41C13.9482 31.2595 15.585 30.7014 17.0214 29.7831C22.9054 26.0429 25.4407 22.132 24.5568 18.1605Z" stroke="#363531" stroke-width="0.2" mask="url(#path-1-outside-1_1_1943)"/>
<mask id="path-2-outside-2_1_1943" maskUnits="userSpaceOnUse" x="38.1152" y="7.99991" width="3" height="5" fill="black">
<rect fill="white" x="38.1152" y="7.99991" width="3" height="5"/>
<path d="M40.0191 8.99991C39.5199 8.99991 39.1152 9.40457 39.1152 9.90375V11.7114C39.1152 12.2106 39.5199 12.6153 40.0191 12.6153C40.5183 12.6153 40.9229 12.2106 40.9229 11.7114V9.90375C40.9229 9.40457 40.5183 8.99991 40.0191 8.99991Z"/>
</mask>
<path d="M40.0191 8.99991C39.5199 8.99991 39.1152 9.40457 39.1152 9.90375V11.7114C39.1152 12.2106 39.5199 12.6153 40.0191 12.6153C40.5183 12.6153 40.9229 12.2106 40.9229 11.7114V9.90375C40.9229 9.40457 40.5183 8.99991 40.0191 8.99991Z" fill="#363531"/>
<path d="M40.0191 8.99991C39.5199 8.99991 39.1152 9.40457 39.1152 9.90375V11.7114C39.1152 12.2106 39.5199 12.6153 40.0191 12.6153C40.5183 12.6153 40.9229 12.2106 40.9229 11.7114V9.90375C40.9229 9.40457 40.5183 8.99991 40.0191 8.99991Z" stroke="#363531" stroke-width="0.2" mask="url(#path-2-outside-2_1_1943)"/>
<mask id="path-3-outside-3_1_1943" maskUnits="userSpaceOnUse" x="38.1152" y="13.4228" width="3" height="5" fill="black">
<rect fill="white" x="38.1152" y="13.4228" width="3" height="5"/>
<path d="M40.0191 18.0381C40.5183 18.0381 40.9229 17.6335 40.9229 17.1343V15.3266C40.9229 14.8274 40.5183 14.4228 40.0191 14.4228C39.5199 14.4228 39.1152 14.8274 39.1152 15.3266V17.1343C39.1152 17.6335 39.5199 18.0381 40.0191 18.0381Z"/>
</mask>
<path d="M40.0191 18.0381C40.5183 18.0381 40.9229 17.6335 40.9229 17.1343V15.3266C40.9229 14.8274 40.5183 14.4228 40.0191 14.4228C39.5199 14.4228 39.1152 14.8274 39.1152 15.3266V17.1343C39.1152 17.6335 39.5199 18.0381 40.0191 18.0381Z" fill="#363531"/>
<path d="M40.0191 18.0381C40.5183 18.0381 40.9229 17.6335 40.9229 17.1343V15.3266C40.9229 14.8274 40.5183 14.4228 40.0191 14.4228C39.5199 14.4228 39.1152 14.8274 39.1152 15.3266V17.1343C39.1152 17.6335 39.5199 18.0381 40.0191 18.0381Z" stroke="#363531" stroke-width="0.2" mask="url(#path-3-outside-3_1_1943)"/>
<mask id="path-4-outside-4_1_1943" maskUnits="userSpaceOnUse" x="39.9238" y="11.6151" width="5" height="3" fill="black">
<rect fill="white" x="39.9238" y="11.6151" width="5" height="3"/>
<path d="M41.8277 14.4228H43.6354C44.1345 14.4228 44.5392 14.0182 44.5392 13.519C44.5392 13.0198 44.1345 12.6151 43.6354 12.6151H41.8277C41.3285 12.6151 40.9238 13.0198 40.9238 13.519C40.9238 14.0182 41.3285 14.4228 41.8277 14.4228Z"/>
</mask>
<path d="M41.8277 14.4228H43.6354C44.1345 14.4228 44.5392 14.0182 44.5392 13.519C44.5392 13.0198 44.1345 12.6151 43.6354 12.6151H41.8277C41.3285 12.6151 40.9238 13.0198 40.9238 13.519C40.9238 14.0182 41.3285 14.4228 41.8277 14.4228Z" fill="#363531"/>
<path d="M41.8277 14.4228H43.6354C44.1345 14.4228 44.5392 14.0182 44.5392 13.519C44.5392 13.0198 44.1345 12.6151 43.6354 12.6151H41.8277C41.3285 12.6151 40.9238 13.0198 40.9238 13.519C40.9238 14.0182 41.3285 14.4228 41.8277 14.4228Z" stroke="#363531" stroke-width="0.2" mask="url(#path-4-outside-4_1_1943)"/>
<mask id="path-5-outside-5_1_1943" maskUnits="userSpaceOnUse" x="34.5" y="11.6151" width="5" height="3" fill="black">
<rect fill="white" x="34.5" y="11.6151" width="5" height="3"/>
<path d="M38.2115 14.4228C38.7107 14.4228 39.1154 14.0182 39.1154 13.519C39.1154 13.0198 38.7107 12.6151 38.2115 12.6151H36.4038C35.9047 12.6151 35.5 13.0198 35.5 13.519C35.5 14.0182 35.9047 14.4228 36.4038 14.4228H38.2115Z"/>
</mask>
<path d="M38.2115 14.4228C38.7107 14.4228 39.1154 14.0182 39.1154 13.519C39.1154 13.0198 38.7107 12.6151 38.2115 12.6151H36.4038C35.9047 12.6151 35.5 13.0198 35.5 13.519C35.5 14.0182 35.9047 14.4228 36.4038 14.4228H38.2115Z" fill="#363531"/>
<path d="M38.2115 14.4228C38.7107 14.4228 39.1154 14.0182 39.1154 13.519C39.1154 13.0198 38.7107 12.6151 38.2115 12.6151H36.4038C35.9047 12.6151 35.5 13.0198 35.5 13.519C35.5 14.0182 35.9047 14.4228 36.4038 14.4228H38.2115Z" stroke="#363531" stroke-width="0.2" mask="url(#path-5-outside-5_1_1943)"/>
<mask id="path-6-outside-6_1_1943" maskUnits="userSpaceOnUse" x="18.9219" y="3.78018" width="5" height="5" fill="black">
<rect fill="white" x="18.9219" y="3.78018" width="5" height="5"/>
<path d="M20.1978 6.33418L21.5536 7.68995C21.9082 8.03248 22.472 8.02758 22.8206 7.67894C23.1693 7.33029 23.1742 6.76656 22.8316 6.41191L21.4759 5.05614C21.2489 4.82118 20.9129 4.72695 20.5969 4.80966C20.2809 4.89238 20.0341 5.13917 19.9514 5.45518C19.8686 5.77119 19.9629 6.10724 20.1978 6.33418Z"/>
</mask>
<path d="M20.1978 6.33418L21.5536 7.68995C21.9082 8.03248 22.472 8.02758 22.8206 7.67894C23.1693 7.33029 23.1742 6.76656 22.8316 6.41191L21.4759 5.05614C21.2489 4.82118 20.9129 4.72695 20.5969 4.80966C20.2809 4.89238 20.0341 5.13917 19.9514 5.45518C19.8686 5.77119 19.9629 6.10724 20.1978 6.33418Z" fill="#363531"/>
<path d="M20.1978 6.33418L21.5536 7.68995C21.9082 8.03248 22.472 8.02758 22.8206 7.67894C23.1693 7.33029 23.1742 6.76656 22.8316 6.41191L21.4759 5.05614C21.2489 4.82118 20.9129 4.72695 20.5969 4.80966C20.2809 4.89238 20.0341 5.13917 19.9514 5.45518C19.8686 5.77119 19.9629 6.10724 20.1978 6.33418Z" stroke="#363531" stroke-width="0.2" mask="url(#path-6-outside-6_1_1943)"/>
<mask id="path-7-outside-7_1_1943" maskUnits="userSpaceOnUse" x="14.877" y="-0.265228" width="5" height="5" fill="black">
<rect fill="white" x="14.877" y="-0.265228" width="5" height="5"/>
<path d="M17.4864 3.6223C17.8411 3.96483 18.4048 3.95993 18.7535 3.61129C19.1021 3.26265 19.107 2.69891 18.7645 2.34426L17.4087 0.988492C17.0541 0.64596 16.4903 0.650858 16.1417 0.999502C15.793 1.34815 15.7881 1.91188 16.1307 2.26653L17.4864 3.6223Z"/>
</mask>
<path d="M17.4864 3.6223C17.8411 3.96483 18.4048 3.95993 18.7535 3.61129C19.1021 3.26265 19.107 2.69891 18.7645 2.34426L17.4087 0.988492C17.0541 0.64596 16.4903 0.650858 16.1417 0.999502C15.793 1.34815 15.7881 1.91188 16.1307 2.26653L17.4864 3.6223Z" fill="#363531"/>
<path d="M17.4864 3.6223C17.8411 3.96483 18.4048 3.95993 18.7535 3.61129C19.1021 3.26265 19.107 2.69891 18.7645 2.34426L17.4087 0.988492C17.0541 0.64596 16.4903 0.650858 16.1417 0.999502C15.793 1.34815 15.7881 1.91188 16.1307 2.26653L17.4864 3.6223Z" stroke="#363531" stroke-width="0.2" mask="url(#path-7-outside-7_1_1943)"/>
<mask id="path-8-outside-8_1_1943" maskUnits="userSpaceOnUse" x="14.8652" y="3.78018" width="5" height="5" fill="black">
<rect fill="white" x="14.8652" y="3.78018" width="5" height="5"/>
<path d="M16.1299 7.68995C16.4828 8.04279 17.055 8.04279 17.4079 7.68995L18.7637 6.33418C18.9986 6.10724 19.0929 5.77119 19.0102 5.45518C18.9274 5.13917 18.6806 4.89238 18.3646 4.80966C18.0486 4.72695 17.7126 4.82118 17.4856 5.05614L16.1299 6.41191C15.777 6.76486 15.777 7.33699 16.1299 7.68995Z"/>
</mask>
<path d="M16.1299 7.68995C16.4828 8.04279 17.055 8.04279 17.4079 7.68995L18.7637 6.33418C18.9986 6.10724 19.0929 5.77119 19.0102 5.45518C18.9274 5.13917 18.6806 4.89238 18.3646 4.80966C18.0486 4.72695 17.7126 4.82118 17.4856 5.05614L16.1299 6.41191C15.777 6.76486 15.777 7.33699 16.1299 7.68995Z" fill="#363531"/>
<path d="M16.1299 7.68995C16.4828 8.04279 17.055 8.04279 17.4079 7.68995L18.7637 6.33418C18.9986 6.10724 19.0929 5.77119 19.0102 5.45518C18.9274 5.13917 18.6806 4.89238 18.3646 4.80966C18.0486 4.72695 17.7126 4.82118 17.4856 5.05614L16.1299 6.41191C15.777 6.76486 15.777 7.33699 16.1299 7.68995Z" stroke="#363531" stroke-width="0.2" mask="url(#path-8-outside-8_1_1943)"/>
<mask id="path-9-outside-9_1_1943" maskUnits="userSpaceOnUse" x="18.9336" y="-0.287201" width="5" height="5" fill="black">
<rect fill="white" x="18.9336" y="-0.287201" width="5" height="5"/>
<path d="M20.8373 3.88739C21.077 3.88734 21.3068 3.79208 21.4763 3.62256L22.8321 2.26679C23.067 2.03986 23.1613 1.70381 23.0785 1.3878C22.9958 1.07179 22.749 0.824995 22.433 0.742279C22.117 0.659563 21.781 0.753795 21.554 0.988755L20.1983 2.34452C19.9398 2.60302 19.8625 2.99171 20.0024 3.3294C20.1423 3.6671 20.4718 3.88731 20.8373 3.88739Z"/>
</mask>
<path d="M20.8373 3.88739C21.077 3.88734 21.3068 3.79208 21.4763 3.62256L22.8321 2.26679C23.067 2.03986 23.1613 1.70381 23.0785 1.3878C22.9958 1.07179 22.749 0.824995 22.433 0.742279C22.117 0.659563 21.781 0.753795 21.554 0.988755L20.1983 2.34452C19.9398 2.60302 19.8625 2.99171 20.0024 3.3294C20.1423 3.6671 20.4718 3.88731 20.8373 3.88739Z" fill="#363531"/>
<path d="M20.8373 3.88739C21.077 3.88734 21.3068 3.79208 21.4763 3.62256L22.8321 2.26679C23.067 2.03986 23.1613 1.70381 23.0785 1.3878C22.9958 1.07179 22.749 0.824995 22.433 0.742279C22.117 0.659563 21.781 0.753795 21.554 0.988755L20.1983 2.34452C19.9398 2.60302 19.8625 2.99171 20.0024 3.3294C20.1423 3.6671 20.4718 3.88731 20.8373 3.88739Z" stroke="#363531" stroke-width="0.2" mask="url(#path-9-outside-9_1_1943)"/>
</svg>
