<svg width="10" height="9" viewBox="0 0 10 9" fill="none" xmlns="http://www.w3.org/2000/svg">
<path d="M0.5 9V6.875L7.1 0.2875C7.2 0.195833 7.31042 0.125 7.43125 0.075C7.55208 0.025 7.67917 0 7.8125 0C7.94583 0 8.075 0.025 8.2 0.075C8.325 0.125 8.43333 0.2 8.525 0.3L9.2125 1C9.3125 1.09167 9.38542 1.2 9.43125 1.325C9.47708 1.45 9.5 1.575 9.5 1.7C9.5 1.83333 9.47708 1.96042 9.43125 2.08125C9.38542 2.20208 9.3125 2.3125 9.2125 2.4125L2.625 9H0.5ZM7.8 2.4L8.5 1.7L7.8 1L7.1 1.7L7.8 2.4Z" fill="#363531"/>
</svg>
