<svg width="56" height="55" viewBox="0 0 56 55" fill="none" xmlns="http://www.w3.org/2000/svg">
<g clip-path="url(#clip0_524_2388)">
<path d="M55.5984 21.3988L49.5729 16.5606V7.58583C49.5729 5.77225 48.0707 4.29688 46.2238 4.29688H37.4062C36.8021 4.29688 36.3125 4.77776 36.3125 5.37109C36.3125 5.96443 36.8021 6.44531 37.4062 6.44531H46.2238C46.8642 6.44531 47.3854 6.95724 47.3854 7.58583V26.6524L33.0312 37.3711L18.6771 26.6524V17.0746V7.58583C18.6771 6.95724 19.1983 6.44531 19.8387 6.44531H42.6562C43.2604 6.44531 43.75 5.96443 43.75 5.37109C43.75 4.77776 43.2604 4.29688 42.6562 4.29688H19.8387C17.9918 4.29688 16.4896 5.77225 16.4896 7.58583V16.5606L10.4641 21.3988C10.2099 21.6027 10.0625 21.9082 10.0625 22.2305V34.1564H5.14062C4.5365 34.1564 4.04688 34.6373 4.04688 35.2306C4.04688 35.8235 4.5365 36.3048 5.14062 36.3048H10.0625V47.4142C10.0625 49.2278 11.5647 50.7031 13.4113 50.7031H52.6512C54.4978 50.7031 56 49.2278 56 47.4142V22.2305C56 21.9082 55.8526 21.6027 55.5984 21.3988ZM53.8125 46.9257L40.8712 34.2155L53.8125 24.5522V46.9257ZM49.5729 19.3355L53.2404 22.2804L49.5729 25.0188V19.3355ZM33.0312 39.7948C33.2645 39.7948 33.4978 39.7218 33.6935 39.5757L39.114 35.5281L52.3774 48.5547H13.6851L26.9485 35.5281L32.3694 39.5757C32.5647 39.7218 32.798 39.7948 33.0312 39.7948ZM12.25 24.5522L25.1913 34.2155L12.25 46.9257V24.5522ZM16.4896 25.0188L12.8221 22.2804L16.4896 19.3355V25.0188Z" fill="#363531"/>
<path d="M7 41.0314H1.09375C0.489624 41.0314 0 41.5123 0 42.1056C0 42.6985 0.489624 43.1798 1.09375 43.1798H7C7.60413 43.1798 8.09375 42.6985 8.09375 42.1056C8.09375 41.5123 7.60413 41.0314 7 41.0314Z" fill="#363531"/>
<path d="M24.1573 19.8722C24.1573 24.6781 28.138 28.5881 33.0312 28.5881C37.9245 28.5881 41.9052 24.6781 41.9052 19.8722C41.9052 15.0663 37.9245 11.1568 33.0312 11.1568C28.138 11.1568 24.1573 15.0663 24.1573 19.8722ZM39.7177 19.8722C39.7177 23.4935 36.7184 26.4396 33.0312 26.4396C29.3441 26.4396 26.3448 23.4935 26.3448 19.8722C26.3448 16.2509 29.3441 13.3052 33.0312 13.3052C36.7184 13.3052 39.7177 16.2513 39.7177 19.8722Z" fill="#363531"/>
<path d="M31.3274 18.8802C30.9001 18.4606 30.208 18.4606 29.7808 18.8802C29.3535 19.2994 29.3535 19.9796 29.7808 20.3993L31.7115 22.2955C31.9251 22.5053 32.205 22.6102 32.4848 22.6102C32.7646 22.6102 33.0445 22.5053 33.2581 22.2955L36.6462 18.9679C37.073 18.5487 37.073 17.8685 36.6462 17.4489C36.2189 17.0293 35.5264 17.0293 35.0991 17.4489L32.4848 20.0166L31.3274 18.8802Z" fill="#363531"/>
</g>
<defs>
<clipPath id="clip0_524_2388">
<rect width="56" height="55" fill="white"/>
</clipPath>
</defs>
</svg>
