<svg width="64" height="64" viewBox="0 0 64 64" fill="none" xmlns="http://www.w3.org/2000/svg">
<g clip-path="url(#clip0_1_176)" fill="none">
<path d="M13.5761 2.00393C13.5436 2.08836 13.5391 2.1956 13.5999 2.32664L13.7034 2.04506L13.8057 1.76308M13.5761 2.00393L20.722 4.28027L15.9623 2.54793L14.3965 1.97803L13.959 1.81883L13.8444 1.77712L13.8154 1.76655L13.8082 1.76392L13.8069 1.76348L13.8064 1.76327L13.8058 1.76306C13.8058 1.76306 13.8058 1.76306 13.8057 1.76308M13.5761 2.00393C13.6382 1.84246 13.8023 1.76446 13.8057 1.76308M13.5761 2.00393L26.5619 26.0847C26.5302 33.4642 20.5181 39.4575 13.1313 39.4575C5.74685 39.4575 -0.263743 33.468 -0.29911 26.0916C-0.308971 25.7737 -0.236943 25.385 -0.0674898 25.0482L-0.0674505 25.0482L11.1217 2.82939L11.3897 2.96431L11.1218 2.82937C11.6176 1.84465 12.7758 1.38941 13.8057 1.76304L13.8057 1.76308M63.5314 39.2045L63.5315 39.2046C63.6428 39.4254 63.7079 39.706 63.6993 39.9626L63.6992 39.9626L63.6991 39.9713C63.6675 47.0177 57.9255 52.7411 50.8718 52.7411C43.8183 52.7411 38.0763 47.018 38.0445 39.9718H38.0446L38.0443 39.9634C38.0369 39.7374 38.0896 39.4477 38.2119 39.2048L48.5133 18.7428L48.665 18.4414L48.3479 18.326L36.3551 13.961L36.1612 13.8904L36.026 14.0462C35.4042 14.7621 34.6354 15.2779 33.7753 15.5802L33.5747 15.6507V15.8633V50.531V50.831H33.8747H34.2075C39.369 50.831 43.5686 55.0305 43.5686 60.192C43.5686 61.0618 42.8634 61.7669 41.9936 61.7669H22.0062C21.1363 61.7669 20.4312 61.0618 20.4312 60.192C20.4312 55.0305 24.6308 50.831 29.7923 50.831H30.125H30.425V50.531V15.8631V15.6506L30.2244 15.5801C29.4959 15.3241 28.8122 14.9057 28.2303 14.3238L28.2303 14.3237C27.2436 13.3372 26.6932 12.0333 26.671 10.6414L26.6677 10.4349L26.4736 10.3642L16.999 6.91576L16.2833 6.65524L16.6291 7.33388L25.7908 25.3111C25.9121 25.5492 25.9691 25.8382 25.962 26.0706L25.9619 26.0706L25.9619 26.0785C25.9336 33.1295 20.1887 38.8575 13.1313 38.8575C6.07598 38.8575 0.332498 33.1329 0.300864 26.0847H0.300991L0.300699 26.076C0.293139 25.8506 0.346471 25.5604 0.468434 25.318C0.468447 25.318 0.46846 25.318 0.468473 25.3179L11.6576 3.09924L11.6576 3.09923C12.0163 2.38697 12.8558 2.05671 13.6011 2.32708L13.704 2.04528C13.7095 2.04727 13.7525 2.06291 13.829 2.09075C13.765 2.25068 13.6014 2.32718 13.6012 2.32711L13.6014 2.32719L13.6031 2.32779L13.6102 2.33039L13.6393 2.34095L13.7538 2.38265L14.1913 2.54185L15.7571 3.11175L20.5168 4.84408L25.2831 6.57885L26.8573 7.1518L27.3002 7.31299L27.4178 7.35579L27.4484 7.36694L27.4564 7.36984L27.4591 7.37083L27.6637 7.44557L27.7981 7.27413C31.0018 3.18739 37.5015 5.6322 37.324 10.7409L37.3165 10.9587L37.5212 11.0332L51.3983 16.084L51.3997 16.0845C51.7819 16.2215 52.0958 16.5025 52.2752 16.8586L63.5314 39.2045ZM13.3416 7.82032L13.0727 7.29271L12.8064 7.8216L4.65066 24.0164L4.43162 24.4513H4.9186H21.3275H21.8171L21.5948 24.0151L13.3416 7.82032ZM3.93835 27.6013H3.57111L3.64438 27.9612C4.54323 32.3755 8.45469 35.7076 13.1313 35.7076C17.8079 35.7076 21.7194 32.3755 22.6182 27.9612L22.6915 27.6013H22.3243H3.93835ZM39.814 58.617H40.231L40.0984 58.2216C39.273 55.7602 36.9449 53.981 34.2076 53.981H29.7924C27.0551 53.981 24.727 55.7602 23.9016 58.2216L23.769 58.617H24.186H39.814ZM51.1371 21.6009L50.8691 21.0689L50.6012 21.601L42.3939 37.9031L42.1749 38.338H42.6618H59.0809H59.5679L59.3488 37.9031L51.1371 21.6009ZM41.682 41.4882H41.3147L41.388 41.848C42.287 46.2605 46.197 49.5912 50.8718 49.5912C55.5466 49.5912 59.4566 46.2604 60.3555 41.848L60.4288 41.4882H60.0615H41.682ZM30.4576 9.01165C29.607 9.8623 29.607 11.2457 30.4576 12.0964C31.8228 13.4616 34.1812 12.4945 34.1812 10.554C34.1812 8.61437 31.8235 7.64576 30.4576 9.01165Z" fill="#363531" stroke="#FEEDD9" stroke-width="0.6"/>
</g>
<defs>
<clipPath id="clip0_1_176">
<rect width="64" height="64" fill="white"/>
</clipPath>
</defs>
</svg>
