<svg width="56" height="64" viewBox="0 0 56 64" fill="none" xmlns="http://www.w3.org/2000/svg">
<path d="M7.45676 12.1816C5.75656 12.2763 4.4048 13.6794 4.37939 15.3782L4.37939 15.3783C4.36868 16.1242 4.34921 16.8023 4.32004 17.4493L4.31999 17.4493L4.31986 17.4547L4.31888 17.4967L4.31886 17.4978L4.31849 17.5173C4.17469 25.0669 4.01065 33.679 6.90649 41.5367C10.2294 50.5534 17.0248 56.7323 27.6344 60.4318L27.6358 60.4323C27.6839 60.4487 27.7344 60.4622 27.7853 60.4725L27.786 60.4727C27.9284 60.501 28.0723 60.5011 28.2133 60.4733L28.214 60.4731C28.2675 60.4624 28.318 60.4482 28.3641 60.4326L28.3666 60.4317C38.965 56.7253 45.7558 50.543 49.0811 41.5269C51.9877 33.646 51.8248 25.019 51.6814 17.4558L51.6815 17.4558L51.6812 17.4492C51.6521 16.8066 51.6326 16.1285 51.6214 15.3787C51.5965 13.6794 50.2447 12.2763 48.5445 12.1816C44.4047 11.9506 40.7753 11.1512 37.444 9.74107C34.1179 8.33299 31.1621 6.34798 28.4071 3.66902L28.4011 3.66322L28.3948 3.65784C28.1602 3.45826 27.8403 3.45997 27.6067 3.65724L27.6 3.66291L27.5937 3.66904C24.8391 6.34798 21.8834 8.33299 18.5568 9.74106L18.6542 9.97129L18.5568 9.74106C15.2255 11.1512 11.5961 11.9506 7.45676 12.1816ZM7.45676 12.1816L7.47066 12.4312L7.45676 12.1816ZM54.8763 15.33L54.8763 15.3301C54.8876 16.0553 54.9062 16.708 54.9341 17.3254C54.9341 17.3257 54.9341 17.326 54.9342 17.3263L54.9359 17.3696C54.9359 17.3704 54.9359 17.3713 54.936 17.3722C55.0787 24.8966 55.2519 34.204 52.1354 42.6532C50.4285 47.282 47.8468 51.3028 44.4634 54.6072C40.6109 58.3696 35.5591 61.365 29.4408 63.5047C29.2507 63.5711 29.0524 63.6252 28.8516 63.6655C28.5694 63.7218 28.2846 63.7499 28.0004 63.7499C27.7163 63.7499 27.4319 63.7218 27.1491 63.6655C26.9482 63.6252 26.7513 63.5716 26.5622 63.5056L26.4799 63.7416L26.5622 63.5056C20.4367 61.3698 15.3795 58.3758 11.5237 54.613C8.13882 51.3095 5.55719 47.2898 3.85173 42.6621L3.61716 42.7485L3.85173 42.6621C0.746688 34.2375 0.920678 24.9469 1.06388 17.4363C1.06389 17.436 1.06389 17.4358 1.0639 17.4355L1.06673 17.3238C1.09463 16.7026 1.1137 16.0505 1.12446 15.3305L1.12446 15.3304C1.17476 11.9327 3.87705 9.12084 7.27511 8.93135L7.27514 8.93135C14.6878 8.51719 20.4386 6.09641 25.3492 1.31047C25.3495 1.31015 25.3499 1.30984 25.3502 1.30952L25.3879 1.27364C26.8786 -0.0912341 29.1227 -0.0911922 30.6129 1.27364L30.6506 1.30952C30.6509 1.30984 30.6512 1.31015 30.6516 1.31047C35.5622 6.09641 41.313 8.51719 48.7256 8.93086C52.1242 9.12082 54.826 11.9327 54.8763 15.33ZM55.1839 17.315C55.1561 16.7003 55.1375 16.0499 55.1263 15.3263L55.1839 17.315ZM7.26119 8.68174C3.73239 8.87852 0.926734 11.7975 0.874489 15.3267L25.1757 1.13049C20.3119 5.8712 14.6196 8.27061 7.26119 8.68174Z" fill="#363531" stroke="#DFEFD5" stroke-width="0.5"/>
<path d="M12.2998 32.0009C12.2998 23.3446 19.3426 16.3013 27.9995 16.3013C36.6558 16.3013 43.6991 23.3446 43.6991 32.0009C43.6991 40.6578 36.6558 47.7011 27.9995 47.7011C19.3427 47.7011 12.2998 40.6578 12.2998 32.0009ZM15.5552 32.0009C15.5552 38.8631 21.1373 44.4452 27.9995 44.4452C34.8612 44.4452 40.4433 38.8631 40.4433 32.0009C40.4433 25.1388 34.8612 19.5566 27.9995 19.5566C21.1373 19.5566 15.5552 25.1388 15.5552 32.0009Z" fill="#363531" stroke="#DFEFD5" stroke-width="0.5"/>
<path d="M32.7601 27.2262L32.7602 27.2262C33.3959 26.59 34.4265 26.59 35.0623 27.2262L35.0623 27.2262C35.6976 27.8615 35.6976 28.8922 35.0623 29.528L26.326 38.2642C26.0081 38.5821 25.5921 38.7408 25.1752 38.7408C24.7582 38.7408 24.3422 38.5821 24.0243 38.2642L20.6854 34.9254C20.0502 34.2901 20.0501 33.2595 20.6854 32.6237C21.3212 31.9879 22.3519 31.9879 22.9876 32.6237L24.9984 34.6344L25.1752 34.8112L25.3519 34.6344L32.7601 27.2262Z" fill="#363531" stroke="#DFEFD5" stroke-width="0.5"/>
</svg>
