<svg width="56" height="64" viewBox="0 0 56 64" fill="none" xmlns="http://www.w3.org/2000/svg">
<mask id="path-1-inside-1_1_183" fill="white">
<path d="M55.186 17.3648L55.184 17.315C55.1562 16.7003 55.1376 16.0499 55.1264 15.3263C55.0742 11.7975 52.269 8.87852 48.7397 8.68125C41.3813 8.27061 35.689 5.8712 30.8252 1.13049L30.7837 1.09094C29.1973 -0.363646 26.8042 -0.363646 25.2173 1.09094L25.1758 1.13049C20.3121 5.8712 14.6197 8.27061 7.26131 8.68174C3.73251 8.87852 0.926857 11.7975 0.874611 15.3267C0.863868 16.0455 0.844826 16.6959 0.816994 17.315L0.814064 17.4307C0.670998 24.9341 0.493264 34.2725 3.61728 42.7485C5.33505 47.4097 7.9366 51.4614 11.3492 54.792C15.2359 58.5849 20.3267 61.5961 26.48 63.7416C26.6802 63.8115 26.8882 63.8681 27.1001 63.9106C27.3989 63.9702 27.6997 63.9999 28.0005 63.9999C28.3013 63.9999 28.6026 63.9702 28.9009 63.9106C29.1128 63.8681 29.3223 63.811 29.5235 63.7407C35.6694 61.5913 40.7549 58.5786 44.6382 54.7861C48.0493 51.4546 50.6508 47.4018 52.3701 42.7397C55.5058 34.2383 55.3286 24.8824 55.186 17.3648ZM48.8466 41.4404C45.5517 50.374 38.8257 56.5092 28.2842 60.1958C28.2466 60.2085 28.2066 60.2197 28.1651 60.228C28.0562 60.2495 27.9453 60.2495 27.835 60.2275C27.794 60.2192 27.7539 60.2085 27.7168 60.1958C17.1641 56.5161 10.4337 50.3843 7.14119 41.4502C4.26181 33.6372 4.42489 25.065 4.56894 17.5025L4.56991 17.4605C4.59921 16.8106 4.61874 16.13 4.62948 15.3819C4.65292 13.815 5.90096 12.5186 7.47078 12.4312C11.6348 12.1988 15.293 11.3941 18.6543 9.97129C22.0113 8.55039 24.9927 6.54747 27.7681 3.84826C27.9092 3.72912 28.0923 3.72863 28.2329 3.84826C31.0088 6.54747 33.9902 8.55039 37.3467 9.97129C40.708 11.3941 44.3662 12.1988 48.5307 12.4312C50.1005 12.5186 51.3486 13.815 51.3715 15.3824C51.3828 16.1344 51.4023 16.815 51.4316 17.4605C51.5751 25.0318 51.7343 33.6109 48.8466 41.4404Z"/>
</mask>
<path d="M55.186 17.3648L55.184 17.315C55.1562 16.7003 55.1376 16.0499 55.1264 15.3263C55.0742 11.7975 52.269 8.87852 48.7397 8.68125C41.3813 8.27061 35.689 5.8712 30.8252 1.13049L30.7837 1.09094C29.1973 -0.363646 26.8042 -0.363646 25.2173 1.09094L25.1758 1.13049C20.3121 5.8712 14.6197 8.27061 7.26131 8.68174C3.73251 8.87852 0.926857 11.7975 0.874611 15.3267C0.863868 16.0455 0.844826 16.6959 0.816994 17.315L0.814064 17.4307C0.670998 24.9341 0.493264 34.2725 3.61728 42.7485C5.33505 47.4097 7.9366 51.4614 11.3492 54.792C15.2359 58.5849 20.3267 61.5961 26.48 63.7416C26.6802 63.8115 26.8882 63.8681 27.1001 63.9106C27.3989 63.9702 27.6997 63.9999 28.0005 63.9999C28.3013 63.9999 28.6026 63.9702 28.9009 63.9106C29.1128 63.8681 29.3223 63.811 29.5235 63.7407C35.6694 61.5913 40.7549 58.5786 44.6382 54.7861C48.0493 51.4546 50.6508 47.4018 52.3701 42.7397C55.5058 34.2383 55.3286 24.8824 55.186 17.3648ZM48.8466 41.4404C45.5517 50.374 38.8257 56.5092 28.2842 60.1958C28.2466 60.2085 28.2066 60.2197 28.1651 60.228C28.0562 60.2495 27.9453 60.2495 27.835 60.2275C27.794 60.2192 27.7539 60.2085 27.7168 60.1958C17.1641 56.5161 10.4337 50.3843 7.14119 41.4502C4.26181 33.6372 4.42489 25.065 4.56894 17.5025L4.56991 17.4605C4.59921 16.8106 4.61874 16.13 4.62948 15.3819C4.65292 13.815 5.90096 12.5186 7.47078 12.4312C11.6348 12.1988 15.293 11.3941 18.6543 9.97129C22.0113 8.55039 24.9927 6.54747 27.7681 3.84826C27.9092 3.72912 28.0923 3.72863 28.2329 3.84826C31.0088 6.54747 33.9902 8.55039 37.3467 9.97129C40.708 11.3941 44.3662 12.1988 48.5307 12.4312C50.1005 12.5186 51.3486 13.815 51.3715 15.3824C51.3828 16.1344 51.4023 16.815 51.4316 17.4605C51.5751 25.0318 51.7343 33.6109 48.8466 41.4404Z" fill="#363531" stroke="#DFEFD5" mask="url(#path-1-inside-1_1_183)"/>
<mask id="path-2-inside-2_1_183" fill="white">
<path d="M27.9996 16.0513C19.2047 16.0513 12.0499 23.2065 12.0499 32.0009C12.0499 40.7958 19.2047 47.9511 27.9996 47.9511C36.794 47.9511 43.9493 40.7958 43.9493 32.0009C43.9493 23.2065 36.794 16.0513 27.9996 16.0513ZM27.9996 44.1952C21.2755 44.1952 15.8053 38.725 15.8053 32.0009C15.8053 25.2768 21.2755 19.8066 27.9996 19.8066C34.7232 19.8066 40.1934 25.2768 40.1934 32.0009C40.1934 38.725 34.7232 44.1952 27.9996 44.1952Z"/>
</mask>
<path d="M27.9996 16.0513C19.2047 16.0513 12.0499 23.2065 12.0499 32.0009C12.0499 40.7958 19.2047 47.9511 27.9996 47.9511C36.794 47.9511 43.9493 40.7958 43.9493 32.0009C43.9493 23.2065 36.794 16.0513 27.9996 16.0513ZM27.9996 44.1952C21.2755 44.1952 15.8053 38.725 15.8053 32.0009C15.8053 25.2768 21.2755 19.8066 27.9996 19.8066C34.7232 19.8066 40.1934 25.2768 40.1934 32.0009C40.1934 38.725 34.7232 44.1952 27.9996 44.1952Z" fill="#363531" stroke="#DFEFD5" mask="url(#path-2-inside-2_1_183)"/>
<mask id="path-3-inside-3_1_183" fill="white">
<path d="M32.5835 27.0494L25.1753 34.4576L23.1645 32.4469C22.4311 31.7135 21.2422 31.7135 20.5088 32.4469C19.7759 33.1803 19.7759 34.3692 20.5088 35.1021L23.8476 38.441C24.2143 38.8077 24.6948 38.9908 25.1753 38.9908C25.6557 38.9908 26.1362 38.8077 26.5029 38.441L35.2392 29.7047C35.9721 28.9713 35.9721 27.7823 35.2392 27.0494C34.5058 26.3156 33.3169 26.3156 32.5835 27.0494Z"/>
</mask>
<path d="M32.5835 27.0494L25.1753 34.4576L23.1645 32.4469C22.4311 31.7135 21.2422 31.7135 20.5088 32.4469C19.7759 33.1803 19.7759 34.3692 20.5088 35.1021L23.8476 38.441C24.2143 38.8077 24.6948 38.9908 25.1753 38.9908C25.6557 38.9908 26.1362 38.8077 26.5029 38.441L35.2392 29.7047C35.9721 28.9713 35.9721 27.7823 35.2392 27.0494C34.5058 26.3156 33.3169 26.3156 32.5835 27.0494Z" fill="#363531" stroke="#DFEFD5" mask="url(#path-3-inside-3_1_183)"/>
</svg>
