<svg width="57" height="18" viewBox="0 0 57 18" fill="none" xmlns="http://www.w3.org/2000/svg">
<path d="M41.5332 1.32722C40.2168 0.865361 38.8254 0.633598 37.4244 0.642844C32.8936 0.642844 29.6938 2.84048 29.6711 5.99515C29.6428 8.31275 31.945 9.61879 33.6865 10.3931C35.4733 11.1893 36.0708 11.691 36.0651 12.4026C36.0538 13.4851 34.638 13.9759 33.3212 13.9759C31.5117 13.9759 30.5235 13.7332 29.0028 13.1252L28.4393 12.8716L27.7965 16.5034C28.8981 16.9451 30.8831 17.3241 32.9333 17.3569C37.75 17.3569 40.8989 15.1729 40.9357 11.8164C40.9753 9.96507 39.7294 8.56632 37.1072 7.41025C35.513 6.66044 34.5247 6.15874 34.5247 5.39802C34.5247 4.72455 35.3714 4.00473 37.1412 4.00473C38.3191 3.97729 39.4897 4.19008 40.5761 4.62912L41.0008 4.8118L41.6436 1.30268L41.5332 1.32722ZM53.2905 0.937316H49.7508C48.6493 0.937316 47.8196 1.22906 47.3382 2.28153L40.5308 17.1306H45.3475L46.3103 14.6957L52.1889 14.7012C52.3277 15.271 52.7525 17.1306 52.7525 17.1306H57L53.2905 0.937316ZM23.1553 0.800986H27.7456L24.8742 17.0024H20.2896L23.1553 0.795533V0.800986ZM11.5028 9.73058L11.9785 11.98L16.464 0.937316H21.326L14.1023 17.1087H9.2516L5.2872 3.41579C5.22299 3.19 5.0722 2.99609 4.86527 2.8732C3.43639 2.16248 1.9224 1.62313 0.357178 1.26723L0.419475 0.926408H7.80743C8.80986 0.96458 9.61689 1.26723 9.88591 2.29789L11.5 9.73876L11.5028 9.73058ZM47.627 11.3829L49.4563 6.8513C49.4337 6.90038 49.833 5.91608 50.0652 5.30805L50.3795 6.70679L51.4414 11.3802H47.6242L47.627 11.3829Z" fill="#FDFCF7"/>
</svg>
