<svg width="172" height="25" viewBox="0 0 172 25" fill="none" xmlns="http://www.w3.org/2000/svg">
<g clip-path="url(#clip0_757_524)">
<path d="M20.7373 15.9843C20.7373 14.925 20.9546 13.9065 21.3892 12.9287C21.8237 11.9509 22.4484 11.0953 23.2633 10.362C24.0781 9.62862 25.0831 9.03108 26.2646 8.58292C27.4461 8.13477 28.7905 7.91748 30.298 7.91748C31.8054 7.91748 33.1499 8.13477 34.345 8.58292C35.54 9.03108 36.5586 9.6422 37.4006 10.4299C38.2426 11.2175 38.8808 12.1274 39.329 13.1867C39.7772 14.246 39.9944 15.3732 39.9944 16.5818C39.9944 16.7312 39.9944 16.8942 39.9944 17.0707C39.9944 17.2473 39.9809 17.3967 39.9673 17.546L25.1374 17.546C25.3004 18.0214 25.572 18.4424 25.9522 18.8362C26.3325 19.23 26.7942 19.556 27.3646 19.8412C27.935 20.1263 28.5868 20.3436 29.3338 20.493C30.0807 20.6424 30.8955 20.7239 31.8054 20.7239C32.7153 20.7239 33.6116 20.6288 34.5079 20.4387C35.4042 20.2486 36.2598 20.0041 37.0746 19.7189L38.4055 22.7202C37.8895 22.9647 37.3734 23.1684 36.8438 23.3449C36.3141 23.5215 35.7709 23.6709 35.2005 23.7931C34.6301 23.9153 34.0326 23.9968 33.4079 24.0647C32.7832 24.1326 32.1313 24.1597 31.4387 24.1597C29.6733 24.1597 28.1251 23.9425 26.8078 23.5215C25.4905 23.1005 24.3633 22.5165 23.467 21.7832C22.5707 21.0498 21.9052 20.1807 21.4435 19.1893C20.9818 18.1979 20.7645 17.1251 20.7645 15.9843H20.7373ZM35.8117 14.4497C35.6758 14.0151 35.445 13.6077 35.1598 13.2275C34.8746 12.8472 34.4943 12.5213 34.0462 12.2497C33.598 11.978 33.0956 11.7472 32.5116 11.5978C31.9276 11.4484 31.2893 11.3533 30.5832 11.3533C29.8362 11.3533 29.1572 11.4348 28.5461 11.6114C27.935 11.7879 27.4053 12.0052 26.9436 12.2904C26.4819 12.5756 26.1016 12.9015 25.7892 13.2682C25.4769 13.6349 25.2596 14.0287 25.1238 14.4497L35.8252 14.4497H35.8117Z" fill="white"/>
<path d="M63.7331 16.1066C63.7331 14.8572 63.9639 13.73 64.4393 12.725C64.9146 11.7201 65.5529 10.8645 66.3813 10.1448C67.2097 9.42499 68.1875 8.88177 69.3282 8.50152C70.469 8.12126 71.7048 7.91756 73.0221 7.91756C73.5925 7.91756 74.1493 7.9583 74.7061 8.0262C75.2629 8.0941 75.7925 8.18917 76.295 8.32497C76.7975 8.46078 77.2864 8.59658 77.7346 8.77313C78.1827 8.94967 78.5765 9.1398 78.9296 9.34351V1.8335L82.868 1.8335V23.8746H78.9296V22.3944C78.5901 22.6388 78.1827 22.8561 77.7074 23.0734C77.2321 23.2907 76.7296 23.4672 76.1864 23.6302C75.6432 23.7931 75.0864 23.9154 74.5024 24.0104C73.9184 24.1055 73.3481 24.1462 72.7777 24.1462C71.4468 24.1462 70.2245 23.9561 69.1109 23.5623C67.9973 23.1684 67.0467 22.6252 66.2455 21.919C65.4442 21.2129 64.8195 20.3573 64.3849 19.3795C63.9504 18.4017 63.7195 17.3017 63.7195 16.1066H63.7331ZM67.8615 16.1066C67.8615 16.7313 67.9838 17.3288 68.2418 17.8856C68.4998 18.4424 68.8529 18.9313 69.3282 19.3523C69.8035 19.7733 70.3739 20.0993 71.0394 20.3437C71.7048 20.5882 72.4653 20.7104 73.2937 20.7104C73.8234 20.7104 74.353 20.6561 74.8826 20.561C75.4123 20.4659 75.9283 20.3165 76.4172 20.1264C76.9061 19.9363 77.3679 19.719 77.8025 19.4474C78.237 19.1758 78.6037 18.8906 78.9296 18.5511V13.1189C78.5358 12.8065 78.1148 12.5349 77.6666 12.3041C77.2185 12.0732 76.7703 11.8966 76.3086 11.7608C75.8469 11.625 75.3851 11.5164 74.9098 11.4485C74.4345 11.3806 73.9863 11.3534 73.5382 11.3534C72.6283 11.3534 71.827 11.4756 71.1209 11.7201C70.4147 11.9645 69.8171 12.3041 69.3418 12.725C68.8665 13.146 68.4862 13.6485 68.2282 14.2325C67.9702 14.8164 67.848 15.4276 67.848 16.1066H67.8615Z" fill="white"/>
<path d="M89.7123 6.057C89.3185 6.057 88.9654 6.00268 88.653 5.89403C88.3407 5.78539 88.0691 5.636 87.8518 5.44588C87.6345 5.25575 87.4579 5.03846 87.3357 4.78043C87.2135 4.5224 87.1592 4.26437 87.1592 3.97918C87.1592 3.69399 87.2135 3.4088 87.3357 3.16435C87.4579 2.9199 87.6209 2.68904 87.8518 2.51249C88.0827 2.33594 88.3407 2.17298 88.653 2.06433C88.9654 1.95569 89.3185 1.90137 89.7123 1.90137C90.1061 1.90137 90.4728 1.95569 90.7852 2.06433C91.0975 2.17298 91.3691 2.32236 91.5864 2.51249C91.8037 2.70262 91.9803 2.9199 92.1025 3.16435C92.2247 3.4088 92.279 3.69399 92.279 3.97918C92.279 4.26437 92.2247 4.53598 92.1025 4.78043C91.9803 5.02488 91.8173 5.25575 91.5864 5.44588C91.3556 5.636 91.0975 5.78539 90.7852 5.89403C90.4728 6.00268 90.1197 6.057 89.7123 6.057ZM87.7431 8.20272H91.6815V23.8882H87.7431V8.20272Z" fill="white"/>
<path d="M97.0867 8.20264H101.025V9.53353C102.071 8.93599 103.076 8.52857 104.026 8.28412C104.977 8.03967 105.914 7.93103 106.824 7.93103C108.019 7.93103 109.133 8.10758 110.151 8.46067C111.17 8.81376 112.052 9.32982 112.799 10.0224C113.546 10.715 114.13 11.5706 114.551 12.6027C114.972 13.6348 115.176 14.8299 115.176 16.188V23.8881L111.251 23.8881V16.8127C111.251 15.9571 111.129 15.183 110.884 14.504C110.64 13.825 110.287 13.2546 109.839 12.7928C109.391 12.3311 108.834 11.978 108.182 11.7336C107.53 11.4891 106.797 11.3669 105.995 11.3669C105.574 11.3669 105.14 11.4076 104.692 11.5027C104.244 11.5978 103.809 11.72 103.374 11.883C102.94 12.0459 102.532 12.2496 102.139 12.4941C101.745 12.7385 101.378 13.0101 101.052 13.3225V23.8881H97.1138V8.20264H97.0867Z" fill="white"/>
<path d="M-0.000244141 8.17554H3.99242L3.99242 9.50643C5.0517 8.90889 6.07024 8.50147 7.03445 8.25702C7.99867 8.01257 8.9493 7.90393 9.87277 7.90393C11.0814 7.90393 12.2086 8.08048 13.2543 8.43357C14.3 8.78666 15.1827 9.30272 15.9433 9.99533C16.7038 10.6879 17.2877 11.5435 17.7223 12.5756C18.1569 13.6077 18.3606 14.8028 18.3606 16.1609L18.3606 23.861L14.3815 23.861V16.7856C14.3815 15.93 14.2593 15.1559 14.0148 14.4769C13.7704 13.7979 13.4173 13.2275 12.942 12.7657C12.4666 12.304 11.9098 11.9509 11.258 11.7065C10.6061 11.462 9.85919 11.3398 9.03078 11.3398C8.59621 11.3398 8.16163 11.3805 7.6999 11.4756C7.23816 11.5707 6.80358 11.6929 6.36901 11.8559C5.93443 12.0188 5.51344 12.2225 5.10602 12.467C4.69861 12.7114 4.33193 12.983 3.99242 13.2954L3.99242 23.861H-0.000244141L-0.000244141 8.17554Z" fill="white"/>
<path d="M117.716 15.9843C117.716 14.925 117.933 13.9065 118.367 12.9287C118.802 11.9509 119.427 11.0953 120.242 10.362C121.056 9.62862 122.061 9.03108 123.243 8.58292C124.424 8.13477 125.769 7.91748 127.276 7.91748C128.784 7.91748 130.128 8.13477 131.323 8.58292C132.518 9.03108 133.537 9.6422 134.379 10.4299C135.221 11.2175 135.859 12.1274 136.307 13.1867C136.755 14.246 136.973 15.3732 136.973 16.5818C136.973 16.7312 136.973 16.8942 136.973 17.0707C136.973 17.2473 136.959 17.3967 136.946 17.546L122.116 17.546C122.279 18.0214 122.55 18.4424 122.93 18.8362C123.311 19.23 123.772 19.556 124.343 19.8412C124.913 20.1263 125.565 20.3436 126.312 20.493C127.059 20.6424 127.874 20.7239 128.784 20.7239C129.694 20.7239 130.59 20.6288 131.486 20.4387C132.383 20.2486 133.238 20.0041 134.053 19.7189L135.384 22.7202C134.868 22.9647 134.352 23.1684 133.822 23.3449C133.292 23.5215 132.749 23.6709 132.179 23.7931C131.608 23.9153 131.011 23.9968 130.386 24.0647C129.761 24.1326 129.11 24.1597 128.417 24.1597C126.652 24.1597 125.103 23.9425 123.786 23.5215C122.469 23.1005 121.342 22.5165 120.445 21.7832C119.549 21.0498 118.883 20.1807 118.422 19.1893C117.96 18.1979 117.743 17.1251 117.743 15.9843H117.716ZM132.79 14.4497C132.654 14.0151 132.423 13.6077 132.138 13.2275C131.853 12.8472 131.473 12.5213 131.024 12.2497C130.576 11.978 130.074 11.7472 129.49 11.5978C128.906 11.4484 128.268 11.3533 127.561 11.3533C126.815 11.3533 126.135 11.4348 125.524 11.6114C124.913 11.7879 124.384 12.0052 123.922 12.2904C123.46 12.5756 123.08 12.9015 122.768 13.2682C122.455 13.6349 122.238 14.0287 122.102 14.4497L132.804 14.4497H132.79Z" fill="white"/>
<path d="M139.757 8.20277H143.695V10.4571C144.564 9.80526 145.474 9.24846 146.452 8.78673C147.43 8.32499 148.38 7.95832 149.331 7.71387L150.485 11.3127C148.964 11.4621 147.633 11.8016 146.493 12.3312C145.352 12.8609 144.415 13.5942 143.695 14.5584V23.8882H139.757V8.20277Z" fill="white"/>
<path d="M152.278 16.0386C152.278 14.9114 152.509 13.8657 152.957 12.8744C153.405 11.883 154.07 11.0274 154.912 10.2941C155.754 9.56072 156.787 8.97676 157.982 8.55576C159.177 8.13477 160.535 7.91748 162.029 7.91748C163.522 7.91748 164.881 8.13477 166.076 8.55576C167.271 8.97676 168.303 9.56072 169.145 10.2941C169.987 11.0274 170.639 11.883 171.1 12.8744C171.562 13.8657 171.779 14.9114 171.779 16.0386C171.779 17.1658 171.549 18.2115 171.1 19.2029C170.652 20.1942 169.987 21.0498 169.145 21.7832C168.303 22.5165 167.271 23.1005 166.076 23.5215C164.881 23.9425 163.522 24.1597 162.029 24.1597C160.535 24.1597 159.177 23.9425 157.982 23.5215C156.787 23.1005 155.754 22.5165 154.912 21.7832C154.07 21.0498 153.419 20.1942 152.957 19.2029C152.495 18.2115 152.278 17.1658 152.278 16.0386ZM156.406 16.0386C156.406 16.6633 156.529 17.2609 156.787 17.8312C157.045 18.4016 157.411 18.8905 157.887 19.3251C158.362 19.7597 158.959 20.0992 159.652 20.3436C160.345 20.5881 161.132 20.7239 162.029 20.7239C162.925 20.7239 163.699 20.6017 164.405 20.3436C165.111 20.0856 165.695 19.7461 166.171 19.3251C166.646 18.9041 167.026 18.4016 167.271 17.8312C167.515 17.2609 167.651 16.6769 167.651 16.0386C167.651 15.4003 167.529 14.8164 167.271 14.246C167.013 13.6756 166.646 13.1867 166.171 12.7521C165.695 12.3176 165.098 11.978 164.405 11.7336C163.713 11.4892 162.925 11.3533 162.029 11.3533C161.132 11.3533 160.358 11.4756 159.652 11.7336C158.946 11.9916 158.362 12.3311 157.887 12.7521C157.411 13.1731 157.031 13.6756 156.787 14.246C156.542 14.8164 156.406 15.4139 156.406 16.0386Z" fill="white"/>
<path d="M58.9256 1.81982L51.9317 10.8237L47.8711 5.90755L42.8328 5.90755L49.3378 13.7842L51.8774 16.8398L54.3626 13.7707L61.8455 4.3458L58.9256 1.81982Z" fill="#58F048"/>
<path d="M47.7216 16.0386L41.4746 23.8745H46.3907L50.1525 18.972L47.7216 16.0386Z" fill="white"/>
<path d="M56.5082 15.9978L56.3995 15.8756L56.386 15.9028L53.9143 18.972L57.9749 23.8745H63.0132L56.5082 15.9978Z" fill="white"/>
<path d="M63.638 6.5458V0L57.0786 0L63.638 6.5458Z" fill="#58F048"/>
</g>
<defs>
<clipPath id="clip0_757_524">
<rect width="171.78" height="24.1597" fill="white"/>
</clipPath>
</defs>
</svg>
