<svg width="233" height="33" viewBox="0 0 233 33" fill="none" xmlns="http://www.w3.org/2000/svg">
<g clip-path="url(#clip0_1035_3562)">
<path d="M28.0605 21.6288C28.0605 20.1955 28.3546 18.8173 28.9426 17.4942C29.5306 16.1711 30.3759 15.0134 31.4785 14.0211C32.5811 13.0288 33.9409 12.2202 35.5397 11.6138C37.1384 11.0074 38.9576 10.7134 40.9974 10.7134C43.0372 10.7134 44.8564 11.0074 46.4735 11.6138C48.0906 12.2202 49.4688 13.0472 50.6082 14.113C51.7475 15.1788 52.6112 16.41 53.2176 17.8433C53.824 19.2767 54.118 20.8019 54.118 22.4374C54.118 22.6395 54.118 22.8601 54.118 23.0989C54.118 23.3378 54.0996 23.54 54.0813 23.7421H34.0144C34.235 24.3853 34.6025 24.9549 35.117 25.4879C35.6315 26.0208 36.2563 26.4618 37.0281 26.8477C37.7999 27.2336 38.682 27.5276 39.6927 27.7298C40.7034 27.9319 41.806 28.0421 43.0372 28.0421C44.2684 28.0421 45.4812 27.9135 46.694 27.6562C47.9069 27.399 49.0646 27.0682 50.1671 26.6823L51.968 30.7435C51.2697 31.0742 50.5714 31.3499 49.8547 31.5888C49.1381 31.8276 48.403 32.0298 47.6312 32.1952C46.8594 32.3606 46.0509 32.4708 45.2056 32.5627C44.3602 32.6546 43.4782 32.6913 42.541 32.6913C40.1521 32.6913 38.0572 32.3973 36.2747 31.8276C34.4922 31.258 32.967 30.4678 31.7542 29.4755C30.5413 28.4832 29.6409 27.3071 29.0161 25.9656C28.3913 24.6242 28.0973 23.1725 28.0973 21.6288H28.0605ZM48.4581 19.5523C48.2744 18.9643 47.962 18.413 47.5761 17.8985C47.1902 17.3839 46.6757 16.9429 46.0692 16.5754C45.4628 16.2079 44.7829 15.8955 43.9927 15.6933C43.2025 15.4912 42.3389 15.3626 41.3833 15.3626C40.3726 15.3626 39.4538 15.4728 38.6269 15.7117C37.7999 15.9506 37.0833 16.2446 36.4585 16.6305C35.8337 17.0164 35.3192 17.4574 34.8965 17.9536C34.4738 18.4498 34.1798 18.9827 33.9961 19.5523H48.4765H48.4581Z" fill="#253942"/>
<path d="M86.2396 21.7944C86.2396 20.1037 86.552 18.5785 87.1951 17.2187C87.8383 15.8588 88.702 14.7011 89.8229 13.7272C90.9439 12.7533 92.267 12.0182 93.8106 11.5037C95.3542 10.9891 97.0264 10.7135 98.8089 10.7135C99.5807 10.7135 100.334 10.7686 101.088 10.8605C101.841 10.9524 102.558 11.081 103.238 11.2648C103.917 11.4485 104.579 11.6323 105.185 11.8712C105.792 12.1101 106.325 12.3674 106.803 12.643V2.48096H112.132V32.3055H106.803V30.3025C106.343 30.6333 105.792 30.9273 105.149 31.2213C104.506 31.5154 103.826 31.7543 103.091 31.9748C102.356 32.1953 101.602 32.3607 100.812 32.4893C100.022 32.6179 99.2499 32.6731 98.4781 32.6731C96.6773 32.6731 95.0234 32.4158 93.5165 31.8829C92.0097 31.35 90.7234 30.6149 89.6392 29.6594C88.555 28.7038 87.7097 27.5461 87.1216 26.223C86.5336 24.8999 86.2212 23.4115 86.2212 21.7944H86.2396ZM91.8259 21.7944C91.8259 22.6397 91.9913 23.4482 92.3405 24.2016C92.6896 24.9551 93.1674 25.6166 93.8106 26.1863C94.4537 26.7559 95.2255 27.197 96.126 27.5277C97.0264 27.8585 98.0555 28.0239 99.1764 28.0239C99.8931 28.0239 100.61 27.9504 101.326 27.8218C102.043 27.6931 102.741 27.491 103.403 27.2337C104.064 26.9764 104.689 26.6824 105.277 26.3149C105.865 25.9474 106.362 25.5615 106.803 25.1021V17.7516C106.27 17.3289 105.7 16.9614 105.094 16.649C104.487 16.3366 103.881 16.0977 103.256 15.914C102.631 15.7302 102.006 15.5832 101.363 15.4913C100.72 15.3994 100.114 15.3627 99.5072 15.3627C98.276 15.3627 97.1918 15.5281 96.2362 15.8588C95.2807 16.1896 94.4721 16.649 93.8289 17.2187C93.1858 17.7883 92.6712 18.4683 92.3221 19.2584C91.973 20.0486 91.8076 20.8755 91.8076 21.7944H91.8259Z" fill="#253942"/>
<path d="M121.393 8.19587C120.86 8.19587 120.383 8.12237 119.96 7.97536C119.537 7.82835 119.17 7.62621 118.876 7.36895C118.582 7.11168 118.343 6.81766 118.177 6.46851C118.012 6.11936 117.938 5.77022 117.938 5.38431C117.938 4.99841 118.012 4.61251 118.177 4.28174C118.343 3.95097 118.563 3.63857 118.876 3.39968C119.188 3.16079 119.537 2.94028 119.96 2.79327C120.383 2.64626 120.86 2.57275 121.393 2.57275C121.926 2.57275 122.422 2.64626 122.845 2.79327C123.268 2.94028 123.635 3.14242 123.929 3.39968C124.223 3.65695 124.462 3.95097 124.627 4.28174C124.793 4.61251 124.866 4.99841 124.866 5.38431C124.866 5.77022 124.793 6.13774 124.627 6.46851C124.462 6.79928 124.242 7.11168 123.929 7.36895C123.617 7.62621 123.268 7.82835 122.845 7.97536C122.422 8.12237 121.944 8.19587 121.393 8.19587ZM118.729 11.0993H124.058V32.3238H118.729V11.0993Z" fill="#253942"/>
<path d="M131.372 11.0995H136.701V12.9003C138.116 12.0918 139.475 11.5405 140.762 11.2097C142.048 10.8789 143.316 10.7319 144.547 10.7319C146.164 10.7319 147.671 10.9708 149.05 11.4486C150.428 11.9264 151.622 12.6247 152.633 13.5619C153.644 14.4991 154.434 15.6568 155.003 17.0533C155.573 18.4499 155.849 20.067 155.849 21.9047V32.324H150.538V22.75C150.538 21.5923 150.373 20.5448 150.042 19.626C149.711 18.7072 149.233 17.9354 148.627 17.3106C148.02 16.6858 147.267 16.208 146.385 15.8773C145.503 15.5465 144.511 15.3811 143.426 15.3811C142.857 15.3811 142.269 15.4362 141.662 15.5649C141.056 15.6935 140.468 15.8589 139.88 16.0794C139.292 16.2999 138.74 16.5756 138.208 16.9063C137.675 17.2371 137.178 17.6046 136.737 18.0273V32.324H131.408V11.0995H131.372Z" fill="#253942"/>
<path d="M0 11.0623H5.40261V12.8632C6.83595 12.0547 8.21417 11.5034 9.51888 11.1726C10.8236 10.8418 12.1099 10.6948 13.3595 10.6948C14.995 10.6948 16.5202 10.9337 17.9352 11.4115C19.3502 11.8893 20.5446 12.5876 21.5737 13.5248C22.6027 14.4619 23.3929 15.6196 23.981 17.0162C24.569 18.4128 24.8446 20.0299 24.8446 21.8676V32.2869H19.4604V22.7129C19.4604 21.5552 19.295 20.5077 18.9643 19.5889C18.6335 18.6701 18.1557 17.8983 17.5125 17.2735C16.8694 16.6487 16.1159 16.1709 15.2339 15.8402C14.3518 15.5094 13.3411 15.344 12.2202 15.344C11.6321 15.344 11.0441 15.3991 10.4193 15.5278C9.79452 15.6564 9.20648 15.8218 8.61844 16.0423C8.03041 16.2628 7.46074 16.5385 6.90946 16.8692C6.35817 17.2 5.86201 17.5675 5.40261 17.9902V32.2869H0V11.0623Z" fill="#253942"/>
<path d="M159.285 21.6288C159.285 20.1955 159.579 18.8173 160.167 17.4942C160.755 16.1711 161.6 15.0134 162.703 14.0211C163.805 13.0288 165.165 12.2202 166.764 11.6138C168.363 11.0074 170.182 10.7134 172.222 10.7134C174.262 10.7134 176.081 11.0074 177.698 11.6138C179.315 12.2202 180.693 13.0472 181.833 14.113C182.972 15.1788 183.836 16.41 184.442 17.8433C185.048 19.2767 185.342 20.8019 185.342 22.4374C185.342 22.6395 185.342 22.8601 185.342 23.0989C185.342 23.3378 185.324 23.54 185.306 23.7421H165.239C165.459 24.3853 165.827 24.9549 166.341 25.4879C166.856 26.0208 167.481 26.4618 168.252 26.8477C169.024 27.2336 169.906 27.5276 170.917 27.7298C171.928 27.9319 173.03 28.0421 174.262 28.0421C175.493 28.0421 176.706 27.9135 177.918 27.6562C179.131 27.399 180.289 27.0682 181.391 26.6823L183.192 30.7435C182.494 31.0742 181.796 31.3499 181.079 31.5888C180.362 31.8276 179.627 32.0298 178.856 32.1952C178.084 32.3606 177.275 32.4708 176.43 32.5627C175.585 32.6546 174.703 32.6913 173.765 32.6913C171.376 32.6913 169.282 32.3973 167.499 31.8276C165.717 31.258 164.191 30.4678 162.979 29.4755C161.766 28.4832 160.865 27.3071 160.24 25.9656C159.616 24.6242 159.322 23.1725 159.322 21.6288H159.285ZM179.683 19.5523C179.499 18.9643 179.186 18.413 178.8 17.8985C178.415 17.3839 177.9 16.9429 177.294 16.5754C176.687 16.2079 176.007 15.8955 175.217 15.6933C174.427 15.4912 173.563 15.3626 172.608 15.3626C171.597 15.3626 170.678 15.4728 169.851 15.7117C169.024 15.9506 168.308 16.2446 167.683 16.6305C167.058 17.0164 166.544 17.4574 166.121 17.9536C165.698 18.4498 165.404 18.9827 165.22 19.5523H179.701H179.683Z" fill="#253942"/>
<path d="M189.11 11.099H194.439V14.1495C195.615 13.2674 196.846 12.514 198.169 11.8892C199.492 11.2644 200.779 10.7683 202.065 10.4375L203.627 15.3072C201.569 15.5093 199.768 15.9687 198.224 16.6854C196.681 17.4021 195.413 18.3944 194.439 19.6991V32.3236H189.11V11.099Z" fill="#253942"/>
<path d="M206.052 21.7024C206.052 20.1771 206.365 18.7622 206.971 17.4207C207.578 16.0792 208.478 14.9215 209.617 13.9292C210.757 12.9369 212.153 12.1467 213.771 11.5771C215.388 11.0074 217.225 10.7134 219.247 10.7134C221.268 10.7134 223.106 11.0074 224.723 11.5771C226.34 12.1467 227.736 12.9369 228.876 13.9292C230.015 14.9215 230.897 16.0792 231.522 17.4207C232.147 18.7622 232.441 20.1771 232.441 21.7024C232.441 23.2276 232.128 24.6425 231.522 25.984C230.916 27.3255 230.015 28.4832 228.876 29.4755C227.736 30.4678 226.34 31.258 224.723 31.8276C223.106 32.3973 221.268 32.6913 219.247 32.6913C217.225 32.6913 215.388 32.3973 213.771 31.8276C212.153 31.258 210.757 30.4678 209.617 29.4755C208.478 28.4832 207.596 27.3255 206.971 25.984C206.347 24.6425 206.052 23.2276 206.052 21.7024ZM211.639 21.7024C211.639 22.5477 211.804 23.3562 212.153 24.128C212.503 24.8998 212.999 25.5614 213.642 26.1494C214.285 26.7374 215.094 27.1968 216.031 27.5276C216.968 27.8584 218.034 28.0421 219.247 28.0421C220.459 28.0421 221.507 27.8768 222.462 27.5276C223.418 27.1785 224.208 26.7191 224.851 26.1494C225.495 25.5797 226.009 24.8998 226.34 24.128C226.671 23.3562 226.854 22.566 226.854 21.7024C226.854 20.8387 226.689 20.0485 226.34 19.2767C225.991 18.5049 225.495 17.8433 224.851 17.2553C224.208 16.6673 223.4 16.2079 222.462 15.8771C221.525 15.5463 220.459 15.3626 219.247 15.3626C218.034 15.3626 216.986 15.5279 216.031 15.8771C215.075 16.2262 214.285 16.6856 213.642 17.2553C212.999 17.825 212.484 18.5049 212.153 19.2767C211.823 20.0485 211.639 20.857 211.639 21.7024Z" fill="#253942"/>
<path d="M79.7343 2.4624L70.2706 14.6458L64.7761 7.99364H57.9585L66.7607 18.6518L70.1971 22.7865L73.5599 18.6335L83.6852 5.88038L79.7343 2.4624Z" fill="#29D917"/>
<path d="M64.5739 21.7021L56.1208 32.3052H62.773L67.8632 25.6714L64.5739 21.7021Z" fill="#253942"/>
<path d="M76.4632 21.6473L76.3162 21.4819L76.2978 21.5187L72.9534 25.6717L78.4479 32.3055H85.2654L76.4632 21.6473Z" fill="#253942"/>
<path d="M86.1108 8.85733V0H77.2351L86.1108 8.85733Z" fill="#29D917"/>
</g>
<defs>
<clipPath id="clip0_1035_3562">
<rect width="232.441" height="32.6913" fill="white"/>
</clipPath>
</defs>
</svg>
