<svg width="16" height="16" viewBox="0 0 16 16" fill="none" xmlns="http://www.w3.org/2000/svg">
<path d="M15.4711 4.19132L15.4711 4.19133L7.48359 12.4816C7.3727 12.5965 7.23923 12.6887 7.09095 12.7524C6.94266 12.8162 6.78268 12.8503 6.6205 12.8525C6.45832 12.8547 6.29742 12.8251 6.14734 12.7653C5.99727 12.7056 5.86119 12.6171 5.74705 12.5053L1.52094 8.36269C1.30926 8.13874 1.19472 7.84398 1.20019 7.54021C1.20568 7.23532 1.33166 6.94361 1.55286 6.72678C1.77419 6.50982 2.07358 6.38487 2.38818 6.37943C2.70165 6.37401 3.00437 6.48769 3.23317 6.6955L6.43504 9.83227L6.5791 9.9734L6.71903 9.82816L13.7105 2.57135C13.9305 2.34327 14.2347 2.20941 14.5565 2.20048C14.8784 2.19155 15.19 2.30834 15.4229 2.524C15.6555 2.73962 15.7905 3.03612 15.7995 3.348C15.8085 3.65989 15.6909 3.96329 15.4711 4.19132Z" fill="#363531" stroke="#FDFCF7" stroke-width="0.4"/>
</svg>
