<svg width="54" height="61" viewBox="0 0 54 61" fill="none" xmlns="http://www.w3.org/2000/svg">
<path d="M25.9562 56.2334C25.865 56.7251 25.8651 56.7251 25.8651 56.7251L25.8653 56.7251L25.8655 56.7252L25.8661 56.7253L25.8672 56.7255L25.8694 56.7259L25.874 56.7267L25.8841 56.7282C25.8912 56.7293 25.8991 56.7303 25.9076 56.7312C25.9246 56.733 25.9453 56.7344 25.969 56.7344H48.7794H48.9513L49.0868 56.6288L48.7794 56.2344C49.0868 56.6288 49.0869 56.6287 49.087 56.6286L49.0873 56.6283L49.0879 56.6279L49.089 56.6271L49.0912 56.6252L49.096 56.6214L49.1065 56.6126C49.1092 56.6103 49.1121 56.6078 49.115 56.6052C49.1201 56.6007 49.1254 56.5957 49.1311 56.5903C49.1485 56.5735 49.1699 56.551 49.192 56.5225C49.2338 56.4685 49.2929 56.3737 49.313 56.2423L49.3261 56.1562L49.3094 56.0708L49.3085 56.0661L49.3077 56.0625C48.1399 50.326 43.1281 46.1515 37.3742 46.1515C31.6203 46.1515 26.608 50.326 25.4407 56.0625L25.44 56.066C25.409 56.224 25.4431 56.3795 25.5285 56.5027C25.5666 56.5576 25.6087 56.5973 25.6442 56.6249C25.6622 56.6388 25.6792 56.6502 25.6945 56.6595C25.7021 56.6642 25.7094 56.6684 25.7163 56.6722L25.7264 56.6775L25.7313 56.68L25.7336 56.6812L25.7348 56.6817L25.7353 56.682C25.7356 56.6822 25.7359 56.6823 25.9562 56.2334ZM25.9562 56.2334L25.865 56.7251L25.7975 56.7125L25.7359 56.6823L25.9562 56.2334ZM52.8648 55.1103C52.879 55.1593 52.8913 55.2093 52.9019 55.2612C53.1655 56.558 52.8461 57.889 52.0274 58.9156C51.2214 59.926 50.0378 60.5 48.7794 60.5H25.969C24.7017 60.5 23.5144 59.9255 22.71 58.9173C21.9 57.902 21.5841 56.582 21.8464 55.293C22.5787 51.6944 24.5187 48.4203 27.306 46.0749C28.3611 45.1872 29.5205 44.4483 30.7497 43.8709L31.3464 43.5907L30.9157 43.0917C29.578 41.5417 28.7642 39.5107 28.7642 37.2868C28.7642 32.4291 32.6361 28.4939 37.3742 28.4939C42.1123 28.4939 45.9842 32.4291 45.9842 37.2868C45.9842 39.5107 45.1704 41.5417 43.8327 43.0917L43.402 43.5907L43.9987 43.8709C45.228 44.4483 46.3874 45.1867 47.4423 46.0748L47.4424 46.0749C50.1738 48.3733 52.0913 51.5639 52.8564 55.0772L52.86 55.0939L52.8648 55.1103ZM16.552 58.6172C16.552 59.6666 15.7208 60.5 14.7161 60.5H9.34355C4.47684 60.5 0.5 56.4577 0.5 51.4688V9.53125C0.5 4.54229 4.47684 0.5 9.34355 0.5H38.0622C42.9285 0.5 46.9057 4.5423 46.9057 9.53125V23.709C46.9057 24.7583 46.0742 25.5918 45.0699 25.5918C44.0651 25.5918 43.234 24.7584 43.234 23.709V9.53125C43.234 6.63692 40.9235 4.26562 38.0622 4.26562H9.34355C6.48221 4.26562 4.17177 6.63692 4.17177 9.53125V51.4688C4.17177 54.3631 6.48221 56.7344 9.34355 56.7344H14.7161C15.7208 56.7344 16.552 57.5678 16.552 58.6172ZM35.7258 14.7969C36.7306 14.7969 37.5617 15.6303 37.5617 16.6797C37.5617 17.7291 36.7306 18.5625 35.7258 18.5625H11.6662C10.6619 18.5625 9.83032 17.729 9.83032 16.6797C9.83032 15.6303 10.6619 14.7969 11.6662 14.7969H35.7258ZM26.3955 24.3281C27.4003 24.3281 28.2314 25.1615 28.2314 26.2109C28.2314 27.2603 27.4003 28.0938 26.3955 28.0938H11.6662C10.6619 28.0938 9.83032 27.2603 9.83032 26.2109C9.83032 25.1616 10.6619 24.3281 11.6662 24.3281H26.3955ZM9.83032 35.7422C9.83032 34.6928 10.6619 33.8594 11.6662 33.8594H21.3734C22.3781 33.8594 23.2093 34.6928 23.2093 35.7422C23.2093 36.7916 22.3781 37.625 21.3734 37.625H11.6662C10.6619 37.625 9.83032 36.7915 9.83032 35.7422ZM32.436 37.2868C32.436 40.0499 34.6415 42.3142 37.3742 42.3142C40.1069 42.3142 42.3124 40.0499 42.3124 37.2868C42.3124 34.5237 40.1069 32.2595 37.3742 32.2595C34.6415 32.2595 32.436 34.5237 32.436 37.2868Z" fill="#363531" stroke="#F0E6FF"/>
</svg>
