<svg width="40" height="26" viewBox="0 0 40 26" fill="none" xmlns="http://www.w3.org/2000/svg">
<g clip-path="url(#clip0_1450_1200)">
<path d="M24.9769 3.44727H14.4061V23.0307H24.9769V3.44727Z" fill="#FF5F00"/>
<path d="M15.0741 13.2391C15.0741 9.26015 16.8862 5.73098 19.6715 3.44739C17.6245 1.7866 15.0405 0.783203 12.2217 0.783203C5.5436 0.783203 0.140747 6.35377 0.140747 13.2391C0.140747 20.1245 5.5436 25.695 12.2217 25.695C15.0405 25.695 17.6245 24.6917 19.6715 23.0309C16.8862 20.7819 15.0741 17.2181 15.0741 13.2391Z" fill="#EB001B"/>
<path d="M39.2318 13.2391C39.2318 20.1245 33.829 25.695 27.1509 25.695C24.3321 25.695 21.7481 24.6917 19.701 23.0309C22.5199 20.7473 24.2985 17.2181 24.2985 13.2391C24.2985 9.26015 22.4864 5.73098 19.701 3.44739C21.7481 1.7866 24.3321 0.783203 27.1509 0.783203C33.829 0.783203 39.2318 6.38837 39.2318 13.2391Z" fill="#F79E1B"/>
</g>
<defs>
<clipPath id="clip0_1450_1200">
<rect width="39.9286" height="26" fill="white"/>
</clipPath>
</defs>
</svg>
