<svg width="64" height="62" viewBox="0 0 64 62" fill="none" xmlns="http://www.w3.org/2000/svg">
<mask id="path-1-inside-1_1_177" fill="white">
<path d="M63.7994 38.0695L52.5432 15.7236C52.3294 15.2994 51.9562 14.9653 51.5009 14.8021L37.6238 9.75128C37.8112 4.35755 30.948 1.76981 27.562 6.08904C27.5411 6.08142 13.6888 1.03969 13.7034 1.04506C12.8158 0.723062 11.8169 1.11581 11.3897 1.96431L0.200492 24.1831C0.0543672 24.4735 -0.00825759 24.814 0.000867371 25.0861C0.0332422 32.2993 5.91072 38.1575 13.1313 38.1575C20.354 38.1575 26.2329 32.2958 26.2619 25.0797C26.2704 24.7995 26.2034 24.4602 26.0581 24.175L16.8964 6.19767L26.371 9.64615C26.3945 11.1158 26.9763 12.4941 28.0181 13.5359C28.6326 14.1504 29.3551 14.5926 30.125 14.8631V49.531H29.7923C24.4651 49.531 20.1312 53.8649 20.1312 59.192C20.1312 60.2275 20.9707 61.0669 22.0062 61.0669H41.9936C43.0291 61.0669 43.8686 60.2275 43.8686 59.192C43.8686 53.8649 39.5347 49.531 34.2075 49.531H33.8747V14.8633C34.7839 14.5438 35.5965 13.9983 36.2525 13.2429L48.2453 17.6079L37.944 38.0699C37.7973 38.3612 37.7356 38.7012 37.7445 38.9732C37.7771 46.1844 43.6531 52.0411 50.8718 52.0411C58.0908 52.0411 63.9667 46.1841 63.9991 38.9727C64.0095 38.6642 63.9326 38.3338 63.7994 38.0695ZM13.0743 6.95654L21.3275 23.1513H4.9186L13.0743 6.95654ZM13.1313 34.4076C8.60033 34.4076 4.80935 31.1789 3.93835 26.9013H22.3243C21.4533 31.1789 17.6623 34.4076 13.1313 34.4076ZM34.2076 53.281C36.8118 53.281 39.0282 54.9738 39.814 57.317H24.186C24.9718 54.9738 27.1881 53.281 29.7924 53.281H34.2076ZM30.6697 10.8843C29.9362 10.1508 29.9362 8.95728 30.6697 8.22378C31.8474 7.04616 33.8812 7.88266 33.8812 9.55403C33.8812 11.226 31.8469 12.0614 30.6697 10.8843ZM50.8692 20.7359L59.0809 37.038H42.6618L50.8692 20.7359ZM50.8718 48.2912C46.3427 48.2912 42.5531 45.0639 41.682 40.7882H60.0615C59.1905 45.0638 55.4009 48.2912 50.8718 48.2912Z"/>
</mask>
<path d="M63.7994 38.0695L52.5432 15.7236C52.3294 15.2994 51.9562 14.9653 51.5009 14.8021L37.6238 9.75128C37.8112 4.35755 30.948 1.76981 27.562 6.08904C27.5411 6.08142 13.6888 1.03969 13.7034 1.04506C12.8158 0.723062 11.8169 1.11581 11.3897 1.96431L0.200492 24.1831C0.0543672 24.4735 -0.00825759 24.814 0.000867371 25.0861C0.0332422 32.2993 5.91072 38.1575 13.1313 38.1575C20.354 38.1575 26.2329 32.2958 26.2619 25.0797C26.2704 24.7995 26.2034 24.4602 26.0581 24.175L16.8964 6.19767L26.371 9.64615C26.3945 11.1158 26.9763 12.4941 28.0181 13.5359C28.6326 14.1504 29.3551 14.5926 30.125 14.8631V49.531H29.7923C24.4651 49.531 20.1312 53.8649 20.1312 59.192C20.1312 60.2275 20.9707 61.0669 22.0062 61.0669H41.9936C43.0291 61.0669 43.8686 60.2275 43.8686 59.192C43.8686 53.8649 39.5347 49.531 34.2075 49.531H33.8747V14.8633C34.7839 14.5438 35.5965 13.9983 36.2525 13.2429L48.2453 17.6079L37.944 38.0699C37.7973 38.3612 37.7356 38.7012 37.7445 38.9732C37.7771 46.1844 43.6531 52.0411 50.8718 52.0411C58.0908 52.0411 63.9667 46.1841 63.9991 38.9727C64.0095 38.6642 63.9326 38.3338 63.7994 38.0695ZM13.0743 6.95654L21.3275 23.1513H4.9186L13.0743 6.95654ZM13.1313 34.4076C8.60033 34.4076 4.80935 31.1789 3.93835 26.9013H22.3243C21.4533 31.1789 17.6623 34.4076 13.1313 34.4076ZM34.2076 53.281C36.8118 53.281 39.0282 54.9738 39.814 57.317H24.186C24.9718 54.9738 27.1881 53.281 29.7924 53.281H34.2076ZM30.6697 10.8843C29.9362 10.1508 29.9362 8.95728 30.6697 8.22378C31.8474 7.04616 33.8812 7.88266 33.8812 9.55403C33.8812 11.226 31.8469 12.0614 30.6697 10.8843ZM50.8692 20.7359L59.0809 37.038H42.6618L50.8692 20.7359ZM50.8718 48.2912C46.3427 48.2912 42.5531 45.0639 41.682 40.7882H60.0615C59.1905 45.0638 55.4009 48.2912 50.8718 48.2912Z" fill="#363531" stroke="#FEEDD9" style="fill:#363531;fill:color(display-p3 0.2118 0.2078 0.1922);fill-opacity:1;stroke:#FEEDD9;stroke:color(display-p3 0.9961 0.9294 0.8510);stroke-opacity:1;" stroke-width="1.2" mask="url(#path-1-inside-1_1_177)"/>
</svg>
