<svg width="150" height="29" viewBox="0 0 150 29" fill="none" xmlns="http://www.w3.org/2000/svg">
<g clip-path="url(#clip0_108_1749)">
<path d="M1.76847 26.4769C-0.629067 24.003 -0.532249 20.0385 1.90351 17.6027L8.89739 10.6088C9.42989 10.0763 10.2936 10.0763 10.8261 10.6088C11.3586 11.1414 11.3586 12.0051 10.8261 12.5376L3.81695 19.5467C2.4513 20.9124 2.36467 23.1392 3.68956 24.5457C5.0654 26.0081 7.37631 26.0336 8.78528 24.6221L9.11905 24.2883C9.65155 23.7558 10.5153 23.7558 11.0478 24.2883C11.5803 24.8208 11.5803 25.6845 11.0478 26.2171L10.714 26.5508C8.24259 29.0222 4.20932 28.9968 1.76847 26.482V26.4769Z" fill="#B583FF"/>
<path d="M25.8911 2.62917C28.2886 5.10059 28.1918 9.06761 25.7561 11.5034L18.7622 18.4972C18.2297 19.0298 17.3659 19.0298 16.8334 18.4972C16.3009 17.9647 16.3009 17.101 16.8334 16.5685L23.8426 9.55935C25.2083 8.1937 25.2949 5.96687 23.97 4.56045C22.5942 3.09797 20.2832 3.0725 18.8743 4.48401L18.5405 4.81778C18.008 5.35028 17.1443 5.35028 16.6118 4.81778C16.0793 4.28528 16.0793 3.42155 16.6118 2.88905L16.9456 2.55528C19.417 0.0838536 23.4502 0.106784 25.8911 2.62407V2.62917Z" fill="#B583FF"/>
<path d="M1.90598 2.49161C4.37995 0.0940771 8.34442 0.190896 10.7802 2.62665L17.7741 9.62053C18.3066 10.153 18.3066 11.0168 17.7741 11.5493C17.2416 12.0818 16.3778 12.0818 15.8453 11.5493L8.83616 4.54009C7.47051 3.17444 5.24368 3.08781 3.83726 4.4127C2.37478 5.78855 2.3493 8.09946 3.76082 9.50842L4.09459 9.84219C4.62709 10.3747 4.62709 11.2384 4.09459 11.7709C3.56209 12.3034 2.69836 12.3034 2.16586 11.7709L1.83209 11.4372C-0.634241 8.96573 -0.61131 4.93247 1.90598 2.49161Z" fill="#B583FF"/>
<path d="M4.72363 8.64493C3.83952 7.76083 3.83952 6.32893 4.72363 5.44482C5.60774 4.56071 7.03963 4.56071 7.92374 5.44482C8.80785 6.32893 8.80785 7.76083 7.92374 8.64493C7.03963 9.52904 5.60774 9.52904 4.72363 8.64493Z" fill="#B583FF"/>
<path d="M19.7378 8.64493C18.8537 7.76083 18.8537 6.32893 19.7378 5.44482C20.6219 4.56071 22.0538 4.56071 22.9379 5.44482C23.822 6.32893 23.822 7.76083 22.9379 8.64493C22.0538 9.52904 20.6219 9.52904 19.7378 8.64493Z" fill="#B583FF"/>
<path d="M4.72363 23.6132C3.83952 22.7291 3.83952 21.2972 4.72363 20.4131C5.60774 19.529 7.03963 19.529 7.92374 20.4131C8.80785 21.2972 8.80785 22.7291 7.92374 23.6132C7.03963 24.4973 5.60774 24.4973 4.72363 23.6132Z" fill="#B583FF"/>
<path d="M19.7378 23.6132C18.8537 22.7291 18.8537 21.2972 19.7378 20.4131C20.6219 19.529 22.0538 19.529 22.9379 20.4131C23.822 21.2972 23.822 22.7291 22.9379 23.6132C22.0538 24.4973 20.6219 24.4973 19.7378 23.6132Z" fill="#B583FF"/>
<path d="M25.7543 26.6177C23.2829 29.0152 19.3158 28.9184 16.8801 26.4826L9.88619 19.4887C9.35369 18.9562 9.35369 18.0925 9.88619 17.56C10.4187 17.0275 11.2824 17.0275 11.8149 17.56L18.8241 24.5692C20.1897 25.9348 22.4166 26.0215 23.823 24.6966C25.2829 23.3207 25.3109 21.0098 23.8994 19.6008L23.5657 19.2671C23.0332 18.7346 23.0332 17.8708 23.5657 17.3383C24.0982 16.8058 24.9619 16.8058 25.4944 17.3383L25.8282 17.6721C28.2996 20.1435 28.2741 24.1768 25.7594 26.6177H25.7543Z" fill="#B583FF"/>
</g>
<g clip-path="url(#clip1_108_1749)">
<path d="M48.0518 17.2085C47.6544 17.2085 47.3233 17.095 47.0584 16.8584C46.7934 16.6219 46.6326 16.2623 46.5758 15.7893L45.8757 14.9661L46.5758 14.389C46.6799 14.3038 46.8124 14.2565 46.9543 14.2565H49.3102C50.0104 14.2565 50.597 14.1524 51.0606 13.9348C51.5337 13.7077 51.8838 13.3671 52.1203 12.9035C52.3568 12.4399 52.4704 11.8438 52.4704 11.1153C52.4704 9.97041 52.1771 9.20402 51.5999 8.80664C51.0322 8.39979 50.228 8.2011 49.2061 8.2011H47.0962C46.8408 8.2011 46.6137 8.04025 46.5285 7.80371L45.6013 5.2207H49.367C51.5621 5.2207 53.2178 5.68432 54.3343 6.60209C55.4602 7.5104 56.0279 8.97694 56.0279 10.9828C56.0279 11.787 55.9144 12.5629 55.6778 13.3009C55.4508 14.0483 55.0818 14.7106 54.5708 15.2973C54.0599 15.8744 53.3787 16.338 52.5366 16.6881C51.6945 17.0287 50.6443 17.199 49.4048 17.199H48.0518V17.2085ZM43.2832 22.6773V5.81678C43.2832 5.48563 43.5481 5.2207 43.8793 5.2207H46.1406C46.4717 5.2207 46.7367 5.48563 46.7367 5.81678V22.6773C46.7367 23.0084 46.4717 23.2734 46.1406 23.2734H43.8793C43.5481 23.2734 43.2832 23.0084 43.2832 22.6773Z" fill="#FDFCF7"/>
<path d="M58.1755 22.6775V10.3301C58.1755 9.99897 58.4404 9.73404 58.7716 9.73404H60.626C60.9477 9.73404 61.2032 9.98004 61.2221 10.3017L61.5059 15.0041L61.2599 14.2377C61.3356 13.6038 61.4586 12.9983 61.6289 12.4211C61.8087 11.8534 62.0547 11.3425 62.3575 10.8978C62.6697 10.4531 63.0576 10.103 63.5118 9.83812C63.9754 9.58266 64.5147 9.4502 65.1392 9.4502C65.3095 9.4502 65.4703 9.4502 65.6406 9.47858C65.811 9.4975 65.9718 9.52589 66.1043 9.56373V13.1686C65.8204 13.0834 65.5366 13.0361 65.2433 13.0077C64.9594 12.9794 64.685 12.9604 64.4201 12.9604C64.0322 12.9604 63.6537 13.0172 63.2753 13.1213C62.9063 13.2159 62.5751 13.3767 62.2818 13.5944C61.9885 13.8025 61.7614 14.058 61.6006 14.3797V22.6964C61.6006 23.0275 61.3356 23.2925 61.0045 23.2925H58.7621C58.4309 23.2925 58.166 23.0275 58.166 22.6964L58.1755 22.6775Z" fill="#FDFCF7"/>
<path d="M73.825 23.4628C72.4814 23.4628 71.3366 23.1978 70.3715 22.6585C69.4064 22.1098 68.6779 21.3245 68.1575 20.2837C67.6466 19.2429 67.3911 17.9751 67.3911 16.4801C67.3911 14.9852 67.656 13.6984 68.1953 12.6577C68.7441 11.6169 69.501 10.8221 70.4661 10.2734C71.4407 9.72458 72.5761 9.4502 73.8723 9.4502C75.1685 9.4502 76.1904 9.6962 77.0608 10.1787C77.9408 10.6613 78.6031 11.3709 79.0572 12.3265C79.5114 13.2727 79.7385 14.427 79.7385 15.8084C79.7385 16.0354 79.7385 16.2436 79.7101 16.4423C79.7101 16.641 79.6911 16.8775 79.6722 17.1519H71.4217C71.0433 17.1519 70.7689 17.4925 70.8257 17.8615C70.9581 18.7509 71.242 19.4227 71.6583 19.8863C72.1881 20.4635 72.8788 20.7568 73.7209 20.7568C74.4684 20.7568 75.0361 20.5959 75.424 20.2742C75.7173 20.0282 75.9254 19.7538 76.0579 19.4321C76.1431 19.2145 76.3701 19.101 76.6067 19.101H78.7545C79.1424 19.101 79.4357 19.47 79.3411 19.8485C79.1991 20.4445 78.9626 20.9744 78.6125 21.4569C78.13 22.1098 77.4866 22.6112 76.6634 22.9613C75.8497 23.3114 74.9036 23.4817 73.8155 23.4817L73.825 23.4628ZM72.2354 15.0514H75.7457C76.1241 15.0514 76.408 14.7014 76.3418 14.3324C76.2377 13.7552 76.039 13.2821 75.7268 12.9415C75.3104 12.459 74.6481 12.2224 73.7398 12.2224C72.7369 12.2224 71.9989 12.5725 71.5164 13.2632C71.0433 13.9539 70.7878 14.919 70.75 16.1679C70.8162 15.7327 70.9676 15.4394 71.2136 15.288C71.4501 15.1271 71.8002 15.0514 72.2449 15.0514H72.2354Z" fill="#FDFCF7"/>
<path d="M87.2889 23.4908C86.1913 23.4908 85.2262 23.3299 84.4031 23.0082C83.5799 22.6866 82.9365 22.1946 82.4635 21.5417C82.1134 21.0402 81.8768 20.4347 81.7633 19.7251C81.7065 19.3561 81.9809 19.006 82.3594 19.006H84.5355C84.8005 19.006 85.037 19.1763 85.1032 19.4223C85.2262 19.8859 85.4439 20.2455 85.7561 20.482C86.1535 20.7848 86.6644 20.9267 87.2983 20.9267C87.6768 20.9267 88.0269 20.8889 88.358 20.8037C88.6797 20.7185 88.9352 20.5766 89.1244 20.3779C89.3231 20.1792 89.4272 19.9049 89.4272 19.5548C89.4272 19.2899 89.3609 19.0722 89.2379 18.9114C89.1149 18.7411 88.9257 18.5897 88.6797 18.4762C88.4432 18.3532 88.1404 18.2396 87.7809 18.1261C87.4213 18.022 87.0145 17.899 86.5509 17.7665C85.7277 17.53 84.9802 17.2367 84.2895 16.9055C83.5989 16.5649 83.0501 16.1202 82.6338 15.562C82.2175 15.0038 82.0093 14.2847 82.0093 13.3858C82.0093 12.0991 82.4824 11.134 83.4285 10.4717C84.3747 9.7999 85.6047 9.46875 87.1186 9.46875C88.0458 9.46875 88.8784 9.60121 89.6259 9.85667C90.3733 10.1121 90.9883 10.5568 91.4614 11.1813C91.8304 11.6638 92.1048 12.2883 92.2656 13.0547C92.3508 13.4331 92.067 13.8021 91.679 13.8021H89.5502C89.2947 13.8021 89.0582 13.6318 88.9825 13.3858C88.8879 13.0736 88.7649 12.8181 88.6135 12.6384C88.4053 12.3734 88.1688 12.1937 87.8944 12.1085C87.6295 12.0139 87.3456 11.9761 87.0523 11.9761C86.7212 11.9761 86.4184 12.0328 86.1535 12.1369C85.898 12.241 85.6993 12.3829 85.5574 12.5816C85.4155 12.7803 85.3492 13.0168 85.3492 13.3007C85.3492 13.6508 85.4439 13.9346 85.652 14.1711C85.8602 14.4077 86.1724 14.6064 86.5792 14.7767C87.005 14.947 87.5254 15.1173 88.1593 15.3065C88.6229 15.4295 89.1244 15.5715 89.6543 15.7418C90.1841 15.9121 90.6856 16.1297 91.1586 16.4135C91.6317 16.6879 92.0196 17.0569 92.313 17.53C92.6157 17.9936 92.7766 18.5992 92.7766 19.3466C92.7766 20.6429 92.2751 21.6647 91.2816 22.3932C90.2882 23.1218 88.9541 23.4908 87.2794 23.4908H87.2889Z" fill="#FDFCF7"/>
<path d="M99.419 23.4529C98.3215 23.4529 97.4605 23.1785 96.8455 22.6203C96.2305 22.0526 95.9277 21.22 95.9277 20.1129L95.8993 13.6696C95.8993 13.3763 95.975 13.1303 96.1264 12.9222C96.2778 12.714 96.4859 12.5815 96.7603 12.5153L95.8993 10.2635V9.87554L96.4954 6.33691C96.5427 6.0436 96.7981 5.83545 97.0915 5.83545H98.6999C99.0311 5.83545 99.296 6.10037 99.296 6.43153V19.1195C99.296 19.6493 99.3812 20.0183 99.5609 20.2265C99.7407 20.4346 100.081 20.5387 100.564 20.5387C100.952 20.5387 101.292 20.5387 101.595 20.5293C101.898 20.5293 102.163 20.5009 102.418 20.4819V22.7716C102.418 23.0744 102.201 23.3299 101.898 23.3677C101.652 23.4056 101.368 23.4245 101.056 23.4245C100.498 23.4434 99.9583 23.4529 99.419 23.4529ZM94.3003 11.9098V10.3297C94.3003 9.99854 94.5652 9.73361 94.8964 9.73361H101.784C102.116 9.73361 102.38 9.99854 102.38 10.3297V11.9098C102.38 12.2409 102.116 12.5059 101.784 12.5059H94.8964C94.5652 12.5059 94.3003 12.2409 94.3003 11.9098Z" fill="#FDFCF7"/>
<path d="M108.36 23.4247C107.565 23.4247 106.846 23.2734 106.212 22.98C105.578 22.6773 105.086 22.2515 104.717 21.6838C104.358 21.1161 104.188 20.4538 104.188 19.6874C104.188 18.8737 104.348 18.2114 104.661 17.691C104.973 17.1612 105.418 16.7449 105.976 16.4326C106.543 16.1204 107.187 15.8839 107.925 15.7325C108.436 15.6284 108.966 15.5338 109.514 15.4676C110.073 15.3919 110.584 15.3351 111.066 15.2973C111.549 15.2594 111.937 15.2216 112.23 15.1932V14.7296C112.23 13.8402 112.069 13.2063 111.747 12.8089C111.426 12.402 110.867 12.2033 110.082 12.2033C109.581 12.2033 109.155 12.2696 108.805 12.402C108.464 12.5345 108.209 12.771 108.038 13.1211C107.915 13.3671 107.84 13.6888 107.802 14.0956C107.773 14.3984 107.509 14.6255 107.206 14.6255H105.153C104.812 14.6255 104.547 14.3416 104.547 14.001C104.547 13.0927 104.736 12.3358 105.105 11.7113C105.559 10.9449 106.231 10.3867 107.102 10.0177C107.991 9.6487 109.022 9.45947 110.215 9.45947C110.915 9.45947 111.586 9.53517 112.23 9.69601C112.873 9.8474 113.45 10.1029 113.942 10.4813C114.444 10.8503 114.841 11.3423 115.135 11.9857C115.428 12.6196 115.579 13.4333 115.579 14.4079V22.6773C115.579 23.0084 115.314 23.2734 114.983 23.2734H112.807C112.476 23.2734 112.201 22.999 112.211 22.6678L112.23 20.17C112.078 21.0783 111.7 21.8541 111.085 22.4786C110.47 23.103 109.562 23.4247 108.351 23.4247H108.36ZM109.401 21.031C109.827 21.031 110.233 20.9553 110.631 20.8039C111.038 20.643 111.388 20.4349 111.672 20.1605C111.974 19.8861 112.154 19.5739 112.23 19.2143V16.9152C111.899 16.9625 111.539 17.0193 111.151 17.0855C110.763 17.1517 110.423 17.218 110.129 17.2842C109.249 17.464 108.634 17.7194 108.275 18.0411C107.925 18.3533 107.755 18.798 107.755 19.3657C107.755 19.7063 107.821 19.9997 107.953 20.2457C108.095 20.4917 108.284 20.6809 108.54 20.8133C108.795 20.9458 109.079 21.012 109.401 21.012V21.031Z" fill="#FDFCF7"/>
<path d="M118.91 22.6768V4.51063C118.91 4.17947 119.175 3.91455 119.506 3.91455H121.748C122.079 3.91455 122.344 4.17947 122.344 4.51063V22.6768C122.344 23.008 122.079 23.2729 121.748 23.2729H119.506C119.175 23.2729 118.91 23.008 118.91 22.6768Z" fill="#FDFCF7"/>
<path d="M129.62 23.5476C128.418 23.5476 127.472 23.1408 126.772 22.3271C126.072 21.5039 125.731 20.3023 125.731 18.7033V10.3109C125.731 9.97977 125.996 9.71484 126.327 9.71484H128.569C128.901 9.71484 129.166 9.97977 129.166 10.3109V17.6436C129.166 18.4006 129.232 18.9966 129.374 19.4319C129.516 19.8671 129.724 20.1699 130.008 20.3496C130.301 20.5294 130.651 20.624 131.077 20.624C131.644 20.624 132.146 20.4537 132.6 20.1036C133.016 19.7914 133.329 19.4319 133.537 19.0345C133.584 18.9493 133.603 18.8453 133.603 18.7506V10.3109C133.603 9.97977 133.868 9.71484 134.199 9.71484H136.423C136.754 9.71484 137.019 9.97977 137.019 10.3109V22.6772C137.019 23.0083 136.754 23.2733 136.423 23.2733H134.587C134.275 23.2733 134.01 23.0273 133.991 22.715L133.688 18.1546L133.849 19.0818C133.858 19.148 133.858 19.2237 133.849 19.2899C133.745 19.9996 133.556 20.6619 133.272 21.2958C132.979 21.9581 132.543 22.4974 131.957 22.9232C131.37 23.3395 130.585 23.5476 129.601 23.5476H129.62Z" fill="#FDFCF7"/>
<path d="M139.999 23.2827C139.536 23.2827 139.242 22.7812 139.479 22.3744L144.56 13.7549C144.815 13.3196 145.089 12.9696 145.392 12.6952C145.695 12.4208 146.026 12.2032 146.414 12.0518L146.774 12.2032C146.272 12.2599 145.761 12.3262 145.222 12.4019C144.683 12.4776 144.2 12.5154 143.765 12.5154H140.463C140.132 12.5154 139.867 12.2505 139.867 11.9193V10.3392C139.867 10.0081 140.132 9.74316 140.463 9.74316H149.3C149.763 9.74316 150.057 10.2446 149.82 10.6515L144.872 19.0912C144.55 19.6494 144.181 20.0847 143.784 20.4063C143.377 20.728 142.942 21.0024 142.478 21.2106L142.412 20.7375C142.894 20.6997 143.396 20.6429 143.926 20.5861C144.456 20.5199 144.91 20.4915 145.288 20.4915H149.394C149.726 20.4915 149.991 20.7564 149.991 21.0876V22.696C149.991 23.0272 149.726 23.2921 149.394 23.2921H139.99L139.999 23.2827Z" fill="#FDFCF7"/>
</g>
<defs>
<clipPath id="clip0_108_1749">
<rect width="27.6596" height="27.6596" fill="white" transform="translate(0 0.723633)"/>
</clipPath>
<clipPath id="clip1_108_1749">
<rect width="106.717" height="19.6327" fill="white" transform="translate(43.2832 3.91455)"/>
</clipPath>
</defs>
</svg>
