<svg width="152" height="25" viewBox="0 0 152 25" fill="none" xmlns="http://www.w3.org/2000/svg">
<g clip-path="url(#clip0_56_1886)">
<path d="M1.59814 23.2774C-0.568862 21.0413 -0.481353 17.458 1.72019 15.2565L8.04158 8.93507C8.52288 8.45377 9.30356 8.45377 9.78486 8.93507C10.2662 9.41637 10.2662 10.197 9.78486 10.6783L3.44965 17.0136C2.21531 18.2479 2.13702 20.2606 3.33451 21.5318C4.57806 22.8536 6.66677 22.8767 7.94026 21.6009L8.24193 21.2992C8.72324 20.8179 9.50391 20.8179 9.98521 21.2992C10.4665 21.7805 10.4665 22.5612 9.98521 23.0425L9.68353 23.3442C7.44975 25.5779 3.8043 25.5549 1.59814 23.282V23.2774Z" fill="#AB74FF"/>
<path d="M23.4019 1.72257C25.5689 3.95636 25.4813 7.54194 23.2798 9.74348L16.9584 16.0649C16.4771 16.5462 15.6964 16.5462 15.2151 16.0649C14.7338 15.5836 14.7338 14.8029 15.2151 14.3216L21.5503 7.98639C22.7847 6.75205 22.863 4.73934 21.6655 3.46815C20.4219 2.1463 18.3332 2.12327 17.0597 3.39907L16.7581 3.70074C16.2768 4.18204 15.4961 4.18204 15.0148 3.70074C14.5335 3.21944 14.5335 2.43877 15.0148 1.95747L15.3165 1.65579C17.5502 -0.577999 21.1957 -0.557273 23.4019 1.71797V1.72257Z" fill="#AB74FF"/>
<path d="M1.72271 1.59814C3.9588 -0.568862 7.54207 -0.481353 9.74362 1.72019L16.065 8.04158C16.5463 8.52288 16.5463 9.30356 16.065 9.78486C15.5837 10.2662 14.803 10.2662 14.3217 9.78486L7.98653 3.44965C6.75219 2.21531 4.73947 2.13702 3.46829 3.33451C2.14644 4.57806 2.12341 6.66677 3.3992 7.94026L3.70088 8.24193C4.18218 8.72324 4.18218 9.50391 3.70088 9.98521C3.21958 10.4665 2.4389 10.4665 1.9576 9.98521L1.65593 9.68353C-0.573256 7.44975 -0.55253 3.8043 1.72271 1.59814Z" fill="#AB74FF"/>
<path d="M4.26973 7.15958C3.47064 6.36048 3.47064 5.06627 4.26973 4.26717C5.06883 3.46807 6.36305 3.46807 7.16214 4.26717C7.96124 5.06627 7.96124 6.36048 7.16214 7.15958C6.36305 7.95868 5.06883 7.95868 4.26973 7.15958Z" fill="#AB74FF"/>
<path d="M17.8405 7.15958C17.0414 6.36048 17.0414 5.06627 17.8405 4.26717C18.6396 3.46807 19.9338 3.46807 20.7329 4.26717C21.532 5.06627 21.532 6.36048 20.7329 7.15958C19.9338 7.95868 18.6396 7.95868 17.8405 7.15958Z" fill="#AB74FF"/>
<path d="M4.26973 20.689C3.47064 19.8899 3.47064 18.5957 4.26973 17.7966C5.06883 16.9975 6.36305 16.9975 7.16214 17.7966C7.96124 18.5957 7.96124 19.8899 7.16214 20.689C6.36305 21.4881 5.06883 21.4881 4.26973 20.689Z" fill="#AB74FF"/>
<path d="M17.8405 20.689C17.0414 19.8899 17.0414 18.5957 17.8405 17.7966C18.6396 16.9975 19.9338 16.9975 20.7329 17.7966C21.532 18.5957 21.532 19.8899 20.7329 20.689C19.9338 21.4881 18.6396 21.4881 17.8405 20.689Z" fill="#AB74FF"/>
<path d="M23.2775 23.4041C21.0437 25.5711 17.4581 25.4836 15.2566 23.2821L8.93519 16.9607C8.45389 16.4794 8.45389 15.6987 8.93519 15.2174C9.41649 14.7361 10.1972 14.7361 10.6785 15.2174L17.0137 21.5526C18.248 22.7869 20.2607 22.8652 21.5319 21.6677C22.8515 20.4242 22.8768 18.3355 21.601 17.062L21.2993 16.7603C20.818 16.279 20.818 15.4983 21.2993 15.017C21.7806 14.5357 22.5613 14.5357 23.0426 15.017L23.3443 15.3187C25.5781 17.5525 25.555 21.198 23.2821 23.4041H23.2775Z" fill="#AB74FF"/>
</g>
<g clip-path="url(#clip1_56_1886)">
<path d="M44.04 16.05C43.62 16.05 43.27 15.93 42.99 15.68C42.71 15.43 42.54 15.05 42.48 14.55L41.74 13.68L42.48 13.07C42.59 12.98 42.73 12.93 42.88 12.93H45.37C46.11 12.93 46.73 12.82 47.22 12.59C47.72 12.35 48.09 11.99 48.34 11.5C48.59 11.01 48.71 10.38 48.71 9.61C48.71 8.4 48.4 7.59 47.79 7.17C47.19 6.74 46.34 6.53 45.26 6.53H43.03C42.76 6.53 42.52 6.36 42.43 6.11L41.45 3.38H45.43C47.75 3.38 49.5 3.87 50.68 4.84C51.87 5.8 52.47 7.35 52.47 9.47C52.47 10.32 52.35 11.14 52.1 11.92C51.86 12.71 51.47 13.41 50.93 14.03C50.39 14.64 49.67 15.13 48.78 15.5C47.89 15.86 46.78 16.04 45.47 16.04H44.04V16.05ZM39 21.83V4.01C39 3.66 39.28 3.38 39.63 3.38H42.02C42.37 3.38 42.65 3.66 42.65 4.01V21.83C42.65 22.18 42.37 22.46 42.02 22.46H39.63C39.28 22.46 39 22.18 39 21.83Z" fill="#363531"/>
<path d="M54.74 21.83V8.77998C54.74 8.42998 55.02 8.14998 55.37 8.14998H57.33C57.67 8.14998 57.94 8.40998 57.96 8.74998L58.26 13.72L58 12.91C58.08 12.24 58.21 11.6 58.39 10.99C58.58 10.39 58.84 9.84998 59.16 9.37998C59.49 8.90998 59.9 8.53998 60.38 8.25998C60.87 7.98998 61.44 7.84998 62.1 7.84998C62.28 7.84998 62.45 7.84998 62.63 7.87998C62.81 7.89998 62.98 7.92998 63.12 7.96998V11.78C62.82 11.69 62.52 11.64 62.21 11.61C61.91 11.58 61.62 11.56 61.34 11.56C60.93 11.56 60.53 11.62 60.13 11.73C59.74 11.83 59.39 12 59.08 12.23C58.77 12.45 58.53 12.72 58.36 13.06V21.85C58.36 22.2 58.08 22.48 57.73 22.48H55.36C55.01 22.48 54.73 22.2 54.73 21.85L54.74 21.83Z" fill="#363531"/>
<path d="M71.28 22.66C69.86 22.66 68.65 22.38 67.63 21.81C66.61 21.23 65.84 20.4 65.29 19.3C64.75 18.2 64.48 16.86 64.48 15.28C64.48 13.7 64.76 12.34 65.33 11.24C65.91 10.14 66.71 9.29998 67.73 8.71998C68.76 8.13998 69.96 7.84998 71.33 7.84998C72.7 7.84998 73.78 8.10998 74.7 8.61998C75.63 9.12998 76.33 9.87998 76.81 10.89C77.29 11.89 77.53 13.11 77.53 14.57C77.53 14.81 77.53 15.03 77.5 15.24C77.5 15.45 77.48 15.7 77.46 15.99H68.74C68.34 15.99 68.05 16.35 68.11 16.74C68.25 17.68 68.55 18.39 68.99 18.88C69.55 19.49 70.28 19.8 71.17 19.8C71.96 19.8 72.56 19.63 72.97 19.29C73.28 19.03 73.5 18.74 73.64 18.4C73.73 18.17 73.97 18.05 74.22 18.05H76.49C76.9 18.05 77.21 18.44 77.11 18.84C76.96 19.47 76.71 20.03 76.34 20.54C75.83 21.23 75.15 21.76 74.28 22.13C73.42 22.5 72.42 22.68 71.27 22.68L71.28 22.66ZM69.6 13.77H73.31C73.71 13.77 74.01 13.4 73.94 13.01C73.83 12.4 73.62 11.9 73.29 11.54C72.85 11.03 72.15 10.78 71.19 10.78C70.13 10.78 69.35 11.15 68.84 11.88C68.34 12.61 68.07 13.63 68.03 14.95C68.1 14.49 68.26 14.18 68.52 14.02C68.77 13.85 69.14 13.77 69.61 13.77H69.6Z" fill="#363531"/>
<path d="M85.51 22.69C84.35 22.69 83.33 22.52 82.46 22.18C81.59 21.84 80.91 21.32 80.41 20.63C80.04 20.1 79.79 19.46 79.67 18.71C79.61 18.32 79.9 17.95 80.3 17.95H82.6C82.88 17.95 83.13 18.13 83.2 18.39C83.33 18.88 83.56 19.26 83.89 19.51C84.31 19.83 84.85 19.98 85.52 19.98C85.92 19.98 86.29 19.94 86.64 19.85C86.98 19.76 87.25 19.61 87.45 19.4C87.66 19.19 87.77 18.9 87.77 18.53C87.77 18.25 87.7 18.02 87.57 17.85C87.44 17.67 87.24 17.51 86.98 17.39C86.73 17.26 86.41 17.14 86.03 17.02C85.65 16.91 85.22 16.78 84.73 16.64C83.86 16.39 83.07 16.08 82.34 15.73C81.61 15.37 81.03 14.9 80.59 14.31C80.15 13.72 79.93 12.96 79.93 12.01C79.93 10.65 80.43 9.63 81.43 8.93C82.43 8.22 83.73 7.87 85.33 7.87C86.31 7.87 87.19 8.01 87.98 8.28C88.77 8.55 89.42 9.01999 89.92 9.68C90.31 10.19 90.6 10.85 90.77 11.66C90.86 12.06 90.56 12.45 90.15 12.45H87.9C87.63 12.45 87.38 12.27 87.3 12.01C87.2 11.68 87.07 11.41 86.91 11.22C86.69 10.94 86.44 10.75 86.15 10.66C85.87 10.56 85.57 10.52 85.26 10.52C84.91 10.52 84.59 10.58 84.31 10.69C84.04 10.8 83.83 10.95 83.68 11.16C83.53 11.37 83.46 11.62 83.46 11.92C83.46 12.29 83.56 12.59 83.78 12.84C84 13.09 84.33 13.3 84.76 13.48C85.21 13.66 85.76 13.84 86.43 14.04C86.92 14.17 87.45 14.32 88.01 14.5C88.57 14.68 89.1 14.91 89.6 15.21C90.1 15.5 90.51 15.89 90.82 16.39C91.14 16.88 91.31 17.52 91.31 18.31C91.31 19.68 90.78 20.76 89.73 21.53C88.68 22.3 87.27 22.69 85.5 22.69H85.51Z" fill="#363531"/>
<path d="M98.3299 22.65C97.1699 22.65 96.2599 22.36 95.6099 21.77C94.9599 21.17 94.6399 20.29 94.6399 19.12L94.6099 12.31C94.6099 12 94.6899 11.74 94.8499 11.52C95.0099 11.3 95.2299 11.16 95.5199 11.09L94.6099 8.71003V8.30003L95.2399 4.56003C95.2899 4.25003 95.5599 4.03003 95.8699 4.03003H97.5699C97.9199 4.03003 98.1999 4.31003 98.1999 4.66003V18.07C98.1999 18.63 98.2899 19.02 98.4799 19.24C98.6699 19.46 99.0299 19.57 99.5399 19.57C99.9499 19.57 100.31 19.57 100.63 19.56C100.95 19.56 101.23 19.53 101.5 19.51V21.93C101.5 22.25 101.27 22.52 100.95 22.56C100.69 22.6 100.39 22.62 100.06 22.62C99.4699 22.64 98.8999 22.65 98.3299 22.65ZM92.9199 10.45V8.78003C92.9199 8.43003 93.1999 8.15003 93.5499 8.15003H100.83C101.18 8.15003 101.46 8.43003 101.46 8.78003V10.45C101.46 10.8 101.18 11.08 100.83 11.08H93.5499C93.1999 11.08 92.9199 10.8 92.9199 10.45Z" fill="#363531"/>
<path d="M107.78 22.62C106.94 22.62 106.18 22.46 105.51 22.15C104.84 21.83 104.32 21.38 103.93 20.78C103.55 20.18 103.37 19.48 103.37 18.67C103.37 17.81 103.54 17.11 103.87 16.56C104.2 16 104.67 15.56 105.26 15.23C105.86 14.9 106.54 14.65 107.32 14.49C107.86 14.38 108.42 14.28 109 14.21C109.59 14.13 110.13 14.07 110.64 14.03C111.15 13.99 111.56 13.95 111.87 13.92V13.43C111.87 12.49 111.7 11.82 111.36 11.4C111.02 10.97 110.43 10.76 109.6 10.76C109.07 10.76 108.62 10.83 108.25 10.97C107.89 11.11 107.62 11.36 107.44 11.73C107.31 11.99 107.23 12.33 107.19 12.76C107.16 13.08 106.88 13.32 106.56 13.32H104.39C104.03 13.32 103.75 13.02 103.75 12.66C103.75 11.7 103.95 10.9 104.34 10.24C104.82 9.42999 105.53 8.83999 106.45 8.44999C107.39 8.05999 108.48 7.85999 109.74 7.85999C110.48 7.85999 111.19 7.93999 111.87 8.10999C112.55 8.26999 113.16 8.53999 113.68 8.93999C114.21 9.32999 114.63 9.84998 114.94 10.53C115.25 11.2 115.41 12.06 115.41 13.09V21.83C115.41 22.18 115.13 22.46 114.78 22.46H112.48C112.13 22.46 111.84 22.17 111.85 21.82L111.87 19.18C111.71 20.14 111.31 20.96 110.66 21.62C110.01 22.28 109.05 22.62 107.77 22.62H107.78ZM108.88 20.09C109.33 20.09 109.76 20.01 110.18 19.85C110.61 19.68 110.98 19.46 111.28 19.17C111.6 18.88 111.79 18.55 111.87 18.17V15.74C111.52 15.79 111.14 15.85 110.73 15.92C110.32 15.99 109.96 16.06 109.65 16.13C108.72 16.32 108.07 16.59 107.69 16.93C107.32 17.26 107.14 17.73 107.14 18.33C107.14 18.69 107.21 19 107.35 19.26C107.5 19.52 107.7 19.72 107.97 19.86C108.24 20 108.54 20.07 108.88 20.07V20.09Z" fill="#363531"/>
<path d="M118.93 21.83V2.63C118.93 2.28 119.21 2 119.56 2H121.93C122.28 2 122.56 2.28 122.56 2.63V21.83C122.56 22.18 122.28 22.46 121.93 22.46H119.56C119.21 22.46 118.93 22.18 118.93 21.83Z" fill="#363531"/>
<path d="M130.25 22.75C128.98 22.75 127.98 22.32 127.24 21.46C126.5 20.59 126.14 19.32 126.14 17.63V8.76C126.14 8.41001 126.42 8.13 126.77 8.13H129.14C129.49 8.13 129.77 8.41001 129.77 8.76V16.51C129.77 17.31 129.84 17.94 129.99 18.4C130.14 18.86 130.36 19.18 130.66 19.37C130.97 19.56 131.34 19.66 131.79 19.66C132.39 19.66 132.92 19.48 133.4 19.11C133.84 18.78 134.17 18.4 134.39 17.98C134.44 17.89 134.46 17.78 134.46 17.68V8.76C134.46 8.41001 134.74 8.13 135.09 8.13H137.44C137.79 8.13 138.07 8.41001 138.07 8.76V21.83C138.07 22.18 137.79 22.46 137.44 22.46H135.5C135.17 22.46 134.89 22.2 134.87 21.87L134.55 17.05L134.72 18.03C134.73 18.1 134.73 18.18 134.72 18.25C134.61 19 134.41 19.7 134.11 20.37C133.8 21.07 133.34 21.64 132.72 22.09C132.1 22.53 131.27 22.75 130.23 22.75H130.25Z" fill="#363531"/>
<path d="M141.22 22.47C140.73 22.47 140.42 21.94 140.67 21.51L146.04 12.4C146.31 11.94 146.6 11.57 146.92 11.28C147.24 10.99 147.59 10.76 148 10.6L148.38 10.76C147.85 10.82 147.31 10.89 146.74 10.97C146.17 11.05 145.66 11.09 145.2 11.09H141.71C141.36 11.09 141.08 10.81 141.08 10.46V8.78997C141.08 8.43997 141.36 8.15997 141.71 8.15997H151.05C151.54 8.15997 151.85 8.68997 151.6 9.11997L146.37 18.04C146.03 18.63 145.64 19.09 145.22 19.43C144.79 19.77 144.33 20.06 143.84 20.28L143.77 19.78C144.28 19.74 144.81 19.68 145.37 19.62C145.93 19.55 146.41 19.52 146.81 19.52H151.15C151.5 19.52 151.78 19.8 151.78 20.15V21.85C151.78 22.2 151.5 22.48 151.15 22.48H141.21L141.22 22.47Z" fill="#363531"/>
</g>
<defs>
<clipPath id="clip0_56_1886">
<rect width="25" height="25" fill="white"/>
</clipPath>
<clipPath id="clip1_56_1886">
<rect width="112.79" height="20.75" fill="white" transform="translate(39 2)"/>
</clipPath>
</defs>
</svg>
