<svg width="40" height="40" viewBox="0 0 40 40" fill="none" xmlns="http://www.w3.org/2000/svg">
<rect width="40" height="40" rx="6" fill="#DBEAFE"/>
<path d="M21.5552 15.3334H18.4441C16.733 15.3334 15.333 16.7334 15.333 18.4445V21.5556C15.333 23.2667 16.733 24.6667 18.4441 24.6667H21.5552C23.2663 24.6667 24.6664 23.2667 24.6664 21.5556V18.4445C24.6664 16.7334 23.2663 15.3334 21.5552 15.3334Z" fill="#2563EB"/>
<path d="M30.8892 24.6667H27.7781C26.067 24.6667 24.667 26.0667 24.667 27.7778V30.8889C24.667 32.6 26.067 34 27.7781 34H30.8892C32.6003 34 34.0003 32.6 34.0003 30.8889V27.7778C34.0003 26.0667 32.6003 24.6667 30.8892 24.6667Z" fill="#2563EB"/>
<path d="M12.2222 15.3333H9.11111C7.4 15.3333 6 13.9333 6 12.2221V9.11103C6 7.39992 7.4 5.99992 9.11111 5.99992H12.2222C13.9333 5.99992 15.3333 7.39992 15.3333 9.11103V12.2221C15.3333 13.9333 13.9333 15.3333 12.2222 15.3333Z" fill="#2563EB"/>
<path d="M24.667 9.11103V12.2221C24.667 13.9333 26.067 15.3333 27.7781 15.3333H30.8892C32.6003 15.3333 34.0003 13.9333 34.0003 12.2221V9.11103C34.0003 7.39992 32.6003 5.99992 30.8892 5.99992H27.7781C26.067 5.99992 24.667 7.39992 24.667 9.11103Z" fill="#2563EB"/>
<path d="M15.3333 27.7778V30.8889C15.3333 32.6 13.9333 34 12.2222 34H9.11111C7.4 34 6 32.6 6 30.8889V27.7778C6 26.0667 7.4 24.6667 9.11111 24.6667H12.2222C13.9333 24.6667 15.3333 26.0667 15.3333 27.7778Z" fill="#2563EB"/>
<path d="M12.2227 24.6667C13.9338 24.6667 15.3338 26.0667 15.3338 27.7778C15.3338 26.0667 16.7338 24.6667 18.4449 24.6667C16.7338 24.6667 15.3338 23.2667 15.3338 21.5556C15.3338 23.2667 13.9338 24.6667 12.2227 24.6667Z" fill="#2563EB"/>
<path d="M21.5557 24.6667C23.2668 24.6667 24.6668 26.0667 24.6668 27.7778C24.6668 26.0667 26.0668 24.6667 27.7779 24.6667C26.0668 24.6667 24.6668 23.2667 24.6668 21.5556C24.6668 23.2667 23.2668 24.6667 21.5557 24.6667Z" fill="#2563EB"/>
<path d="M12.2227 15.3332C13.9338 15.3332 15.3338 16.7332 15.3338 18.4443C15.3338 16.7332 16.7338 15.3332 18.4449 15.3332C16.7338 15.3332 15.3338 13.9332 15.3338 12.2221C15.3338 13.9332 13.9338 15.3332 12.2227 15.3332Z" fill="#2563EB"/>
<path d="M21.5557 15.3332C23.2668 15.3332 24.6668 16.7332 24.6668 18.4443C24.6668 16.7332 26.0668 15.3332 27.7779 15.3332C26.0668 15.3332 24.6668 13.9332 24.6668 12.2221C24.6668 13.9332 23.2668 15.3332 21.5557 15.3332Z" fill="#2563EB"/>
</svg>
