<svg width="36" height="36" viewBox="0 0 36 36" fill="none" xmlns="http://www.w3.org/2000/svg">
<path d="M25.0004 13.8V11C25.0004 9.45355 23.7468 8.19995 22.2004 8.19995H8.20039C6.65399 8.19995 5.40039 9.45355 5.40039 11V19.4C5.40039 20.9463 6.65399 22.1999 8.20039 22.1999H11.0004M13.8004 27.7999H27.8004C29.3468 27.7999 30.6004 26.5463 30.6004 24.9999V16.6C30.6004 15.0536 29.3468 13.8 27.8004 13.8H13.8004C12.254 13.8 11.0004 15.0536 11.0004 16.6V24.9999C11.0004 26.5463 12.254 27.7999 13.8004 27.7999ZM23.6004 20.7999C23.6004 22.3463 22.3468 23.5999 20.8004 23.5999C19.254 23.5999 18.0004 22.3463 18.0004 20.7999C18.0004 19.2536 19.254 18 20.8004 18C22.3468 18 23.6004 19.2536 23.6004 20.7999Z" stroke="#0044FF" stroke-width="1.67" stroke-linecap="round" stroke-linejoin="round"/>
</svg>
