<svg width="36" height="36" viewBox="0 0 36 36" fill="none" xmlns="http://www.w3.org/2000/svg">
<path d="M12.4004 23.6L16.4305 19.5699M16.4305 19.5699C17.1906 20.3299 18.2406 20.8 19.4004 20.8C21.72 20.8 23.6004 18.9196 23.6004 16.6C23.6004 14.2804 21.72 12.4 19.4004 12.4C17.0808 12.4 15.2004 14.2804 15.2004 16.6C15.2004 17.7598 15.6705 18.8098 16.4305 19.5699ZM30.6004 18C30.6004 24.9588 24.9592 30.6 18.0004 30.6C11.0416 30.6 5.40039 24.9588 5.40039 18C5.40039 11.0412 11.0416 5.40002 18.0004 5.40002C24.9592 5.40002 30.6004 11.0412 30.6004 18Z" stroke="#0044FF" stroke-width="1.67" stroke-linecap="round"/>
</svg>
